# https://github.com/mikedh/trimesh
v 0.01586473 -0.05238718 0.02623311
v 0.00222355 -0.04481191 0.02621437
v 0.00222355 -0.05845038 0.02621437
v 0.02040932 -0.06300153 0.02620500
v 0.04465701 -0.04934808 0.02620500
v 0.03708515 -0.04177282 0.02622374
v 0.06285017 0.00369374 0.02621437
v 0.01738206 0.05219939 0.02622374
v 0.00828547 0.05675054 0.02621437
v 0.00085425 0.05219939 0.02620500
v 0.00085425 -0.05981273 0.02620500
v 0.02040932 -0.06451359 0.02619563
v 0.04465701 -0.05087512 0.02616753
v 0.06133284 -0.02813435 0.02617689
v 0.06133284 -0.02662229 0.02620500
v 0.06133284 -0.00084244 0.02621437
v 0.06588483 0.00065465 0.02620500
v 0.05981551 0.02794657 0.02620500
v 0.05072633 0.02188336 0.02621437
v 0.04465701 0.04916030 0.02620500
v 0.02040932 0.06281375 0.02620500
v 0.01889939 0.06281375 0.02620500
v 0.01586473 0.06128671 0.02620500
v 0.02040932 0.06432581 0.02618626
v 0.00085425 0.05371145 0.02599889
v 0.00085425 0.05234910 0.02619563
v 0.00085425 -0.06142959 0.02584900
v 0.02040932 -0.06602564 0.02613005
v 0.04465701 -0.05238718 0.02601763
v 0.04617433 -0.05238718 0.02587710
v 0.06285017 -0.02964641 0.02606447
v 0.06891209 -0.00084244 0.02612068
v 0.06739476 -0.00084244 0.02616753
v 0.06133284 0.02794657 0.02618626
v 0.04617433 0.05068733 0.02618626
v 0.02192665 0.06583786 0.02603637
v 0.01738206 0.06281375 0.02613005
v 0.00085425 0.07190107 0.02114603
v 0.00085425 -0.06148947 0.02583026
v 0.01804820 -0.06837608 0.02541805
v 0.01889939 -0.06753770 0.02568036
v 0.01889939 -0.06839104 0.02544616
v 0.02035010 -0.06759759 0.02568036
v 0.04605591 -0.05379444 0.02557731
v 0.04698851 -0.05322554 0.02544616
v 0.06382718 -0.03087402 0.02556794
v 0.06399002 -0.02964641 0.02572720
v 0.07030360 -0.00235449 0.02562415
v 0.07025179 -0.00084244 0.02572720
v 0.06436750 0.02641954 0.02594268
v 0.06285017 0.02794657 0.02606447
v 0.04769167 0.05068733 0.02601763
v 0.02344398 0.06583786 0.02593331
v 0.02344398 0.06688582 0.02566162
v 0.02192665 0.06685588 0.02564289
v 0.00085425 0.07318857 0.02010613
v 0.00085425 -0.06219310 0.02498710
v 0.01184565 -0.07297213 0.01797949
v 0.01475448 -0.07147505 0.02104297
v 0.01980238 -0.06836110 0.02542742
v 0.01534661 -0.07147505 0.02104297
v 0.04547118 -0.05470766 0.02539931
v 0.04550819 -0.06081578 0.01636811
v 0.04694410 -0.05921390 0.01629316
v 0.06663980 -0.03645816 0.01626506
v 0.06356073 -0.03335919 0.02375983
v 0.06347931 -0.03189204 0.02527752
v 0.07582519 -0.00789372 0.01500032
v 0.07275353 -0.00780389 0.02090244
v 0.07134723 -0.00492949 0.02408773
v 0.07132502 -0.00388152 0.02420015
v 0.07107336 -0.00230958 0.02459362
v 0.06967446 0.02263191 0.02081814
v 0.06686185 0.02490748 0.02412520
v 0.06533712 0.02752738 0.02556794
v 0.06549254 0.02641954 0.02560541
v 0.06436010 0.02800645 0.02572720
v 0.04870569 0.05164547 0.02555857
v 0.04769167 0.05182512 0.02571784
v 0.02448761 0.06670617 0.02547426
v 0.02744825 0.06968538 0.01789518
v 0.00085425 0.07613784 0.01401663
v 0.00085425 -0.07330149 0.00936988
v 0.00085425 -0.07416980 0.00807703
v 0.00085425 -0.07451414 0.00745871
v 0.00085425 -0.07491835 0.00656871
v 0.00085425 -0.07557707 0.00503228
v 0.00085425 -0.07568186 0.00477933
v 0.00085425 -0.07589146 0.00419848
v 0.01495433 -0.07448419 0.01488790
v 0.01586473 -0.07448419 0.01504716
v 0.01816663 -0.07286734 0.01781086
v 0.04258455 -0.05939355 0.02100550
v 0.04412409 -0.05638440 0.02407836
v 0.01732284 -0.07412489 0.01551558
v 0.01846269 -0.07307693 0.01703328
v 0.01898821 -0.07337635 0.01558116
v 0.04570803 -0.06099543 0.01551558
v 0.04646300 -0.06014209 0.01551558
v 0.06647696 -0.03771571 0.01399789
v 0.06672862 -0.03671266 0.01525327
v 0.06829036 -0.03377837 0.01248020
v 0.06819413 -0.03355381 0.01337021
v 0.07578079 -0.00928601 0.01338894
v 0.07587701 -0.00840273 0.01394168
v 0.07608426 -0.00690564 0.01399789
v 0.07590662 -0.00690564 0.01529074
v 0.07561055 -0.00539358 0.01596527
v 0.07139164 0.02490748 0.01653675
v 0.07126581 0.02579076 0.01643369
v 0.05621092 0.05163050 0.01517832
v 0.05464178 0.04854650 0.02095866
v 0.05154791 0.04998370 0.02391909
v 0.05003798 0.05002861 0.02540868
v 0.05496745 0.05187003 0.01669601
v 0.05440493 0.05288805 0.01604959
v 0.03059394 0.06982012 0.01523453
v 0.03032748 0.06664629 0.02087434
v 0.02875094 0.06660138 0.02233582
v 0.02923204 0.06982012 0.01662106
v 0.02796636 0.06990994 0.01708949
v 0.00085425 0.07615280 0.01395105
v 0.02798857 0.07050878 0.01551558
v 0.02738904 0.07118247 0.01339831
v 0.00085425 -0.07610104 0.00338343
v 0.01440661 -0.07467881 0.01396042
v 0.01586473 -0.07475367 0.01399789
v 0.01678253 -0.07440934 0.01500969
v 0.01773733 -0.07424466 0.01399789
v 0.01889939 -0.07382547 0.01399789
v 0.02042412 -0.07315179 0.01393231
v 0.04402787 -0.06232784 0.01356695
v 0.04590788 -0.06111520 0.01399789
v 0.04666284 -0.06042654 0.01399789
v 0.06515947 -0.03954216 0.01331400
v 0.06648437 -0.03777560 0.01248020
v 0.06693586 -0.03701208 0.01248020
v 0.06683964 -0.03695220 0.01399789
v 0.06839398 -0.03400293 0.01096251
v 0.06979288 -0.03075425 0.00944482
v 0.07121399 -0.02743072 0.00577239
v 0.07280534 -0.02311910 0.00150974
v 0.07284975 -0.02325384 0.00035741
v 0.07313101 -0.02207114 0.00035741
v 0.07436708 -0.01729543 -0.00571335
v 0.07468535 -0.01600794 -0.00722167
v 0.07497401 -0.01448091 -0.00873936
v 0.07578079 -0.00928601 0.01292989
v 0.07609166 -0.00690564 0.01248020
v 0.07623969 -0.00539358 0.01248020
v 0.07611386 -0.00539358 0.01399789
v 0.07586220 -0.00539358 0.01520643
v 0.07259069 0.02350022 0.01410095
v 0.07182833 0.02490748 0.01551558
v 0.07216140 0.02490748 0.01399789
v 0.07137683 0.02600035 0.01551558
v 0.05761723 0.05001364 0.01338894
v 0.05627754 0.05172032 0.01399789
v 0.05549297 0.05248384 0.01399789
v 0.05473800 0.05312759 0.01399789
v 0.05460477 0.05302279 0.01503779
v 0.03083079 0.06990994 0.01399789
v 0.02950590 0.07046387 0.01399789
v 0.02964653 0.07005965 0.01564674
v 0.05314666 0.05457976 0.01248020
v 0.00085425 0.07636238 0.01247083
v 0.02496131 0.07214060 0.01096251
v 0.02425816 0.07267956 0.00881714
v 0.02792936 0.07092796 0.01394168
v 0.02753707 0.07125732 0.01248020
v 0.00085425 -0.07632561 0.00187511
v 0.01586473 -0.07482853 0.01248020
v 0.01720442 -0.07452910 0.01248020
v 0.01698237 -0.07448419 0.01399789
v 0.00085425 -0.07649029 0.00035741
v 0.01889939 -0.07402010 0.01248020
v 0.02040932 -0.07367576 0.01096251
v 0.01796678 -0.07431951 0.01248020
v 0.02040932 -0.07346617 0.01248020
v 0.02148995 -0.07300208 0.01248020
v 0.02126790 -0.07289728 0.01337958
v 0.04405007 -0.06234281 0.01248020
v 0.02271862 -0.07286734 0.01028798
v 0.02288146 -0.07294219 0.00944482
v 0.02385847 -0.07268769 0.00793650
v 0.02733723 -0.07138522 0.00458259
v 0.03070496 -0.07002287 0.00186574
v 0.03155615 -0.06970848 0.00035741
v 0.03371742 -0.06855572 -0.00116027
v 0.03452420 -0.06815151 -0.00267797
v 0.03670767 -0.06699875 -0.00571335
v 0.03747004 -0.06656460 -0.00571335
v 0.03958690 -0.06542681 -0.00873936
v 0.04221447 -0.06364528 -0.01177474
v 0.04404267 -0.06234281 -0.01329243
v 0.04845403 -0.05921390 0.01018493
v 0.04845403 -0.05921390 0.01024114
v 0.04840222 -0.05915401 0.01125294
v 0.05007499 -0.05779166 0.00944482
v 0.04829119 -0.05901927 0.01248020
v 0.06171032 -0.04505144 -0.00722167
v 0.06230245 -0.04431787 -0.00873936
v 0.04997136 -0.05770184 0.01025051
v 0.05154051 -0.05624966 0.00892956
v 0.05162932 -0.05633948 0.00793650
v 0.05313185 -0.05481246 0.00641881
v 0.05461957 -0.05327045 0.00490112
v 0.05619612 -0.05181828 0.00186574
v 0.05762463 -0.05021640 0.00035741
v 0.05766164 -0.05024634 -0.00116027
v 0.06399742 -0.04165305 -0.01025705
v 0.06521129 -0.03964696 -0.01177474
v 0.06848280 -0.03404785 0.00793650
v 0.06845319 -0.03409276 0.00944482
v 0.06570719 -0.03874870 -0.01329243
v 0.06987430 -0.03090396 0.00793650
v 0.07122880 -0.02747563 0.00490112
v 0.07282014 -0.02317899 -0.00116027
v 0.07316062 -0.02207114 -0.00116027
v 0.07156927 -0.02662229 0.00338343
v 0.07158407 -0.02662229 0.00186574
v 0.07434488 -0.01717567 -0.00722167
v 0.07461874 -0.01600794 -0.00873936
v 0.07488520 -0.01448091 -0.01025705
v 0.07577339 -0.00931595 -0.01423865
v 0.07637292 -0.00388152 0.01096251
v 0.07626190 -0.00388152 0.01248020
v 0.07279054 0.02306606 0.01366063
v 0.07173951 0.02641954 0.01096251
v 0.07167290 0.02641954 0.01248020
v 0.07145084 0.02647942 0.01385737
v 0.07119179 0.02719802 0.01325779
v 0.07107336 0.02700340 0.01426958
v 0.06846059 0.03372533 0.00641881
v 0.06663980 0.03779740 -0.00040143
v 0.06537412 0.03966877 -0.00116027
v 0.06233206 0.04418997 -0.00571335
v 0.06181394 0.04496846 -0.00722167
v 0.06103678 0.04600145 -0.00873936
v 0.06044465 0.04676496 -0.00873936
v 0.06984469 0.03046168 0.01069083
v 0.06994832 0.03070121 0.00944482
v 0.05334650 0.05483427 0.00944482
v 0.05481942 0.05326232 0.01248020
v 0.05908275 0.04842673 -0.01077231
v 0.05908275 0.04842673 -0.01119389
v 0.05763944 0.05002861 -0.01329243
v 0.05332429 0.05474444 0.01096251
v 0.04601150 0.06091244 0.00338343
v 0.03163016 0.06953567 0.01248020
v 0.03086780 0.06990994 0.01248020
v 0.02950590 0.07049381 0.01248020
v 0.05174035 0.05616667 0.00944482
v 0.05066712 0.05715475 0.00808640
v 0.05011940 0.05760388 0.00768355
v 0.04845403 0.05902611 0.00566933
v 0.02761109 0.07130223 0.01096251
v 0.02647864 0.07179627 0.00944482
v 0.02829204 0.07098785 0.01248020
v 0.01823324 0.07419161 0.00423596
v 0.01586473 0.07479045 0.00186574
v 0.01434740 0.07511981 0.00035741
v 0.01068360 0.07571864 -0.00449545
v 0.00828547 0.07603302 -0.00722167
v 0.00676814 0.07618274 -0.00873936
v 0.00525081 0.07624263 -0.00873936
v 0.00085425 0.07630252 -0.01329243
v 0.02425816 0.07267956 0.00828313
v 0.01914364 0.07404190 0.00186574
v 0.01738206 0.07450600 0.00035741
v 0.01738206 0.07449103 0.00186574
v 0.01833687 0.07422156 0.00338343
v 0.01434740 -0.07502314 -0.01329243
v 0.01804080 -0.07434946 0.01096251
v 0.00085425 -0.07655018 -0.00101038
v 0.00222355 -0.07644538 -0.00116027
v 0.00374088 -0.07637053 -0.00267797
v 0.00525081 -0.07628070 -0.00419566
v 0.00676814 -0.07617591 -0.00571335
v 0.00828547 -0.07605614 -0.00722167
v 0.00936611 -0.07593636 -0.00873936
v 0.01132013 -0.07559204 -0.01025705
v 0.01889939 -0.07413986 0.01096251
v 0.02192665 -0.07330149 0.00944482
v 0.02040932 -0.07378056 0.00944482
v 0.02197106 -0.07309190 0.01085946
v 0.02309610 -0.07301705 0.00793650
v 0.02739644 -0.07140019 0.00338343
v 0.02950590 -0.07054685 0.00186574
v 0.03080118 -0.07003784 0.00035741
v 0.03072717 -0.07002287 -0.00116027
v 0.03148213 -0.06967854 -0.00116027
v 0.03254056 -0.06918450 -0.00116027
v 0.03742563 -0.06659454 -0.00722167
v 0.03860248 -0.06596576 -0.00873936
v 0.03953509 -0.06538190 -0.01025705
v 0.04029745 -0.06491780 -0.01025705
v 0.04400566 -0.06231287 -0.01480075
v 0.04145211 -0.06410937 -0.01177474
v 0.04480503 -0.06172900 -0.01329243
v 0.05015641 -0.05785154 0.00793650
v 0.05091877 -0.05710300 0.00793650
v 0.06094796 -0.04602455 -0.00722167
v 0.06030402 -0.04678807 -0.00722167
v 0.06164370 -0.04506642 -0.00873936
v 0.06220623 -0.04418313 -0.01025705
v 0.06343490 -0.04234171 -0.01177474
v 0.06399002 -0.04159317 -0.01177474
v 0.05898653 -0.04852469 -0.00419566
v 0.05171074 -0.05639937 0.00641881
v 0.05246571 -0.05557597 0.00641881
v 0.05471580 -0.05336028 0.00338343
v 0.05551517 -0.05258180 0.00186574
v 0.05624793 -0.05184823 0.00035741
v 0.05700289 -0.05097991 0.00035741
v 0.05763203 -0.05020142 -0.00267797
v 0.06474499 -0.04041047 -0.01177474
v 0.06520388 -0.03961701 -0.01329243
v 0.06986690 -0.03081414 0.00490112
v 0.06986690 -0.03088899 0.00641881
v 0.06515207 -0.03954216 -0.01430422
v 0.06548514 -0.03885350 -0.01481012
v 0.06643255 -0.03708694 -0.01318938
v 0.07123620 -0.02749060 0.00186574
v 0.07123620 -0.02749060 0.00338343
v 0.07277573 -0.02304425 -0.00267797
v 0.07308660 -0.02207114 -0.00267797
v 0.07148785 -0.02671212 0.00038552
v 0.07122140 -0.02743072 0.00091015
v 0.07430787 -0.01701099 -0.00873936
v 0.07426346 -0.01687625 -0.00968557
v 0.07444110 -0.01605285 -0.01021958
v 0.07445590 -0.01295388 -0.01472581
v 0.07454472 -0.01150170 -0.01633718
v 0.07437448 -0.01102263 -0.01739582
v 0.07498882 -0.00994473 -0.01631844
v 0.07561796 -0.00841770 -0.01521296
v 0.07581039 -0.00841770 -0.01445412
v 0.07643213 -0.00235449 0.00944482
v 0.07435228 -0.01557378 -0.01147495
v 0.07479637 -0.01296885 -0.01329243
v 0.07635071 -0.00235449 0.01096251
v 0.07635071 0.00369374 0.00490112
v 0.07626190 0.00520580 0.00338343
v 0.07581780 0.00947250 -0.00116027
v 0.07574379 0.01056537 -0.00321197
v 0.07475196 0.01582015 -0.00571335
v 0.07422645 0.01811070 -0.00905789
v 0.07422645 0.01811070 -0.00994789
v 0.07310881 0.02188336 -0.01329243
v 0.07280534 0.02287144 -0.01329243
v 0.07636551 -0.00084244 0.00944482
v 0.07636551 0.00065465 0.00793650
v 0.07133242 0.02755732 0.00944482
v 0.07132502 0.02749744 0.01096251
v 0.07125100 0.02731779 0.01248020
v 0.06849020 0.03387504 0.00490112
v 0.06223583 0.04411512 -0.00873936
v 0.06230985 0.04420494 -0.00722167
v 0.06359033 0.04233358 -0.00419566
v 0.06997052 0.03083595 0.00793650
v 0.06996312 0.03083595 0.00641881
v 0.07279054 0.02285647 -0.01454780
v 0.06179174 0.04486366 -0.00873936
v 0.06094796 0.04592659 -0.01025705
v 0.05692888 0.05079213 -0.01329243
v 0.05259894 0.05556784 0.00793650
v 0.05184397 0.05630141 0.00793650
v 0.05250271 0.05559778 0.00944482
v 0.05758762 0.04998370 -0.01440728
v 0.05615911 0.05154067 -0.01429486
v 0.04608552 0.06101724 0.00186574
v 0.03688531 0.06687085 -0.00873936
v 0.03383585 0.06839788 -0.01177474
v 0.04493086 0.06178076 0.00186574
v 0.04431653 0.06231971 0.00035741
v 0.04246613 0.06362218 -0.00267797
v 0.03976454 0.06531388 -0.00571335
v 0.03972753 0.06534383 -0.00722167
v 0.03078638 0.06985006 -0.01329243
v 0.02761849 0.07131721 0.00944482
v 0.02837345 0.07098785 0.01096251
v 0.05022302 0.05769371 0.00641881
v 0.04850585 0.05905606 0.00490112
v 0.02484288 0.07244002 0.00784281
v 0.01586473 0.07488028 0.00035741
v 0.01434740 0.07514975 -0.00116027
v 0.01066139 0.07571864 -0.00571335
v 0.00841870 0.07591327 -0.00887052
v 0.00981021 0.07579349 -0.00709051
v 0.00374088 0.07615280 -0.01329243
v 0.00525081 0.07622765 -0.01025705
v 0.00676814 0.07606297 -0.01025705
v 0.00374088 0.07625759 -0.01177474
v 0.00222355 0.07627257 -0.01329243
v 0.00085425 0.07622765 -0.01480075
v 0.01833687 0.07423653 0.00035741
v 0.01824805 0.07422156 -0.00063564
v 0.01586473 0.07483536 -0.00116027
v 0.01283006 -0.07520280 -0.01329243
v 0.01434740 -0.07488841 -0.01480075
v 0.01584992 -0.07458899 -0.01470707
v 0.01667150 -0.07439437 -0.01412622
v 0.02192665 -0.07337635 0.00793650
v 0.00928469 -0.07592140 -0.00971368
v 0.00085425 -0.07655018 -0.00116027
v 0.00222355 -0.07649029 -0.00267797
v 0.00374088 -0.07638550 -0.00419566
v 0.00676814 -0.07617591 -0.00722167
v 0.00828547 -0.07604117 -0.00873936
v 0.02386587 -0.07274757 0.00641881
v 0.02647864 -0.07174452 0.00338343
v 0.02738164 -0.07138522 0.00186574
v 0.02813660 -0.07110077 0.00186574
v 0.02950590 -0.07056182 0.00035741
v 0.02950590 -0.07047200 -0.00116027
v 0.03129709 -0.06963363 -0.00267797
v 0.03353238 -0.06840602 -0.00571335
v 0.03726279 -0.06656460 -0.00873936
v 0.03667066 -0.06693887 -0.00722167
v 0.03860248 -0.06583103 -0.01025705
v 0.03942406 -0.06530705 -0.01117516
v 0.04208124 -0.06360036 -0.01329243
v 0.04391684 -0.06225298 -0.01558770
v 0.04556740 -0.06090560 -0.01426675
v 0.04565622 -0.06096549 -0.01329243
v 0.05171074 -0.05638440 0.00490112
v 0.05959346 -0.04771626 -0.00571335
v 0.05892731 -0.04846481 -0.00571335
v 0.05954165 -0.04758152 -0.00722167
v 0.06088134 -0.04588981 -0.00873936
v 0.06324986 -0.04217703 -0.01329243
v 0.06391600 -0.04142849 -0.01329243
v 0.06467837 -0.04038053 -0.01329243
v 0.05323547 -0.05490228 0.00338343
v 0.05475281 -0.05339022 0.00186574
v 0.05399784 -0.05412380 0.00338343
v 0.05321327 -0.05488731 0.00490112
v 0.05546336 -0.05261174 0.00035741
v 0.05618132 -0.05177337 -0.00116027
v 0.05758022 -0.05014154 -0.00369913
v 0.06508546 -0.03943736 -0.01531602
v 0.06533712 -0.03843431 -0.01581255
v 0.07439669 -0.01415155 -0.01329243
v 0.07273873 -0.02290951 -0.00362418
v 0.06971147 -0.01379225 -0.02480627
v 0.06983729 -0.01296885 -0.02499364
v 0.07002974 -0.01145679 -0.02504985
v 0.07130282 -0.00952555 -0.02326984
v 0.07445590 -0.00994473 -0.01742392
v 0.07579559 -0.00736974 -0.01439791
v 0.07284975 -0.00690564 -0.02039372
v 0.06863824 0.01733221 -0.02519974
v 0.07256109 0.02035633 -0.01668381
v 0.07641732 0.00369374 0.00338343
v 0.07646914 0.00216671 0.00490112
v 0.07646174 0.00065465 0.00641881
v 0.07644693 -0.00084244 0.00793650
v 0.07627670 0.00520580 0.00186574
v 0.07574379 0.01056537 -0.00350239
v 0.07475196 0.01582015 -0.00722167
v 0.07421165 0.01806579 -0.01095968
v 0.06215442 0.04398038 -0.00976052
v 0.07270172 0.02261693 -0.01555960
v 0.06077772 0.04570203 -0.01177474
v 0.05943063 0.04746859 -0.01329243
v 0.05751361 0.04989388 -0.01541907
v 0.05617391 0.05155564 -0.01329243
v 0.05177736 0.05631638 0.00641881
v 0.05097798 0.05706493 0.00641881
v 0.03303647 0.06796373 -0.01676813
v 0.03339915 0.06818829 -0.01576570
v 0.03656704 0.06676606 -0.01177474
v 0.03953509 0.06522406 -0.00873936
v 0.04048989 0.06474499 -0.00722167
v 0.04245132 0.06360720 -0.00379281
v 0.04429432 0.06234965 -0.00116027
v 0.04504929 0.06173584 -0.00116027
v 0.04603371 0.06104718 0.00035741
v 0.04850585 0.05907102 0.00186574
v 0.05021561 0.05772365 0.00490112
v 0.04507889 0.06181070 0.00035741
v 0.04855025 0.05910097 0.00338343
v 0.03679649 0.06687085 -0.01025705
v 0.03371742 0.06835297 -0.01329243
v 0.03755145 0.06636185 -0.01025705
v 0.03254056 0.06883204 -0.01480075
v 0.03062354 0.06982012 -0.01441665
v 0.04926821 0.05848716 0.00490112
v 0.01434740 0.07508987 -0.00267797
v 0.01057257 0.07568870 -0.00649093
v 0.00931430 0.07577853 -0.00844894
v 0.00901823 0.07568870 -0.00946073
v 0.00792279 0.07580848 -0.01025705
v 0.00222355 0.07616778 -0.01480075
v 0.00519900 0.07585338 -0.01320811
v 0.00368167 0.07586834 -0.01474454
v 0.00085425 0.07619770 -0.01496939
v 0.01746347 0.07440121 -0.00115091
v 0.01586473 0.07470063 -0.00267797
v 0.00828547 -0.07593636 -0.00976052
v 0.00980280 -0.07553216 -0.01177474
v 0.01283006 -0.07434946 -0.01700234
v 0.01434740 -0.07455905 -0.01608423
v 0.01533921 -0.07449917 -0.01577507
v 0.01283006 -0.07488841 -0.01480075
v 0.04313227 -0.06250749 -0.01618729
v 0.04071934 -0.06373510 -0.01548465
v 0.04108943 -0.06385487 -0.01447286
v 0.03915760 -0.06520225 -0.01218695
v 0.00085425 -0.07646035 -0.00267797
v 0.00374088 -0.07629567 -0.00571335
v 0.00222355 -0.07638550 -0.00419566
v 0.00525081 -0.07628070 -0.00571335
v 0.00525081 -0.07617591 -0.00722167
v 0.04132628 -0.06398961 -0.01329243
v 0.04314707 -0.06279194 -0.01480075
v 0.04262156 -0.06240269 -0.01729276
v 0.05769865 -0.04112907 -0.02508732
v 0.06392340 -0.03976672 -0.01740518
v 0.06409364 -0.04026076 -0.01618729
v 0.06362734 -0.04103925 -0.01559707
v 0.06375317 -0.04117398 -0.01480075
v 0.05470840 -0.05333034 0.00035741
v 0.05396084 -0.05413877 0.00186574
v 0.05320587 -0.05484240 0.00186574
v 0.06367175 -0.03653301 -0.02023446
v 0.06514467 -0.03497604 -0.01863245
v 0.06826075 -0.01380722 -0.02618343
v 0.06082213 -0.03820975 -0.02349468
v 0.05943063 -0.03874870 -0.02495616
v 0.07130282 -0.00901654 -0.02326984
v 0.01401432 -0.00235449 -0.06902540
v 0.01408094 -0.00084244 -0.06903477
v 0.01408094 0.00065465 -0.06903477
v 0.06820154 0.01519138 -0.02618343
v 0.07274613 0.02161388 -0.01572823
v 0.07309400 0.02035633 -0.01480075
v 0.07479637 0.01429312 -0.00873936
v 0.06858642 0.01574530 -0.02550890
v 0.06844579 0.01855982 -0.02495616
v 0.07467055 0.01582015 -0.00873936
v 0.06970407 0.02281155 -0.02022509
v 0.05630714 0.04309710 -0.02509669
v 0.05607770 0.04393547 -0.02474069
v 0.05765424 0.04863632 -0.01727403
v 0.05785408 0.04893574 -0.01631844
v 0.05302823 0.05146582 -0.01864182
v 0.03336954 0.06666126 -0.01866993
v 0.03202985 0.06824818 -0.01719908
v 0.03253316 0.06845777 -0.01629034
v 0.03355458 0.06827811 -0.01480075
v 0.00149079 0.07570368 -0.01708666
v 0.00208292 0.07585338 -0.01626223
v 0.00314135 0.07574859 -0.01571886
v 0.00085425 0.07588332 -0.01627160
v 0.00145378 0.07570368 -0.01708666
v 0.00671633 -0.07601123 -0.00885178
v 0.00718263 -0.07590642 -0.00963873
v 0.00828547 -0.07577169 -0.01051937
v 0.00828547 -0.07547227 -0.01177474
v 0.00980280 -0.07515788 -0.01329243
v 0.00980280 -0.07023246 -0.02520911
v 0.01499134 -0.07126545 -0.02160225
v 0.01132013 -0.07451414 -0.01606550
v 0.01132013 -0.07427460 -0.01682434
v 0.00828547 -0.07014264 -0.02532153
v 0.03664846 -0.06087566 -0.02506859
v 0.00085425 -0.07625076 -0.00419566
v 0.00222355 -0.07619087 -0.00571335
v 0.00361506 -0.07604117 -0.00736219
v 0.00525081 -0.07598129 -0.00847704
v 0.03943887 -0.05930372 -0.02473132
v 0.04096360 -0.05928875 -0.02322300
v 0.04244392 -0.05924384 -0.02167720
v 0.05612951 -0.04102428 -0.02616469
v 0.05697329 -0.04026076 -0.02607101
v 0.05824637 -0.04018591 -0.02527469
v 0.05917897 -0.03963199 -0.02480627
v 0.01371826 -0.00494446 -0.06879119
v 0.01388109 -0.00388152 -0.06895045
v 0.01223053 -0.00793863 -0.06879119
v 0.01283006 -0.00388152 -0.06938141
v 0.01283006 -0.00235449 -0.06946572
v 0.01283006 -0.00084244 -0.06946572
v 0.01283006 0.00216671 -0.06945635
v 0.01402913 0.00216671 -0.06902540
v 0.01390330 0.00369374 -0.06895982
v 0.01373306 0.00481656 -0.06880055
v 0.05606289 0.04133053 -0.02618343
v 0.01092045 0.00939765 -0.06889424
v 0.05518950 0.04451933 -0.02495616
v 0.05463438 0.04547747 -0.02473132
v 0.05460477 0.04698953 -0.02323237
v 0.05451596 0.04841176 -0.02162099
v 0.03379144 0.06239456 -0.02504985
v 0.03202245 0.06372697 -0.02481564
v 0.00468829 0.07118247 -0.02472195
v 0.00374088 0.07124235 -0.02477816
v 0.00085425 0.07270950 -0.02167720
v 0.00284529 0.07124235 -0.02475943
v 0.00085425 0.07266459 -0.02175215
v 0.00671633 -0.07574175 -0.01019147
v 0.00403695 -0.07593636 -0.00820536
v 0.00676814 -0.07533753 -0.01177474
v 0.00828547 -0.07503812 -0.01329243
v 0.01132013 -0.07005281 -0.02490932
v 0.00085425 -0.01419646 -0.06903477
v 0.00222355 -0.01415155 -0.06902540
v 0.00374088 -0.01400184 -0.06892235
v 0.00980280 -0.07442431 -0.01574697
v 0.00904044 -0.07436442 -0.01556897
v 0.00674594 -0.07472373 -0.01335801
v 0.00525081 -0.07500817 -0.01177474
v 0.00735287 -0.06996299 -0.02511543
v 0.00603538 -0.06828625 -0.02616469
v 0.00704941 -0.06866052 -0.02618343
v 0.03712956 -0.06005226 -0.02536838
v 0.00479191 -0.01383716 -0.06876308
v 0.00676814 -0.01262452 -0.06895982
v 0.00775996 -0.01237001 -0.06880055
v 0.00085425 -0.07601123 -0.00562903
v 0.00135756 -0.07592140 -0.00655651
v 0.00222355 -0.07598129 -0.00689377
v 0.00302293 -0.07587648 -0.00796178
v 0.00939571 -0.01100766 -0.06887550
v 0.01090564 -0.00954052 -0.06887550
v 0.01248959 -0.00690564 -0.06895982
v 0.01137195 -0.00843267 -0.06905351
v 0.01132013 -0.00690564 -0.06938141
v 0.01132013 -0.00388152 -0.06946572
v 0.00222355 0.01278107 -0.06947509
v 0.00980280 -0.00841770 -0.06945635
v 0.01132013 0.00520580 -0.06946572
v 0.01132013 0.00671786 -0.06941888
v 0.01283006 0.00369374 -0.06940014
v 0.01254140 0.00671786 -0.06897856
v 0.01227494 0.00778079 -0.06882866
v 0.01137935 0.00827483 -0.06908161
v 0.00989903 0.00984677 -0.06911909
v 0.00945493 0.01086479 -0.06889424
v 0.03454640 0.06046332 -0.02615533
v 0.00784878 0.01224211 -0.06884740
v 0.00496215 0.01370926 -0.06882866
v 0.00374088 0.01388891 -0.06897856
v 0.00605019 0.06964047 -0.02617406
v 0.00598357 0.06964047 -0.02617406
v 0.00126134 0.07140703 -0.02332605
v 0.00085425 0.07179627 -0.02262342
v 0.00085425 0.01408353 -0.06903477
v 0.00525081 -0.07581660 -0.00923589
v 0.00525081 -0.07554712 -0.01025705
v 0.00085425 -0.01296885 -0.06945635
v 0.00222355 -0.01296885 -0.06944699
v 0.00448104 -0.06680413 -0.02617406
v 0.00142418 -0.06379499 -0.02618343
v 0.00085425 -0.06351054 -0.02574311
v 0.00374088 -0.01296885 -0.06935330
v 0.00222355 -0.07575672 -0.00765262
v 0.00222355 -0.07530759 -0.00873936
v 0.00385191 -0.07457402 -0.01170916
v 0.00226056 -0.07466385 -0.01025705
v 0.00085425 -0.07485846 -0.00865504
v 0.00085425 -0.07464887 -0.00912347
v 0.00085425 -0.07440934 -0.00961063
v 0.00085425 -0.07400512 -0.01033200
v 0.00085425 -0.07316676 -0.01165295
v 0.00676814 -0.01145679 -0.06939077
v 0.00827067 -0.01148673 -0.06905351
v 0.00085425 -0.07583157 -0.00631293
v 0.00085425 -0.07553216 -0.00711861
v 0.00986202 -0.01000461 -0.06910972
v 0.00828547 -0.00994473 -0.06945635
v 0.00374088 -0.01145679 -0.06946572
v 0.00085425 0.01263136 -0.06946572
v 0.00085425 0.01278107 -0.06946572
v 0.00085425 0.01396377 -0.06908161
v 0.00222355 0.01402365 -0.06903477
v 0.00374088 0.01278107 -0.06941888
v 0.00676814 0.01126901 -0.06942825
v 0.00828547 0.00975695 -0.06946572
v 0.00980280 0.00822992 -0.06946572
v 0.00832988 0.01132889 -0.06909098
v 0.00676814 0.01254153 -0.06899729
v 0.00525081 -0.01145679 -0.06945635
v 0.00085425 -0.07312184 -0.01171853
f 1 2 3
f 1 3 4
f 1 4 5
f 1 5 6
f 1 6 7
f 1 7 8
f 1 8 9
f 1 9 10
f 1 10 2
f 2 10 11
f 2 11 3
f 3 11 4
f 4 11 12
f 4 12 5
f 5 12 13
f 5 13 14
f 5 14 15
f 5 15 6
f 6 15 16
f 6 16 7
f 7 17 18
f 7 18 19
f 7 19 8
f 7 16 15
f 7 15 17
f 8 19 18
f 8 18 20
f 8 20 21
f 8 21 22
f 8 22 9
f 9 22 23
f 9 23 24
f 9 24 25
f 9 25 26
f 9 26 10
f 10 26 25
f 10 25 38
f 10 38 56
f 10 56 82
f 10 82 122
f 10 122 166
f 10 166 267
f 10 267 396
f 10 396 498
f 10 498 556
f 10 556 600
f 10 600 602
f 10 602 649
f 10 649 650
f 10 650 677
f 10 677 676
f 10 676 675
f 10 675 653
f 10 653 608
f 10 608 657
f 10 657 686
f 10 686 667
f 10 667 666
f 10 666 665
f 10 665 664
f 10 664 663
f 10 663 671
f 10 671 670
f 10 670 622
f 10 622 569
f 10 569 511
f 10 511 406
f 10 406 275
f 10 275 175
f 10 175 171
f 10 171 125
f 10 125 89
f 10 89 88
f 10 88 87
f 10 87 86
f 10 86 85
f 10 85 84
f 10 84 83
f 10 83 57
f 10 57 39
f 10 39 27
f 10 27 11
f 11 27 28
f 11 28 12
f 12 28 13
f 13 28 29
f 13 29 30
f 13 30 31
f 13 31 14
f 14 31 15
f 15 31 32
f 15 32 33
f 15 33 17
f 17 34 18
f 17 33 34
f 18 34 35
f 18 35 20
f 20 35 21
f 21 24 22
f 21 35 24
f 22 24 23
f 24 35 36
f 24 36 37
f 24 37 25
f 25 37 36
f 25 36 38
f 27 39 40
f 27 40 41
f 27 41 28
f 28 41 42
f 28 42 43
f 28 43 44
f 28 44 30
f 28 30 29
f 30 44 45
f 30 45 46
f 30 46 31
f 31 47 48
f 31 48 32
f 31 46 47
f 32 48 49
f 32 49 50
f 32 50 51
f 32 51 34
f 32 34 33
f 34 51 35
f 35 52 53
f 35 53 36
f 35 51 52
f 36 53 54
f 36 54 55
f 36 55 38
f 38 55 54
f 38 54 56
f 39 57 58
f 39 58 59
f 39 59 40
f 40 59 42
f 40 42 41
f 42 60 43
f 42 59 61
f 42 61 60
f 43 60 62
f 43 62 44
f 44 62 45
f 45 62 63
f 45 63 64
f 45 64 65
f 45 65 66
f 45 66 67
f 45 67 46
f 46 67 65
f 46 65 68
f 46 68 69
f 46 69 70
f 46 70 47
f 47 70 48
f 48 70 71
f 48 71 72
f 48 72 49
f 49 72 73
f 49 73 74
f 49 74 75
f 49 75 76
f 49 76 50
f 50 76 75
f 50 75 77
f 50 77 51
f 51 77 52
f 52 78 79
f 52 79 54
f 52 54 53
f 52 77 75
f 52 75 78
f 54 79 78
f 54 78 80
f 54 80 81
f 54 81 82
f 54 82 56
f 57 83 58
f 58 83 84
f 58 84 85
f 58 85 86
f 58 86 87
f 58 87 88
f 58 88 89
f 58 89 90
f 58 90 91
f 58 91 59
f 59 91 61
f 60 61 92
f 60 92 63
f 60 63 93
f 60 93 94
f 60 94 62
f 61 91 95
f 61 95 92
f 62 94 93
f 62 93 63
f 63 92 96
f 63 96 97
f 63 97 98
f 63 98 99
f 63 99 64
f 64 99 65
f 65 67 66
f 65 99 100
f 65 100 101
f 65 101 102
f 65 102 103
f 65 103 104
f 65 104 68
f 68 104 105
f 68 105 106
f 68 106 107
f 68 107 69
f 69 107 70
f 70 107 108
f 70 108 71
f 71 108 72
f 72 108 73
f 73 109 110
f 73 110 75
f 73 75 74
f 73 108 109
f 75 110 111
f 75 111 112
f 75 112 113
f 75 113 114
f 75 114 78
f 78 114 113
f 78 113 115
f 78 115 116
f 78 116 117
f 78 117 118
f 78 118 119
f 78 119 80
f 80 119 120
f 80 120 81
f 81 120 121
f 81 121 82
f 82 121 123
f 82 123 124
f 82 124 122
f 89 125 126
f 89 126 90
f 90 126 127
f 90 127 91
f 91 127 128
f 91 128 95
f 92 95 96
f 95 129 130
f 95 130 97
f 95 97 96
f 95 128 129
f 97 130 131
f 97 131 132
f 97 132 98
f 98 133 134
f 98 134 99
f 98 132 133
f 99 134 135
f 99 135 100
f 100 135 136
f 100 136 137
f 100 137 138
f 100 138 101
f 101 138 102
f 102 138 139
f 102 139 140
f 102 140 104
f 102 104 103
f 104 141 142
f 104 142 143
f 104 143 144
f 104 144 145
f 104 145 146
f 104 146 147
f 104 147 148
f 104 148 149
f 104 149 106
f 104 106 105
f 104 140 141
f 106 149 150
f 106 150 151
f 106 151 107
f 107 151 152
f 107 152 108
f 108 152 153
f 108 153 154
f 108 154 109
f 109 154 110
f 110 154 155
f 110 155 156
f 110 156 111
f 111 157 158
f 111 158 159
f 111 159 160
f 111 160 161
f 111 161 116
f 111 116 115
f 111 115 113
f 111 113 112
f 111 156 157
f 116 161 117
f 117 162 163
f 117 163 164
f 117 164 120
f 117 120 118
f 117 161 165
f 117 165 162
f 118 120 119
f 120 164 123
f 120 123 121
f 122 124 167
f 122 167 168
f 122 168 166
f 123 169 124
f 123 164 169
f 124 169 163
f 124 163 170
f 124 170 168
f 124 168 167
f 125 171 127
f 125 127 126
f 127 172 173
f 127 173 174
f 127 174 128
f 127 171 175
f 127 175 172
f 128 174 129
f 129 176 177
f 129 177 130
f 129 174 178
f 129 178 176
f 130 177 179
f 130 179 180
f 130 180 181
f 130 181 131
f 131 181 132
f 132 182 133
f 132 181 180
f 132 180 183
f 132 183 184
f 132 184 185
f 132 185 186
f 132 186 187
f 132 187 188
f 132 188 189
f 132 189 190
f 132 190 191
f 132 191 192
f 132 192 182
f 133 182 193
f 133 193 194
f 133 194 195
f 133 195 196
f 133 196 197
f 133 197 198
f 133 198 134
f 134 198 199
f 134 199 200
f 134 200 135
f 135 201 202
f 135 202 136
f 135 200 203
f 135 203 204
f 135 204 205
f 135 205 206
f 135 206 207
f 135 207 208
f 135 208 209
f 135 209 210
f 135 210 201
f 136 202 211
f 136 211 212
f 136 212 137
f 137 213 214
f 137 214 139
f 137 139 138
f 137 212 215
f 137 215 213
f 139 214 216
f 139 216 140
f 140 216 141
f 141 217 143
f 141 143 142
f 141 216 217
f 143 218 219
f 143 219 144
f 143 217 220
f 143 220 221
f 143 221 218
f 144 219 145
f 145 219 146
f 146 219 222
f 146 222 223
f 146 223 147
f 147 223 224
f 147 224 225
f 147 225 148
f 148 225 149
f 149 225 150
f 150 226 227
f 150 227 151
f 150 225 226
f 151 227 152
f 152 227 228
f 152 228 153
f 153 228 155
f 153 155 154
f 155 229 230
f 155 230 231
f 155 231 156
f 155 228 229
f 156 231 232
f 156 232 233
f 156 233 157
f 157 234 235
f 157 235 236
f 157 236 237
f 157 237 238
f 157 238 239
f 157 239 240
f 157 240 158
f 157 233 232
f 157 232 241
f 157 241 242
f 157 242 234
f 158 243 244
f 158 244 159
f 158 240 245
f 158 245 246
f 158 246 247
f 158 247 243
f 159 244 248
f 159 248 160
f 160 248 165
f 160 165 161
f 162 249 250
f 162 250 251
f 162 251 252
f 162 252 163
f 162 165 253
f 162 253 254
f 162 254 255
f 162 255 256
f 162 256 249
f 163 252 257
f 163 257 258
f 163 258 259
f 163 259 168
f 163 168 170
f 163 169 164
f 165 248 253
f 166 260 261
f 166 261 262
f 166 262 263
f 166 263 264
f 166 264 265
f 166 265 266
f 166 266 267
f 166 168 260
f 168 259 258
f 168 258 268
f 168 268 269
f 168 269 270
f 168 270 271
f 168 271 272
f 168 272 260
f 172 273 274
f 172 274 173
f 172 175 275
f 172 275 276
f 172 276 277
f 172 277 278
f 172 278 279
f 172 279 280
f 172 280 281
f 172 281 282
f 172 282 273
f 173 274 283
f 173 283 178
f 173 178 174
f 176 178 177
f 177 284 184
f 177 184 179
f 177 178 283
f 177 283 285
f 177 285 284
f 179 184 286
f 179 286 180
f 180 286 183
f 182 192 193
f 183 286 184
f 184 284 287
f 184 287 185
f 185 287 186
f 186 287 288
f 186 288 289
f 186 289 187
f 187 289 188
f 188 289 290
f 188 290 291
f 188 291 292
f 188 292 293
f 188 293 191
f 188 191 190
f 188 190 189
f 191 293 294
f 191 294 295
f 191 295 193
f 191 193 192
f 193 295 296
f 193 296 297
f 193 297 194
f 194 298 195
f 194 297 296
f 194 296 299
f 194 299 298
f 195 298 300
f 195 300 301
f 195 301 196
f 196 301 197
f 197 301 199
f 197 199 198
f 199 301 302
f 199 302 205
f 199 205 204
f 199 204 203
f 199 203 200
f 201 210 202
f 202 303 304
f 202 304 305
f 202 305 306
f 202 306 307
f 202 307 308
f 202 308 211
f 202 210 309
f 202 309 303
f 205 302 310
f 205 310 311
f 205 311 206
f 206 311 312
f 206 312 207
f 207 312 208
f 208 312 313
f 208 313 314
f 208 314 315
f 208 315 209
f 209 315 210
f 210 315 314
f 210 314 316
f 210 316 309
f 211 308 317
f 211 317 212
f 212 318 215
f 212 317 318
f 213 319 320
f 213 320 216
f 213 216 214
f 213 215 319
f 215 318 321
f 215 321 322
f 215 322 323
f 215 323 324
f 215 324 319
f 216 320 324
f 216 324 221
f 216 221 325
f 216 325 217
f 217 325 221
f 217 221 220
f 218 326 327
f 218 327 219
f 218 221 328
f 218 328 323
f 218 323 326
f 219 327 222
f 221 324 329
f 221 329 328
f 222 330 223
f 222 327 330
f 223 330 331
f 223 331 332
f 223 332 224
f 224 332 225
f 225 333 334
f 225 334 335
f 225 335 336
f 225 336 337
f 225 337 338
f 225 338 339
f 225 339 226
f 225 332 340
f 225 340 341
f 225 341 333
f 226 339 342
f 226 342 227
f 227 342 228
f 228 343 344
f 228 344 345
f 228 345 346
f 228 346 347
f 228 347 348
f 228 348 349
f 228 349 350
f 228 350 351
f 228 351 229
f 228 342 352
f 228 352 353
f 228 353 343
f 229 354 355
f 229 355 230
f 229 351 354
f 230 355 356
f 230 356 231
f 231 356 232
f 232 356 242
f 232 242 241
f 234 357 235
f 234 242 357
f 235 358 359
f 235 359 238
f 235 238 360
f 235 360 236
f 235 357 361
f 235 361 362
f 235 362 363
f 235 363 358
f 236 360 237
f 237 360 238
f 238 359 364
f 238 364 239
f 239 364 365
f 239 365 246
f 239 246 240
f 240 246 245
f 242 356 355
f 242 355 361
f 242 361 357
f 243 248 244
f 243 247 366
f 243 366 367
f 243 367 368
f 243 368 369
f 243 369 248
f 246 370 247
f 246 365 370
f 247 370 371
f 247 371 366
f 248 369 253
f 249 372 250
f 249 256 372
f 250 373 374
f 250 374 251
f 250 372 375
f 250 375 376
f 250 376 377
f 250 377 378
f 250 378 379
f 250 379 373
f 251 374 380
f 251 380 381
f 251 381 382
f 251 382 252
f 252 382 258
f 252 258 257
f 253 369 368
f 253 368 254
f 254 368 383
f 254 383 255
f 255 383 256
f 256 383 384
f 256 384 372
f 258 385 268
f 258 382 381
f 258 381 380
f 258 380 385
f 260 272 386
f 260 386 261
f 261 386 262
f 262 386 387
f 262 387 263
f 263 388 264
f 263 387 388
f 264 389 265
f 264 388 390
f 264 390 389
f 265 391 392
f 265 392 266
f 265 389 393
f 265 393 391
f 266 392 394
f 266 394 267
f 267 394 395
f 267 395 396
f 268 385 380
f 268 380 269
f 269 397 270
f 269 380 397
f 270 397 398
f 270 398 399
f 270 399 386
f 270 386 271
f 271 386 272
f 273 400 401
f 273 401 402
f 273 402 403
f 273 403 404
f 273 404 285
f 273 285 274
f 273 282 405
f 273 405 400
f 274 285 283
f 275 406 407
f 275 407 277
f 275 277 276
f 277 407 278
f 278 407 408
f 278 408 279
f 279 408 409
f 279 409 280
f 280 409 410
f 280 410 281
f 281 410 405
f 281 405 282
f 284 285 287
f 285 404 287
f 287 411 288
f 287 404 411
f 288 412 413
f 288 413 414
f 288 414 415
f 288 415 290
f 288 290 289
f 288 411 412
f 290 415 291
f 291 415 416
f 291 416 403
f 291 403 417
f 291 417 418
f 291 418 419
f 291 419 420
f 291 420 295
f 291 295 292
f 292 295 294
f 292 294 293
f 295 420 419
f 295 419 421
f 295 421 296
f 296 421 422
f 296 422 423
f 296 423 299
f 298 424 425
f 298 425 426
f 298 426 300
f 298 299 423
f 298 423 424
f 300 426 427
f 300 427 301
f 301 427 310
f 301 310 302
f 303 309 304
f 304 428 316
f 304 316 429
f 304 429 430
f 304 430 425
f 304 425 431
f 304 431 305
f 304 309 428
f 305 431 306
f 306 432 433
f 306 433 307
f 306 431 425
f 306 425 432
f 307 433 308
f 308 433 434
f 308 434 318
f 308 318 317
f 309 316 428
f 310 427 435
f 310 435 436
f 310 436 437
f 310 437 438
f 310 438 311
f 311 438 312
f 312 438 313
f 313 438 437
f 313 437 436
f 313 436 314
f 314 436 439
f 314 439 426
f 314 426 440
f 314 440 316
f 316 441 429
f 316 440 426
f 316 426 441
f 318 434 321
f 319 324 320
f 321 442 322
f 321 434 433
f 321 433 442
f 322 442 443
f 322 443 334
f 322 334 333
f 322 333 444
f 322 444 340
f 322 340 331
f 322 331 323
f 323 331 445
f 323 445 326
f 323 328 329
f 323 329 324
f 326 445 330
f 326 330 327
f 330 445 331
f 331 340 332
f 333 341 444
f 334 443 335
f 335 446 447
f 335 447 448
f 335 448 449
f 335 449 450
f 335 450 336
f 335 443 446
f 336 450 337
f 337 451 338
f 337 450 452
f 337 452 453
f 337 453 454
f 337 454 451
f 338 451 455
f 338 455 456
f 338 456 457
f 338 457 339
f 339 457 458
f 339 458 342
f 340 444 341
f 342 458 352
f 343 456 455
f 343 455 344
f 343 353 456
f 344 455 459
f 344 459 346
f 344 346 345
f 346 459 460
f 346 460 461
f 346 461 347
f 347 461 349
f 347 349 348
f 349 461 462
f 349 462 350
f 350 363 351
f 350 462 363
f 351 363 354
f 352 458 457
f 352 457 456
f 352 456 353
f 354 362 361
f 354 361 355
f 354 363 362
f 358 463 365
f 358 365 364
f 358 364 359
f 358 363 463
f 363 462 464
f 363 464 465
f 363 465 463
f 365 463 465
f 365 465 466
f 365 466 467
f 365 467 370
f 366 371 468
f 366 468 367
f 367 468 368
f 368 469 470
f 368 470 383
f 368 468 371
f 368 371 469
f 370 467 371
f 371 471 472
f 371 472 473
f 371 473 474
f 371 474 379
f 371 379 475
f 371 475 476
f 371 476 477
f 371 477 478
f 371 478 479
f 371 479 480
f 371 480 481
f 371 481 470
f 371 470 469
f 371 467 471
f 372 482 376
f 372 376 375
f 372 384 483
f 372 483 482
f 373 484 374
f 373 379 484
f 374 485 380
f 374 484 485
f 376 482 377
f 377 482 477
f 377 477 476
f 377 476 379
f 377 379 378
f 379 476 475
f 379 474 486
f 379 486 484
f 380 485 487
f 380 487 488
f 380 488 398
f 380 398 397
f 383 481 483
f 383 483 489
f 383 489 384
f 383 470 481
f 384 489 483
f 386 399 387
f 387 399 490
f 387 490 388
f 388 491 390
f 388 490 491
f 389 390 492
f 389 492 493
f 389 493 494
f 389 494 393
f 390 491 492
f 391 495 395
f 391 395 394
f 391 394 392
f 391 393 496
f 391 496 497
f 391 497 495
f 393 494 496
f 395 495 396
f 396 495 498
f 398 499 399
f 398 488 499
f 399 499 488
f 399 488 500
f 399 500 490
f 400 405 501
f 400 501 502
f 400 502 401
f 401 503 504
f 401 504 505
f 401 505 402
f 401 502 506
f 401 506 503
f 402 505 507
f 402 507 508
f 402 508 509
f 402 509 403
f 403 510 422
f 403 422 421
f 403 421 419
f 403 419 418
f 403 418 417
f 403 416 415
f 403 415 413
f 403 413 411
f 403 411 404
f 403 509 510
f 405 410 501
f 406 511 407
f 407 512 408
f 407 511 513
f 407 513 512
f 408 512 514
f 408 514 409
f 409 515 410
f 409 514 512
f 409 512 515
f 410 515 501
f 411 413 412
f 413 415 414
f 422 510 509
f 422 509 516
f 422 516 423
f 423 517 424
f 423 516 517
f 424 517 507
f 424 507 518
f 424 518 519
f 424 519 520
f 424 520 521
f 424 521 522
f 424 522 523
f 424 523 425
f 425 429 426
f 425 523 432
f 425 430 429
f 426 429 441
f 426 439 524
f 426 524 436
f 426 436 525
f 426 525 526
f 426 526 435
f 426 435 427
f 432 523 433
f 433 523 442
f 435 526 525
f 435 525 436
f 436 524 439
f 442 523 522
f 442 522 521
f 442 521 520
f 442 520 443
f 443 520 527
f 443 527 528
f 443 528 446
f 446 529 447
f 446 528 527
f 446 527 530
f 446 530 531
f 446 531 529
f 447 529 448
f 448 532 449
f 448 529 533
f 448 533 534
f 448 534 535
f 448 535 536
f 448 536 532
f 449 532 450
f 450 532 452
f 451 454 537
f 451 537 464
f 451 464 538
f 451 538 462
f 451 462 539
f 451 539 460
f 451 460 459
f 451 459 455
f 452 532 540
f 452 540 453
f 453 541 464
f 453 464 454
f 453 540 536
f 453 536 541
f 454 464 537
f 460 539 542
f 460 542 461
f 461 542 462
f 462 538 464
f 462 542 539
f 464 541 543
f 464 543 544
f 464 544 545
f 464 545 546
f 464 546 547
f 464 547 466
f 464 466 465
f 466 547 467
f 467 547 546
f 467 546 548
f 467 548 549
f 467 549 471
f 471 549 550
f 471 550 551
f 471 551 472
f 472 551 487
f 472 487 552
f 472 552 473
f 473 552 484
f 473 484 486
f 473 486 474
f 477 482 479
f 477 479 478
f 479 482 483
f 479 483 480
f 480 483 481
f 484 552 485
f 485 552 487
f 487 551 488
f 488 551 550
f 488 550 553
f 488 553 554
f 488 554 555
f 488 555 497
f 488 497 496
f 488 496 494
f 488 494 493
f 488 493 492
f 488 492 491
f 488 491 490
f 488 490 500
f 495 497 554
f 495 554 553
f 495 553 498
f 497 555 554
f 498 553 557
f 498 557 556
f 501 515 558
f 501 558 559
f 501 559 560
f 501 560 502
f 502 560 561
f 502 561 562
f 502 562 503
f 502 503 506
f 503 563 564
f 503 564 504
f 503 562 565
f 503 565 566
f 503 566 567
f 503 567 563
f 504 564 505
f 505 564 568
f 505 568 518
f 505 518 507
f 507 517 516
f 507 516 509
f 507 509 508
f 511 569 570
f 511 570 513
f 512 513 570
f 512 570 515
f 515 570 571
f 515 571 572
f 515 572 558
f 518 568 573
f 518 573 574
f 518 574 575
f 518 575 519
f 519 576 577
f 519 577 578
f 519 578 579
f 519 579 520
f 519 575 574
f 519 574 573
f 519 573 576
f 520 579 530
f 520 530 527
f 529 580 581
f 529 581 533
f 529 531 580
f 530 579 531
f 531 579 578
f 531 578 582
f 531 582 580
f 532 536 540
f 533 581 583
f 533 583 584
f 533 584 534
f 534 584 585
f 534 585 535
f 535 585 586
f 535 586 587
f 535 587 536
f 536 587 588
f 536 588 589
f 536 589 541
f 541 589 590
f 541 590 544
f 541 544 543
f 544 590 591
f 544 591 592
f 544 592 545
f 545 592 593
f 545 593 594
f 545 594 546
f 546 594 595
f 546 595 548
f 548 596 549
f 548 595 596
f 549 596 597
f 549 597 550
f 550 598 553
f 550 597 598
f 553 598 599
f 553 599 557
f 556 557 600
f 557 599 601
f 557 601 602
f 557 602 600
f 558 572 559
f 559 603 561
f 559 561 560
f 559 572 604
f 559 604 603
f 561 605 606
f 561 606 565
f 561 565 562
f 561 603 605
f 563 568 607
f 563 607 564
f 563 567 608
f 563 608 609
f 563 609 610
f 563 610 568
f 564 607 568
f 565 606 566
f 566 606 605
f 566 605 611
f 566 611 612
f 566 612 567
f 567 612 613
f 567 613 614
f 567 614 615
f 567 615 616
f 567 616 617
f 567 617 608
f 568 618 573
f 568 610 619
f 568 619 620
f 568 620 621
f 568 621 618
f 569 622 570
f 570 622 623
f 570 623 624
f 570 624 625
f 570 625 604
f 570 604 571
f 571 604 572
f 573 618 626
f 573 626 576
f 576 626 627
f 576 627 577
f 577 627 582
f 577 582 578
f 580 582 628
f 580 628 581
f 581 628 583
f 582 627 629
f 582 629 628
f 583 628 630
f 583 630 584
f 584 631 632
f 584 632 585
f 584 630 633
f 584 633 631
f 585 632 634
f 585 634 586
f 586 634 635
f 586 635 636
f 586 636 587
f 587 636 588
f 588 636 637
f 588 637 589
f 589 637 638
f 589 638 590
f 590 638 591
f 591 638 639
f 591 639 640
f 591 640 641
f 591 641 592
f 592 641 593
f 593 642 596
f 593 596 594
f 593 641 642
f 594 596 595
f 596 642 597
f 597 642 643
f 597 643 644
f 597 644 645
f 597 645 646
f 597 646 598
f 598 646 599
f 599 646 647
f 599 647 601
f 601 648 649
f 601 649 602
f 601 647 650
f 601 650 648
f 603 651 605
f 603 604 651
f 604 625 651
f 605 651 625
f 605 625 652
f 605 652 614
f 605 614 613
f 605 613 612
f 605 612 611
f 608 653 654
f 608 654 609
f 608 617 616
f 608 616 655
f 608 655 656
f 608 656 657
f 609 654 658
f 609 658 610
f 610 658 620
f 610 620 619
f 614 652 625
f 614 625 659
f 614 659 660
f 614 660 661
f 614 661 615
f 615 661 660
f 615 660 662
f 615 662 663
f 615 663 664
f 615 664 665
f 615 665 666
f 615 666 616
f 616 666 667
f 616 667 655
f 618 621 626
f 620 668 669
f 620 669 621
f 620 658 668
f 621 669 626
f 622 670 623
f 623 670 671
f 623 671 659
f 623 659 625
f 623 625 624
f 626 669 672
f 626 672 627
f 627 672 629
f 628 629 630
f 629 672 633
f 629 633 630
f 631 633 673
f 631 673 674
f 631 674 632
f 632 675 676
f 632 676 677
f 632 677 678
f 632 678 679
f 632 679 680
f 632 680 681
f 632 681 682
f 632 682 634
f 632 674 653
f 632 653 675
f 633 672 673
f 634 682 635
f 635 682 640
f 635 640 639
f 635 639 637
f 635 637 636
f 637 639 638
f 640 682 681
f 640 681 680
f 640 680 683
f 640 683 641
f 641 683 643
f 641 643 642
f 643 683 684
f 643 684 644
f 644 684 645
f 645 684 679
f 645 679 678
f 645 678 646
f 646 678 650
f 646 650 647
f 648 650 649
f 650 678 677
f 653 674 685
f 653 685 654
f 654 685 668
f 654 668 658
f 655 667 656
f 656 667 686
f 656 686 657
f 659 671 660
f 660 671 662
f 662 671 663
f 668 685 673
f 668 673 672
f 668 672 669
f 673 685 674
f 679 684 680
f 680 684 683

