# https://github.com/mikedh/trimesh
v -0.00687925 -0.05542030 0.02622269
v -0.05386408 -0.03874133 0.02621332
v -0.03416639 -0.05844739 0.02620396
v -0.00687925 -0.06603010 0.02620396
v 0.00069504 -0.05996093 0.02620396
v 0.00085425 -0.05981108 0.02620396
v 0.00085425 -0.04481050 0.02621332
v -0.00081376 0.04462352 0.02621332
v -0.00687925 0.06735667 0.02621332
v -0.03416639 0.05219124 0.02621332
v -0.06599506 0.01429268 0.02621332
v -0.06447869 -0.01449465 0.02620396
v -0.06599506 -0.01449465 0.02618522
v -0.05538045 -0.04025488 0.02615711
v -0.05386408 -0.04025488 0.02619459
v -0.03568276 -0.05996093 0.02596975
v -0.00839562 -0.06905719 0.02604470
v -0.00839562 -0.06754364 0.02611964
v -0.00687925 -0.06754364 0.02613838
v -0.05689682 -0.04025488 0.02605406
v -0.00536288 -0.06603010 0.02615711
v -0.00233013 -0.06300301 0.02618522
v 0.00074811 -0.06153442 0.02584796
v 0.00085425 -0.06142952 0.02584796
v 0.00085425 0.05219124 0.02620396
v -0.00536288 0.06887021 0.02599786
v -0.00687925 0.06887021 0.02606343
v -0.03416639 0.05977395 0.02615711
v -0.03416639 0.05826041 0.02620396
v -0.05386408 0.03855436 0.02620396
v -0.05538045 0.04006790 0.02616648
v -0.05538045 0.04158144 0.02612901
v -0.06751144 0.01582121 0.02608217
v -0.06751144 -0.01296612 0.02610091
v -0.03723704 -0.05997592 0.02567934
v -0.03675180 -0.06089004 0.02555755
v -0.00991200 -0.07010618 0.02561376
v -0.00839562 -0.07013615 0.02566997
v -0.00745547 -0.06998630 0.02553881
v -0.00691716 -0.06902722 0.02575428
v -0.00538562 -0.06752866 0.02578239
v -0.00079101 -0.06303298 0.02583860
v -0.05838287 -0.04016496 0.02564186
v -0.05785214 -0.04115402 0.02555755
v -0.06902781 -0.01296612 0.02590417
v 0.00085425 -0.06148946 0.02582923
v 0.00085425 0.05234110 0.02619459
v -0.00312622 0.06946963 0.02535145
v -0.00413461 0.07008404 0.02550134
v -0.00536288 0.07027886 0.02566997
v -0.00687925 0.07002410 0.02564186
v -0.03416639 0.06128750 0.02589481
v -0.05538045 0.04309499 0.02579175
v -0.05641916 0.04309499 0.02558565
v -0.05661630 0.04158144 0.02577302
v -0.06877761 0.01582121 0.02573555
v -0.03985279 -0.05946641 0.02421791
v -0.04298410 -0.06247852 0.01670467
v -0.01521930 -0.07436209 0.01627373
v -0.01551500 -0.07146987 0.02105148
v -0.01088248 -0.06995633 0.02546387
v -0.01446112 -0.07446699 0.01648920
v -0.01294474 -0.07451195 0.01661099
v -0.01187570 -0.07443702 0.01643299
v -0.00991200 -0.07455690 0.01515892
v -0.00839562 -0.07527621 0.01247964
v -0.00687925 -0.07551598 0.01096200
v -0.00536288 -0.07514134 0.01096200
v -0.00384650 -0.07533615 0.00945373
v -0.00242111 -0.07556094 0.00783305
v -0.00079101 -0.07563587 0.00639972
v -0.00026786 -0.07583068 0.00550975
v 0.00084667 -0.07493154 0.00656835
v 0.00043725 -0.07461685 0.00766442
v 0.00085425 -0.07451195 0.00745832
v 0.00085425 -0.07416728 0.00807662
v 0.00085425 -0.07329811 0.00936942
v -0.00281537 -0.06553558 0.02559502
v 0.00027045 -0.06255344 0.02562313
v -0.05923962 -0.03959551 0.02542640
v -0.06415267 -0.03991021 0.01703255
v -0.04418204 -0.06232866 0.01521513
v -0.04276422 -0.05931656 0.02110769
v -0.04133125 -0.05939148 0.02269090
v -0.06994522 -0.01296612 0.02553881
v -0.06984666 -0.01382029 0.02546387
v 0.00085425 -0.06219379 0.02498610
v 0.00085425 0.05370479 0.02599786
v -0.00167809 0.07077338 0.02375888
v -0.00224673 0.07032381 0.02436780
v -0.00269406 0.07137281 0.02418980
v -0.00371761 0.07050364 0.02518283
v -0.00384650 0.07134284 0.02438654
v -0.00535530 0.07099816 0.02468632
v -0.03037545 0.06659240 0.02081728
v -0.03077729 0.06536358 0.02262532
v -0.03223301 0.06388001 0.02427412
v -0.03416639 0.06226156 0.02552945
v -0.03493974 0.06206675 0.02538892
v -0.05617655 0.04390421 0.02539829
v -0.06980874 0.02269960 0.02086412
v -0.06838336 0.01821890 0.02543576
v -0.06858806 0.01733475 0.02556692
v -0.07284907 0.02148577 0.01635805
v -0.06933108 0.01582121 0.02461137
v -0.07596522 -0.00842548 0.01509335
v -0.07289456 -0.00743643 0.02094844
v -0.06993005 -0.01145257 0.02549197
v -0.04339352 -0.06265834 0.01563670
v -0.01675842 -0.07439206 0.01478420
v -0.01582585 -0.07449696 0.01537439
v -0.01446112 -0.07476670 0.01551491
v -0.01294474 -0.07484163 0.01551491
v -0.00991200 -0.07499148 0.01399728
v -0.00991200 -0.07541108 0.01247964
v -0.00839562 -0.07568082 0.01096200
v -0.00384650 -0.07575575 0.00828271
v -0.00687925 -0.07581569 0.00977225
v -0.00487764 -0.07586065 0.00857313
v -0.00298217 -0.07590561 0.00726159
v -0.00196620 -0.07578572 0.00689623
v -0.00127625 -0.07595057 0.00588447
v 0.00028561 -0.07599553 0.00449799
v 0.00085425 -0.07590561 0.00419821
v 0.00075569 -0.07565085 0.00495703
v 0.00085425 -0.07557592 0.00503197
v 0.00085425 -0.07491656 0.00656835
v -0.06084698 -0.03815689 0.02403054
v -0.06374325 -0.03649350 0.02084539
v -0.06383423 -0.03961050 0.01788505
v -0.06560839 -0.03874133 0.01535565
v -0.06529753 -0.03958053 0.01507461
v -0.06453176 -0.04026987 0.01558986
v -0.04506911 -0.06169926 0.01399728
v -0.04431093 -0.06243356 0.01399728
v -0.04163453 -0.06409696 0.01247964
v -0.06387215 -0.04118399 0.01510272
v -0.06219655 -0.04404624 0.01170208
v -0.06232544 -0.04418110 0.01069033
v -0.07289456 -0.00782606 0.02094844
v -0.07437303 -0.01079320 0.01785695
v 0.00085425 0.07189730 0.02114516
v 0.00057373 0.07189730 0.02139810
v 0.00030078 0.07288635 0.02113579
v -0.00132174 0.07582353 0.01645173
v -0.00195862 0.07582353 0.01645173
v -0.03190699 0.06963448 0.01478420
v -0.03238465 0.06843563 0.01659225
v -0.03339304 0.06810594 0.01624563
v -0.05623720 0.05150191 0.01483104
v -0.05769292 0.04845983 0.01782885
v -0.05471324 0.04857972 0.02104211
v -0.05484214 0.04723101 0.02269090
v -0.07272776 0.02250479 0.01622689
v -0.07302346 0.02195032 0.01563670
v -0.07594247 -0.00749637 0.01491535
v -0.07607137 -0.00695689 0.01398791
v -0.07611686 -0.00842548 0.01399728
v -0.07591214 -0.00939954 0.01504651
v -0.03946611 -0.06526584 0.01173019
v -0.04136158 -0.06393212 0.01399728
v -0.01689490 -0.07445200 0.01399728
v -0.01597749 -0.07479667 0.01399728
v -0.03960259 -0.06534076 0.01096200
v -0.01446112 -0.07509639 0.01399728
v -0.01294474 -0.07514134 0.01399728
v -0.00991200 -0.07571080 0.01096200
v -0.00839562 -0.07599553 0.00927574
v -0.00588603 -0.07590561 0.00879796
v -0.00537804 -0.07599553 0.00801104
v -0.00384650 -0.07595057 0.00752389
v -0.00242111 -0.07601051 0.00639972
v -0.00079101 -0.07607045 0.00495703
v -0.00081376 -0.07634019 0.00338318
v 0.00085425 -0.07610043 0.00338318
v 0.00085425 -0.07568082 0.00477903
v -0.06606330 -0.03874133 0.01399728
v -0.07557096 -0.00992404 0.01553365
v -0.06539610 -0.03970041 0.01399728
v -0.06365985 -0.04245776 0.01138357
v -0.06354612 -0.04233788 0.01247964
v -0.06402378 -0.04136382 0.01399728
v -0.04593344 -0.06109984 0.01247964
v -0.06244675 -0.04433096 0.00945373
v -0.04506911 -0.06186411 0.01247964
v -0.04431093 -0.06246353 0.01247964
v -0.04248370 -0.06373730 0.01096200
v -0.04055790 -0.06501108 0.00945373
v -0.04172551 -0.06420186 0.01096200
v -0.03979972 -0.06546065 0.00945373
v -0.04036077 -0.06496612 0.01096200
v 0.00085425 0.07318606 0.02010530
v 0.00085425 0.07321603 0.02005846
v 0.00028561 0.07594341 0.01509335
v -0.00082134 0.07607827 0.01556175
v -0.00081376 0.07648290 0.01399728
v -0.00240595 0.07600335 0.01558986
v -0.00233013 0.07636300 0.01399728
v -0.00694749 0.07595839 0.01103695
v -0.00844870 0.07591343 0.00946310
v -0.00935852 0.07576359 0.00897596
v -0.00964663 0.07582353 0.00793609
v -0.01079149 0.07571863 0.00601563
v -0.01597749 0.07487943 0.00035727
v -0.01749386 0.07453477 -0.00116036
v -0.01857049 0.07428001 -0.00267800
v -0.02352145 0.07285638 -0.00722155
v -0.02427963 0.07261661 -0.00722155
v -0.03190699 0.06963448 0.01455937
v -0.03498523 0.06815090 0.00945373
v -0.03497007 0.06813592 0.01096200
v -0.03493974 0.06812093 0.01179576
v -0.03484876 0.06806099 0.01280752
v -0.03389344 0.06843563 0.01399728
v -0.03362049 0.06828577 0.01523387
v -0.05638884 0.05163678 0.01399728
v -0.05714702 0.05088750 0.01399728
v -0.05770050 0.04998836 0.01496220
v -0.05787488 0.04874456 0.01703255
v -0.07293247 0.02293937 0.01521513
v -0.07334189 0.02187539 0.01399728
v -0.07430479 0.01790421 0.01163651
v -0.07619268 -0.00691193 0.01247964
v -0.07482794 0.01582121 0.00945373
v -0.07511605 0.01429268 0.00793609
v -0.07588182 0.01078605 0.00296161
v -0.07615476 -0.00842548 0.01247964
v -0.07599555 -0.00993903 0.01096200
v -0.07587424 -0.01085315 0.01096200
v -0.07594247 -0.01004392 0.01245154
v -0.07595006 -0.00966928 0.01399728
v -0.07583633 -0.01062836 0.01293868
v -0.07519945 -0.01449465 0.00945373
v -0.07453983 -0.01755171 0.00787988
v -0.07437303 -0.01837591 0.00734590
v -0.07447159 -0.01707217 0.00911648
v -0.06688214 -0.03682318 0.01345393
v -0.03399201 -0.06856267 0.00338318
v -0.03100475 -0.07006122 0.00035727
v -0.03685795 -0.06694422 0.00793609
v -0.01446112 -0.07518630 0.01247964
v -0.02748676 -0.07137996 -0.00267800
v -0.02658452 -0.07172463 -0.00419564
v -0.02312719 -0.07296843 -0.00722155
v -0.02204298 -0.07329811 -0.00873918
v -0.03870793 -0.06594019 0.00945373
v -0.01142837 -0.07566584 0.01096200
v -0.00991200 -0.07595057 0.00907901
v -0.00839562 -0.07613039 0.00793609
v -0.00687925 -0.07610043 0.00793609
v -0.00384650 -0.07613039 0.00641846
v -0.00384650 -0.07632521 0.00490082
v -0.00081376 -0.07650503 0.00186554
v 0.00069504 -0.07635517 0.00186554
v 0.00085425 -0.07632521 0.00187491
v -0.06607847 -0.03874133 0.01247964
v -0.06547192 -0.03985027 0.01247964
v -0.06660161 -0.03761742 0.01247964
v -0.07143126 -0.02769695 -0.00267800
v -0.07115073 -0.02850617 -0.00419564
v -0.06492602 -0.04059955 0.01247964
v -0.06374325 -0.04256266 0.01037181
v -0.05488763 -0.05339724 -0.00267800
v -0.05180181 -0.05636439 -0.00571328
v -0.05023237 -0.05783298 -0.00873918
v -0.06171889 -0.04509523 0.00945373
v -0.06111234 -0.04599436 0.00793609
v -0.06049821 -0.04687851 0.00641846
v -0.05910315 -0.04852693 0.00490082
v -0.05915622 -0.04858687 0.00402021
v -0.05779907 -0.05025027 0.00186554
v -0.05709395 -0.05107448 0.00035727
v -0.05640400 -0.05188370 -0.00116036
v -0.06249982 -0.04443586 0.00793609
v -0.06187053 -0.04520013 0.00793609
v -0.04853403 -0.05918168 -0.01025682
v -0.04674471 -0.06051540 -0.01177446
v -0.04597136 -0.06108485 -0.01329210
v -0.04493264 -0.06183414 -0.01329210
v -0.03983762 -0.06552059 0.00793609
v -0.03697926 -0.06703414 0.00641846
v 0.00085425 0.07613821 0.01401601
v 0.00075569 0.07616819 0.01405348
v 0.00069504 0.07640796 0.01247964
v -0.00081376 0.07649788 0.01247964
v -0.00233013 0.07646790 0.01247964
v -0.00384650 0.07633304 0.01247964
v -0.00687925 0.07624312 0.00945373
v -0.00839562 0.07609327 0.00793609
v -0.01095829 0.07574861 0.00490082
v -0.01597749 0.07486445 -0.00116036
v -0.01749386 0.07450480 -0.00267800
v -0.01848709 0.07423505 -0.00380218
v -0.02344563 0.07282641 -0.00873918
v -0.02658452 0.07170249 -0.01025682
v -0.02763082 0.07128289 -0.01025682
v -0.03085311 0.06984427 -0.01329210
v -0.03712332 0.06701200 0.00793609
v -0.03574342 0.06774629 0.00945373
v -0.03705508 0.06698202 0.00945373
v -0.03781327 0.06648750 0.00945373
v -0.03465163 0.06788116 0.01399728
v -0.03688070 0.06692208 0.01096200
v -0.05641158 0.05166675 0.01247964
v -0.05716978 0.05096243 0.01247964
v -0.03973148 0.06528866 0.00793609
v -0.04064889 0.06483909 0.00641846
v -0.04258226 0.06362525 0.00454483
v -0.04439433 0.06235148 0.00186554
v -0.04697216 0.06047828 -0.00116036
v -0.04868566 0.05912957 -0.00267800
v -0.05789763 0.05021315 0.01247964
v -0.05779907 0.05012323 0.01399728
v -0.05922445 0.04848980 0.01198313
v -0.05840562 0.04916416 0.01399728
v -0.05804169 0.04925407 0.01548681
v -0.07300071 0.02316415 0.01399728
v -0.05947466 0.04739586 0.01399728
v -0.06102136 0.04591228 0.01096200
v -0.06192361 0.04486329 0.00945373
v -0.07341771 0.02187539 0.01247964
v -0.07435028 0.01817395 0.01062475
v -0.07659452 -0.00084277 -0.00722155
v -0.07607137 0.00823850 0.00186554
v -0.07622301 0.00672495 0.00035727
v -0.07645046 0.00519642 -0.00267800
v -0.07657177 0.00368288 -0.00419564
v -0.07660210 0.00065579 -0.00571328
v -0.07458532 0.01733475 0.00945373
v -0.07495683 0.01582121 0.00793609
v -0.07498716 0.01582121 0.00641846
v -0.07588940 0.01077106 0.00186554
v -0.07599555 0.00975204 0.00186554
v -0.07618509 -0.00691193 -0.01329210
v -0.07652628 -0.00235631 -0.00873918
v -0.07642771 -0.00386986 -0.01025682
v -0.07631399 -0.00539839 -0.01177446
v -0.07588182 -0.01088312 0.00945373
v -0.07585908 -0.01074825 0.01192692
v -0.07576051 -0.01164738 0.00945373
v -0.07551789 -0.01296612 0.00945373
v -0.07494925 -0.01600819 0.00793609
v -0.07464598 -0.01752174 0.00641846
v -0.07439577 -0.01846583 0.00641846
v -0.07290973 -0.02309638 0.00186554
v -0.03396168 -0.06862261 0.00186554
v -0.03096684 -0.07009120 -0.00116036
v -0.02750951 -0.07139494 -0.00419564
v -0.01294474 -0.07547102 0.01096200
v -0.01708444 -0.07446699 -0.01329210
v -0.01597749 -0.07470676 -0.01329210
v -0.02310445 -0.07296843 -0.00873918
v -0.02217188 -0.07313327 -0.01035987
v -0.01067777 -0.07589062 0.00876049
v -0.00997265 -0.07598053 0.00806725
v -0.00839562 -0.07613039 0.00641846
v -0.00687925 -0.07625027 0.00641846
v -0.00536288 -0.07622031 0.00641846
v -0.00233013 -0.07652002 0.00186554
v -0.00081376 -0.07659494 0.00035727
v 0.00069504 -0.07650503 0.00035727
v 0.00085425 -0.07649004 0.00035727
v -0.06699587 -0.03695805 -0.01329210
v -0.06658645 -0.03772231 -0.01329210
v -0.06964194 -0.03160819 -0.00722155
v -0.06375084 -0.04257765 0.00945373
v -0.07180278 -0.02661799 -0.00267800
v -0.07142368 -0.02774191 -0.00419564
v -0.07138577 -0.02759205 -0.00571328
v -0.07109766 -0.02835632 -0.00571328
v -0.06961162 -0.03147332 -0.00873918
v -0.06811799 -0.03459033 -0.01177446
v -0.05485730 -0.05338226 -0.00419564
v -0.05333335 -0.05488082 -0.00571328
v -0.05179423 -0.05637938 -0.00722155
v -0.05256000 -0.05564508 -0.00571328
v -0.05099055 -0.05706872 -0.00873918
v -0.05014897 -0.05775805 -0.00986336
v -0.04845821 -0.05910676 -0.01177446
v -0.05920929 -0.04864681 0.00301782
v -0.05783698 -0.05032520 0.00035727
v -0.05632819 -0.05185373 -0.00267800
v -0.06249224 -0.04445084 0.00641846
v -0.06192361 -0.04520013 0.00641846
v -0.04672954 -0.06045546 -0.01329210
v -0.04587279 -0.06100993 -0.01480037
v -0.04416687 -0.06232866 -0.01421017
v -0.04417445 -0.06234364 -0.01329210
v -0.03692619 -0.06707909 0.00490082
v 0.00085425 0.07615321 0.01395043
v 0.00085425 0.07636300 0.01247027
v 0.00085425 0.07630306 -0.01329210
v -0.00233013 0.07646790 0.01096200
v 0.00069504 0.07630306 -0.01329210
v -0.00384650 0.07643794 0.01096200
v -0.00536288 0.07639298 0.00945373
v -0.00687925 0.07631806 0.00793609
v -0.00991200 0.07589845 0.00490082
v -0.01094313 0.07573361 0.00370170
v -0.00081376 0.07621315 -0.01329210
v -0.02318026 0.07273649 -0.00983526
v -0.02730480 0.07111805 -0.01401344
v -0.02658452 0.07161258 -0.01177446
v -0.02761566 0.07125292 -0.01177446
v -0.03076213 0.06984427 -0.01480037
v -0.03161130 0.06943966 -0.01329210
v -0.03713848 0.06696704 0.00641846
v -0.03788908 0.06656243 0.00641846
v -0.03870793 0.06608289 0.00641846
v -0.03787392 0.06654744 0.00793609
v -0.03989070 0.06534860 0.00641846
v -0.05033851 0.05773591 -0.00571328
v -0.05195345 0.05629730 -0.00873918
v -0.05271164 0.05556300 -0.00873918
v -0.05345466 0.05482871 -0.01025682
v -0.04262017 0.06365522 0.00338318
v -0.04621397 0.06103275 -0.00116036
v -0.04694183 0.06046329 -0.00267800
v -0.04869325 0.05911459 -0.00419564
v -0.05491796 0.05327021 -0.01177446
v -0.05637368 0.05168173 -0.01329210
v -0.06071051 0.04691632 0.00848881
v -0.06071051 0.04691632 0.00886354
v -0.05958080 0.04775551 0.01248901
v -0.06064985 0.04682640 0.00986593
v -0.06055128 0.04667655 0.01096200
v -0.05901975 0.04816012 0.01399728
v -0.07271260 0.02397337 0.01247964
v -0.07301587 0.02320911 0.01247964
v -0.06244675 0.04430882 0.00793609
v -0.06373567 0.04237568 0.00581889
v -0.06673809 0.03776012 0.00035727
v -0.06108202 0.04624196 0.00939752
v -0.06202216 0.04505810 0.00793609
v -0.07341771 0.02187539 0.01096200
v -0.07439577 0.01833879 0.00793609
v -0.07437303 0.01829383 0.00945373
v -0.07656419 0.00065579 -0.00722155
v -0.07649595 -0.00084277 -0.00873918
v -0.07659452 0.00216933 -0.00571328
v -0.07614718 0.00823850 0.00035727
v -0.07629882 0.00672495 -0.00116036
v -0.07639738 0.00519642 -0.00419564
v -0.07648079 0.00368288 -0.00571328
v -0.07463081 0.01733475 0.00793609
v -0.07293247 0.02293937 -0.01425701
v -0.07586666 0.01059124 0.00097557
v -0.07615476 -0.00691193 -0.01480037
v -0.07598797 -0.00808081 -0.01480037
v -0.07642771 -0.00235631 -0.01025682
v -0.07635190 -0.00386986 -0.01177446
v -0.07627607 -0.00539839 -0.01329210
v -0.07551789 -0.01296612 0.00793609
v -0.07525252 -0.01449465 0.00793609
v -0.07497200 -0.01600819 0.00641846
v -0.07464598 -0.01752174 0.00490082
v -0.07441094 -0.01851078 0.00338318
v -0.07440336 -0.01849580 0.00490082
v -0.07415315 -0.01926006 0.00490082
v -0.02743369 -0.07137996 -0.00534792
v -0.01067777 -0.07589062 0.00866681
v -0.01688731 -0.07442203 -0.01448185
v -0.01597749 -0.07455690 -0.01465048
v 0.00069504 -0.07646007 -0.00267800
v -0.00081376 -0.07649004 -0.00116036
v -0.00384650 -0.07640013 0.00186554
v -0.00536288 -0.07632521 0.00338318
v -0.00687925 -0.07623529 0.00490082
v -0.02643289 -0.07163471 -0.00722155
v -0.02295281 -0.07290849 -0.00992894
v -0.02182311 -0.07305835 -0.01177446
v 0.00069504 -0.07656498 -0.00116036
v 0.00085425 -0.07656498 -0.00116036
v -0.06693522 -0.03691309 -0.01480037
v -0.06640448 -0.03766237 -0.01480037
v -0.06582827 -0.03871136 -0.01329210
v -0.05921687 -0.04864681 0.00186554
v -0.06056645 -0.04690848 0.00338318
v -0.06334899 -0.04316209 0.00781431
v -0.07178761 -0.02661799 -0.00419564
v -0.07133270 -0.02745718 -0.00663135
v -0.06990731 -0.03072404 -0.00873918
v -0.07167388 -0.02661799 -0.00571328
v -0.06842126 -0.03382606 -0.01177446
v -0.06754177 -0.03571424 -0.01329210
v -0.05327269 -0.05483586 -0.00722155
v -0.05255242 -0.05560013 -0.00722155
v -0.05171841 -0.05630445 -0.00873918
v -0.05005040 -0.05766814 -0.01087512
v -0.05163501 -0.05622952 -0.00967600
v -0.04832174 -0.05894192 -0.01329210
v -0.04663098 -0.06033557 -0.01480037
v -0.06116541 -0.04617419 0.00490082
v -0.05475116 -0.05329235 -0.00571328
v -0.04572115 -0.06089004 -0.01591517
v -0.01853258 -0.07305835 -0.01735787
v -0.01902540 -0.07323817 -0.01629927
v -0.02026124 -0.07310330 -0.01480037
v -0.02126963 -0.07283356 -0.01401344
v -0.02152742 -0.07295344 -0.01301105
v -0.02277084 -0.07280359 -0.01094070
v 0.00085425 0.07622814 -0.01480037
v 0.00069504 0.07624312 -0.01480037
v -0.00384650 0.07643794 0.00945373
v -0.00536288 0.07639298 0.00793609
v -0.02810089 0.07027886 -0.01631800
v -0.02960211 0.06994917 -0.01630864
v -0.02961727 0.07029384 -0.01480037
v -0.02750951 0.07120796 -0.01300169
v 0.00083909 0.07588347 -0.01626180
v -0.03056500 0.06976935 -0.01580276
v -0.05184730 0.05616243 -0.01025682
v -0.05020962 0.05758606 -0.00836446
v -0.04853403 0.05900969 -0.00633157
v -0.04682811 0.06040335 -0.00419564
v -0.04505395 0.06175205 -0.00267800
v -0.04440949 0.06233649 -0.00116036
v -0.04251402 0.06358030 -0.00045775
v -0.04255193 0.06359528 0.00035727
v -0.03990586 0.06534860 0.00490082
v -0.04066405 0.06489903 0.00490082
v -0.05031576 0.05767597 -0.00722155
v -0.05260549 0.05559297 -0.01025682
v -0.05339400 0.05470883 -0.01177446
v -0.05415219 0.05401949 -0.01177446
v -0.04259743 0.06362525 0.00186554
v -0.04442466 0.06233649 0.00035727
v -0.04780617 0.05974398 -0.00419564
v -0.05563065 0.05244600 -0.01329210
v -0.05630544 0.05160681 -0.01480037
v -0.05770050 0.04998836 -0.01411649
v -0.06199184 0.04510306 0.00641846
v -0.07009686 0.03088173 -0.00722155
v -0.07071857 0.02945810 -0.00873918
v -0.06824688 0.03468807 -0.00267800
v -0.07142368 0.02750997 -0.01025682
v -0.07230318 0.02491746 -0.01177446
v -0.07270502 0.02371862 -0.01329210
v -0.06376600 0.04242064 0.00490082
v -0.06550224 0.03972323 0.00186554
v -0.06623768 0.03855436 0.00035727
v -0.06617703 0.03855436 -0.00116036
v -0.06669260 0.03770018 -0.00116036
v -0.06822413 0.03468807 -0.00419564
v -0.06974051 0.03164600 -0.00722155
v -0.06251499 0.04433879 0.00641846
v -0.07638222 0.00065579 -0.00873918
v -0.07632157 -0.00084277 -0.01025682
v -0.07626091 -0.00235631 -0.01177446
v -0.07643530 0.00216933 -0.00722155
v -0.07228802 0.02491746 -0.01329210
v -0.07215912 0.02491746 -0.01480037
v -0.07169663 0.02491746 -0.01628990
v -0.07566194 -0.00539839 -0.01667399
v -0.07593489 -0.00539839 -0.01591517
v -0.07588182 -0.00451424 -0.01565287
v -0.07612444 -0.00539839 -0.01480037
v -0.07619268 -0.00386986 -0.01329210
v -0.07597280 -0.00691193 -0.01593391
v -0.07592731 -0.00778110 -0.01568097
v -0.07438819 -0.01843586 0.00239953
v -0.06825446 -0.03337649 -0.01398534
v -0.06834544 -0.03364623 -0.01298295
v -0.02067067 -0.07322318 -0.01342325
v -0.01901024 -0.07358284 -0.01480037
v -0.01743321 -0.07413731 -0.01491278
v -0.01749386 -0.07370273 -0.01631800
v -0.01597749 -0.07422722 -0.01540930
v -0.01479472 -0.07457189 -0.01441627
v 0.00085425 -0.07599553 -0.00573201
v 0.00085425 -0.07625027 -0.00419564
v 0.00085425 -0.07646007 -0.00267800
v -0.06738254 -0.03571424 -0.01480037
v -0.06685182 -0.03670329 -0.01597138
v -0.04720720 -0.05940647 -0.01589644
v -0.04738916 -0.05957131 -0.01480037
v -0.04899652 -0.05819264 -0.01329210
v -0.04995941 -0.05754826 -0.01177446
v -0.05319687 -0.05476093 -0.00833636
v -0.06983907 -0.03055920 -0.00978842
v -0.04633528 -0.06002088 -0.01641169
v -0.04567566 -0.05482088 -0.02484301
v -0.04433367 -0.05657419 -0.02358768
v -0.04280972 -0.05954134 -0.02052430
v -0.02000346 -0.06839782 -0.02484301
v -0.01901024 -0.06859264 -0.02499290
v -0.01706170 -0.06997131 -0.02330663
v 0.00085425 0.07619817 -0.01496899
v 0.00085425 0.07588347 -0.01627116
v -0.02810089 0.06982929 -0.01751713
v -0.02907896 0.06973937 -0.01724545
v -0.05324994 0.05457395 -0.01290800
v -0.03066357 0.06675724 -0.02040251
v -0.04888279 0.05168173 -0.02506784
v -0.05426592 0.05273073 -0.01660842
v -0.05464501 0.05297050 -0.01559666
v -0.05473599 0.05306041 -0.01480037
v -0.05487247 0.05318030 -0.01329210
v -0.05621446 0.05151689 -0.01569034
v -0.06968743 0.03157107 -0.00873918
v -0.06855015 0.03369902 -0.00722155
v -0.06816348 0.03459816 -0.00571328
v -0.06701861 0.03671113 -0.00419564
v -0.06663194 0.03759528 -0.00267800
v -0.06547192 0.03964831 -0.00116036
v -0.06498668 0.04047251 0.00035727
v -0.06375084 0.04239067 0.00237142
v -0.06377358 0.04242064 0.00338318
v -0.07145401 0.02593649 -0.01604633
v -0.07127962 0.02713533 -0.01388229
v -0.06990731 0.03040219 -0.01139037
v -0.07002104 0.03062698 -0.01025682
v -0.07010444 0.03080680 -0.00873918
v -0.07060484 0.02945810 -0.01025682
v -0.07112799 0.02827424 -0.01025682
v -0.07177245 0.02643101 -0.01177446
v -0.06431189 0.04158144 0.00338318
v -0.06501700 0.04048750 0.00186554
v -0.06550224 0.03970825 0.00035727
v -0.06707927 0.03684600 -0.00267800
v -0.06773889 0.03552726 -0.00419564
v -0.07138577 0.02739009 -0.01177446
v -0.07156774 0.02620623 -0.01480037
v -0.07134028 0.02727020 -0.01287053
v -0.06678358 0.02572669 -0.02469312
v -0.07127204 0.02491746 -0.01704872
v -0.06986182 0.02274455 -0.02031820
v -0.07131754 -0.00153211 -0.02470248
v -0.07134786 -0.00235631 -0.02475869
v -0.07135544 -0.00386986 -0.02473996
v -0.07131754 -0.00466410 -0.02467438
v -0.07294764 -0.00842548 -0.02042125
v -0.07287182 -0.00924969 -0.02017768
v -0.06400104 -0.03115863 -0.02506784
v -0.06682149 -0.03532462 -0.01723608
v -0.06700345 -0.03578917 -0.01641169
v -0.01556049 -0.07154480 -0.02059924
v -0.01446112 -0.07161973 -0.02058051
v -0.01258081 -0.07302837 -0.01747965
v -0.01142837 -0.07299840 -0.01738597
v 0.00085425 -0.07553097 -0.00711850
v 0.00085425 -0.07583068 -0.00631284
v -0.06647272 -0.03632866 -0.01698314
v -0.04710864 -0.05323241 -0.02493669
v -0.04694183 -0.05907679 -0.01690820
v -0.04622156 -0.05380186 -0.02520836
v -0.00954049 -0.01106294 -0.06888260
v -0.00795588 -0.01238168 -0.06880766
v -0.04477342 -0.05512059 -0.02499290
v -0.02131513 -0.06683932 -0.02618265
v 0.00085425 -0.01419493 -0.06903249
v -0.01785779 -0.06860762 -0.02491795
v -0.01651580 -0.06997131 -0.02330663
v -0.00233013 -0.01414998 -0.06902312
v -0.00081376 -0.01419493 -0.06903249
v 0.00085425 0.07270652 -0.02168595
v 0.00069504 0.07272151 -0.02169531
v -0.00015413 0.07273649 -0.02170468
v -0.02286941 0.06663736 -0.02618265
v -0.02593248 0.06665234 -0.02473059
v -0.02753226 0.06668231 -0.02329726
v -0.02911687 0.06672727 -0.02184520
v -0.04722236 0.05147194 -0.02618265
v -0.05045982 0.05027309 -0.02493669
v -0.05488005 0.05171171 -0.01732040
v -0.05526672 0.05211632 -0.01614938
v -0.05180181 0.05006329 -0.02342842
v -0.05494070 0.04866963 -0.02049619
v -0.06549466 0.02753994 -0.02508658
v -0.06599506 0.02631112 -0.02515215
v -0.01405170 0.00368288 -0.06898565
v -0.06982391 -0.00006352 -0.02618265
v -0.06982391 -0.00027332 -0.02618265
v -0.01402895 -0.00386986 -0.06897628
v -0.01415784 -0.00235631 -0.06903249
v -0.06375842 -0.02903067 -0.02618265
v -0.06381149 -0.03214768 -0.02479617
v 0.00085425 -0.06349753 -0.02574235
v 0.00085425 -0.07314826 -0.01168078
v 0.00085425 -0.07400244 -0.01033177
v 0.00085425 -0.07415229 -0.01007883
v 0.00085425 -0.07442203 -0.00961042
v 0.00085425 -0.07464682 -0.00912328
v 0.00085425 -0.07485662 -0.00865487
v -0.01101137 -0.00956438 -0.06889197
v -0.00998781 -0.01001395 -0.06911680
v -0.00843353 -0.01152750 -0.06906996
v -0.00687925 -0.01265142 -0.06896691
v -0.00493829 -0.01385027 -0.06877019
v -0.00384650 -0.01400012 -0.06892944
v -0.00081376 -0.01296612 -0.06946343
v 0.00085425 -0.01296612 -0.06945406
v -0.00384650 -0.01296612 -0.06936975
v -0.00233013 -0.01296612 -0.06946343
v 0.00085425 0.07266156 -0.02175152
v 0.00085425 0.07179240 -0.02263213
v -0.00233013 0.01403792 -0.06903249
v -0.00384650 0.01390305 -0.06898565
v -0.00536288 0.01367827 -0.06877956
v -0.00612865 0.01354340 -0.06861093
v -0.00801653 0.01225464 -0.06885450
v -0.00959356 0.01090594 -0.06889197
v -0.01104928 0.00943735 -0.06889197
v -0.01241401 0.00783389 -0.06884513
v -0.01387731 0.00489671 -0.06882639
v -0.01270971 0.00672495 -0.06899502
v -0.01294474 0.00368288 -0.06941659
v -0.01420333 0.00216933 -0.06903249
v -0.01426399 0.00065579 -0.06903249
v -0.01422608 -0.00084277 -0.06903249
v -0.01294474 -0.00386986 -0.06940722
v -0.01294474 -0.00539839 -0.06919175
v -0.01382424 -0.00539839 -0.06876082
v -0.01294474 -0.00235631 -0.06946343
v -0.01370293 -0.00614767 -0.06861093
v -0.01237610 -0.00794594 -0.06881703
v -0.01148144 -0.00844047 -0.06907933
v -0.00991200 -0.00842548 -0.06946343
v -0.00839562 -0.00993903 -0.06946343
v -0.00687925 -0.01145257 -0.06939785
v 0.00085425 0.01262928 -0.06946343
v 0.00085425 0.01408288 -0.06903249
v -0.00081376 0.01408288 -0.06903249
v -0.00233013 0.01277913 -0.06946343
v -0.00384650 0.01277913 -0.06942595
v -0.00536288 0.01277913 -0.06920112
v -0.00672761 0.01276415 -0.06892944
v -0.00847144 0.01135550 -0.06909807
v -0.01002573 0.00985694 -0.06911680
v -0.01150419 0.00829844 -0.06909807
v -0.01142837 0.00672495 -0.06942595
v -0.01294474 0.00216933 -0.06946343
v -0.01142837 -0.00691193 -0.06940722
v -0.01290683 -0.00676208 -0.06890134
v -0.01142837 -0.00539839 -0.06946343
v 0.00085425 0.01277913 -0.06946343
v 0.00085425 0.01396300 -0.06907933
v -0.00839562 0.00975204 -0.06946343
v -0.00687925 0.01126559 -0.06943532
v -0.00991200 0.00823850 -0.06946343
f 1 2 3
f 1 3 4
f 1 4 5
f 1 5 6
f 1 6 7
f 1 7 8
f 1 8 9
f 1 9 10
f 1 10 11
f 1 11 2
f 2 12 13
f 2 13 14
f 2 14 15
f 2 15 3
f 2 11 12
f 3 16 17
f 3 17 18
f 3 18 19
f 3 19 4
f 3 15 14
f 3 14 20
f 3 20 16
f 4 19 21
f 4 21 22
f 4 22 5
f 5 22 6
f 6 22 23
f 6 23 24
f 6 24 46
f 6 46 87
f 6 87 77
f 6 77 76
f 6 76 75
f 6 75 127
f 6 127 126
f 6 126 176
f 6 176 124
f 6 124 175
f 6 175 255
f 6 255 362
f 6 362 473
f 6 473 572
f 6 572 571
f 6 571 570
f 6 570 642
f 6 642 641
f 6 641 684
f 6 684 683
f 6 683 682
f 6 682 681
f 6 681 680
f 6 680 679
f 6 679 678
f 6 678 651
f 6 651 692
f 6 692 721
f 6 721 736
f 6 736 737
f 6 737 722
f 6 722 696
f 6 696 695
f 6 695 656
f 6 656 589
f 6 589 588
f 6 588 502
f 6 502 392
f 6 392 391
f 6 391 390
f 6 390 282
f 6 282 193
f 6 193 192
f 6 192 142
f 6 142 88
f 6 88 47
f 6 47 25
f 6 25 7
f 7 25 8
f 8 25 9
f 9 26 27
f 9 27 28
f 9 28 29
f 9 29 10
f 9 25 26
f 10 29 30
f 10 30 11
f 11 30 31
f 11 31 32
f 11 32 33
f 11 33 34
f 11 34 13
f 11 13 12
f 13 34 20
f 13 20 14
f 16 35 36
f 16 36 37
f 16 37 17
f 16 20 35
f 17 37 38
f 17 38 39
f 17 39 40
f 17 40 19
f 17 19 18
f 19 41 42
f 19 42 21
f 19 40 41
f 20 43 44
f 20 44 36
f 20 36 35
f 20 34 45
f 20 45 43
f 21 42 23
f 21 23 22
f 23 42 46
f 23 46 24
f 25 47 26
f 26 48 49
f 26 49 50
f 26 50 27
f 26 47 48
f 27 50 51
f 27 51 52
f 27 52 28
f 28 52 32
f 28 32 29
f 29 32 31
f 29 31 30
f 32 53 54
f 32 54 55
f 32 55 56
f 32 56 33
f 32 52 53
f 33 56 45
f 33 45 34
f 36 57 58
f 36 58 59
f 36 59 60
f 36 60 61
f 36 61 37
f 36 44 57
f 37 61 60
f 37 60 62
f 37 62 63
f 37 63 38
f 38 63 64
f 38 64 65
f 38 65 39
f 39 65 66
f 39 66 67
f 39 67 68
f 39 68 69
f 39 69 70
f 39 70 71
f 39 71 72
f 39 72 73
f 39 73 74
f 39 74 75
f 39 75 76
f 39 76 77
f 39 77 78
f 39 78 40
f 40 78 41
f 41 78 79
f 41 79 42
f 42 79 46
f 43 80 44
f 43 45 80
f 44 80 81
f 44 81 82
f 44 82 58
f 44 58 83
f 44 83 84
f 44 84 57
f 45 85 86
f 45 86 80
f 45 56 85
f 46 79 87
f 47 88 48
f 48 89 90
f 48 90 91
f 48 91 92
f 48 92 49
f 48 88 89
f 49 92 50
f 50 92 91
f 50 91 93
f 50 93 94
f 50 94 51
f 51 94 95
f 51 95 96
f 51 96 97
f 51 97 98
f 51 98 52
f 52 98 99
f 52 99 100
f 52 100 54
f 52 54 53
f 54 100 101
f 54 101 102
f 54 102 103
f 54 103 55
f 55 103 56
f 56 103 104
f 56 104 105
f 56 105 106
f 56 106 107
f 56 107 108
f 56 108 85
f 57 84 58
f 58 82 109
f 58 109 110
f 58 110 59
f 58 84 83
f 59 110 111
f 59 111 112
f 59 112 62
f 59 62 60
f 62 112 63
f 63 112 113
f 63 113 114
f 63 114 64
f 64 114 65
f 65 114 66
f 66 114 113
f 66 113 115
f 66 115 116
f 66 116 67
f 67 117 69
f 67 69 68
f 67 116 118
f 67 118 119
f 67 119 120
f 67 120 117
f 69 117 121
f 69 121 70
f 70 121 72
f 70 72 71
f 72 121 122
f 72 122 123
f 72 123 124
f 72 124 125
f 72 125 73
f 73 125 126
f 73 126 127
f 73 127 75
f 73 75 74
f 77 87 79
f 77 79 78
f 80 128 129
f 80 129 130
f 80 130 81
f 80 86 128
f 81 130 129
f 81 129 131
f 81 131 132
f 81 132 133
f 81 133 82
f 82 134 135
f 82 135 136
f 82 136 109
f 82 133 137
f 82 137 138
f 82 138 139
f 82 139 134
f 85 108 107
f 85 107 140
f 85 140 141
f 85 141 86
f 86 141 131
f 86 131 129
f 86 129 128
f 88 142 89
f 89 142 143
f 89 143 144
f 89 144 91
f 89 91 90
f 91 144 145
f 91 145 93
f 93 145 146
f 93 146 94
f 94 146 147
f 94 147 95
f 95 148 97
f 95 97 96
f 95 147 148
f 97 148 99
f 97 99 98
f 99 148 149
f 99 149 150
f 99 150 151
f 99 151 152
f 99 152 153
f 99 153 100
f 100 153 151
f 100 151 154
f 100 154 101
f 101 154 103
f 101 103 102
f 103 154 104
f 104 154 155
f 104 155 156
f 104 156 106
f 104 106 105
f 106 140 107
f 106 156 157
f 106 157 158
f 106 158 159
f 106 159 141
f 106 141 140
f 109 136 160
f 109 160 161
f 109 161 110
f 110 162 163
f 110 163 111
f 110 161 160
f 110 160 164
f 110 164 162
f 111 163 112
f 112 163 165
f 112 165 113
f 113 165 166
f 113 166 167
f 113 167 115
f 115 167 116
f 116 167 168
f 116 168 118
f 117 120 121
f 118 168 169
f 118 169 119
f 119 169 170
f 119 170 171
f 119 171 120
f 120 171 172
f 120 172 122
f 120 122 121
f 122 172 173
f 122 173 123
f 123 173 174
f 123 174 175
f 123 175 124
f 124 176 125
f 125 176 126
f 131 177 132
f 131 141 178
f 131 178 177
f 132 137 133
f 132 177 179
f 132 179 180
f 132 180 181
f 132 181 182
f 132 182 137
f 134 183 135
f 134 139 184
f 134 184 183
f 135 183 185
f 135 185 186
f 135 186 187
f 135 187 188
f 135 188 189
f 135 189 190
f 135 190 136
f 136 190 191
f 136 191 164
f 136 164 160
f 137 182 138
f 138 182 181
f 138 181 139
f 139 181 184
f 141 159 178
f 142 192 144
f 142 144 143
f 144 192 193
f 144 193 194
f 144 194 145
f 145 194 195
f 145 195 146
f 146 195 196
f 146 196 197
f 146 197 147
f 147 197 198
f 147 198 199
f 147 199 200
f 147 200 201
f 147 201 202
f 147 202 203
f 147 203 204
f 147 204 205
f 147 205 206
f 147 206 207
f 147 207 208
f 147 208 209
f 147 209 210
f 147 210 211
f 147 211 212
f 147 212 213
f 147 213 214
f 147 214 215
f 147 215 149
f 147 149 148
f 149 215 150
f 150 216 217
f 150 217 218
f 150 218 219
f 150 219 151
f 150 215 216
f 151 153 152
f 151 219 220
f 151 220 154
f 154 220 155
f 155 220 221
f 155 221 222
f 155 222 156
f 156 222 157
f 157 223 158
f 157 222 224
f 157 224 225
f 157 225 226
f 157 226 223
f 158 227 228
f 158 228 229
f 158 229 230
f 158 230 231
f 158 231 159
f 158 223 227
f 159 231 232
f 159 232 233
f 159 233 234
f 159 234 235
f 159 235 236
f 159 236 237
f 159 237 177
f 159 177 178
f 162 238 239
f 162 239 163
f 162 164 240
f 162 240 238
f 163 241 165
f 163 239 242
f 163 242 243
f 163 243 244
f 163 244 245
f 163 245 241
f 164 191 190
f 164 190 246
f 164 246 240
f 165 241 349
f 165 349 247
f 165 247 167
f 165 167 166
f 167 247 168
f 168 248 249
f 168 249 250
f 168 250 170
f 168 170 169
f 168 247 248
f 170 250 251
f 170 251 171
f 171 251 172
f 172 251 174
f 172 174 173
f 174 252 253
f 174 253 254
f 174 254 175
f 174 251 358
f 174 358 252
f 175 254 255
f 177 256 257
f 177 257 179
f 177 237 258
f 177 258 259
f 177 259 260
f 177 260 256
f 179 257 261
f 179 261 262
f 179 262 180
f 180 262 184
f 180 184 181
f 183 263 264
f 183 264 265
f 183 265 185
f 183 184 266
f 183 266 267
f 183 267 268
f 183 268 269
f 183 269 270
f 183 270 271
f 183 271 272
f 183 272 273
f 183 273 263
f 184 262 274
f 184 274 275
f 184 275 266
f 185 265 276
f 185 276 186
f 186 276 277
f 186 277 278
f 186 278 279
f 186 279 187
f 187 280 188
f 187 279 280
f 188 280 190
f 188 190 189
f 190 280 281
f 190 281 240
f 190 240 246
f 193 282 194
f 194 282 283
f 194 283 195
f 195 283 196
f 196 284 285
f 196 285 286
f 196 286 198
f 196 198 197
f 196 283 284
f 198 286 395
f 198 395 287
f 198 287 199
f 199 287 288
f 199 288 200
f 200 288 289
f 200 289 202
f 200 202 201
f 202 289 203
f 203 289 290
f 203 290 204
f 204 290 291
f 204 291 205
f 205 291 206
f 206 291 292
f 206 292 293
f 206 293 294
f 206 294 207
f 207 294 208
f 208 294 295
f 208 295 209
f 209 295 296
f 209 296 297
f 209 297 210
f 210 298 299
f 210 299 211
f 210 297 298
f 211 299 298
f 211 298 212
f 212 298 300
f 212 300 301
f 212 301 213
f 213 302 214
f 213 301 303
f 213 303 216
f 213 216 302
f 214 302 215
f 215 302 216
f 216 304 305
f 216 305 217
f 216 303 301
f 216 301 306
f 216 306 307
f 216 307 308
f 216 308 309
f 216 309 310
f 216 310 311
f 216 311 304
f 217 305 312
f 217 312 313
f 217 313 218
f 218 313 314
f 218 314 315
f 218 315 316
f 218 316 219
f 219 316 220
f 220 317 221
f 220 316 318
f 220 318 319
f 220 319 320
f 220 320 317
f 221 321 322
f 221 322 222
f 221 317 321
f 222 322 224
f 223 323 227
f 223 226 324
f 223 324 325
f 223 325 326
f 223 326 327
f 223 327 328
f 223 328 323
f 224 322 329
f 224 329 330
f 224 330 225
f 225 330 226
f 226 330 331
f 226 331 332
f 226 332 333
f 226 333 324
f 227 334 228
f 227 323 335
f 227 335 336
f 227 336 337
f 227 337 334
f 228 334 338
f 228 338 229
f 229 339 231
f 229 231 230
f 229 338 340
f 229 340 341
f 229 341 339
f 231 339 232
f 232 339 341
f 232 341 233
f 233 342 234
f 233 341 342
f 234 342 235
f 235 342 343
f 235 343 344
f 235 344 345
f 235 345 237
f 235 237 236
f 237 345 259
f 237 259 258
f 238 346 239
f 238 240 281
f 238 281 346
f 239 346 347
f 239 347 348
f 239 348 242
f 241 245 350
f 241 350 351
f 241 351 349
f 242 348 243
f 243 348 244
f 244 352 245
f 244 348 352
f 245 352 353
f 245 353 350
f 247 349 354
f 247 354 248
f 248 354 355
f 248 355 249
f 249 356 357
f 249 357 358
f 249 358 250
f 249 355 356
f 250 358 251
f 252 358 357
f 252 357 359
f 252 359 253
f 253 359 360
f 253 360 361
f 253 361 362
f 253 362 254
f 254 362 255
f 256 363 364
f 256 364 257
f 256 260 365
f 256 365 363
f 257 364 366
f 257 366 262
f 257 262 261
f 259 345 367
f 259 367 368
f 259 368 260
f 260 368 369
f 260 369 370
f 260 370 371
f 260 371 372
f 260 372 365
f 262 366 274
f 263 373 374
f 263 374 375
f 263 375 376
f 263 376 264
f 263 273 373
f 264 376 375
f 264 375 265
f 265 375 377
f 265 377 378
f 265 378 379
f 265 379 276
f 266 275 267
f 267 275 268
f 268 275 380
f 268 380 270
f 268 270 269
f 270 380 271
f 271 380 381
f 271 381 272
f 272 381 273
f 273 381 382
f 273 382 373
f 274 366 383
f 274 383 384
f 274 384 380
f 274 380 275
f 276 379 385
f 276 385 278
f 276 278 277
f 278 386 387
f 278 387 279
f 278 385 386
f 279 387 388
f 279 388 280
f 280 389 281
f 280 388 387
f 280 387 389
f 281 389 346
f 282 390 283
f 283 390 391
f 283 391 284
f 284 391 392
f 284 392 285
f 285 393 504
f 285 504 395
f 285 395 286
f 285 392 394
f 285 394 393
f 287 395 396
f 287 396 288
f 288 396 397
f 288 397 289
f 289 397 290
f 290 397 398
f 290 398 399
f 290 399 291
f 291 399 400
f 291 400 292
f 292 400 293
f 293 400 294
f 294 400 401
f 294 401 402
f 294 402 403
f 294 403 295
f 295 403 404
f 295 404 296
f 296 404 297
f 297 404 405
f 297 405 406
f 297 406 298
f 298 407 408
f 298 408 409
f 298 409 410
f 298 410 300
f 298 406 407
f 300 410 411
f 300 411 301
f 301 411 307
f 301 307 306
f 304 311 412
f 304 412 305
f 305 412 413
f 305 413 414
f 305 414 415
f 305 415 312
f 307 411 416
f 307 416 308
f 308 416 309
f 309 416 310
f 310 416 417
f 310 417 418
f 310 418 419
f 310 419 311
f 311 419 412
f 312 314 313
f 312 415 420
f 312 420 421
f 312 421 422
f 312 422 423
f 312 423 314
f 314 424 315
f 314 423 425
f 314 425 426
f 314 426 424
f 315 424 316
f 316 424 427
f 316 427 318
f 317 428 429
f 317 429 321
f 317 320 430
f 317 430 431
f 317 431 432
f 317 432 428
f 318 427 319
f 319 427 424
f 319 424 426
f 319 426 425
f 319 425 320
f 320 425 433
f 320 433 434
f 320 434 430
f 321 435 436
f 321 436 437
f 321 437 322
f 321 429 435
f 322 437 329
f 323 438 439
f 323 439 450
f 323 450 335
f 323 328 440
f 323 440 438
f 324 333 441
f 324 441 325
f 325 441 442
f 325 442 326
f 326 442 332
f 326 332 443
f 326 443 327
f 327 443 444
f 327 444 440
f 327 440 328
f 329 437 445
f 329 445 330
f 330 445 331
f 331 445 436
f 331 436 446
f 331 446 332
f 332 447 443
f 332 442 333
f 332 446 447
f 333 442 441
f 334 448 449
f 334 449 338
f 334 337 448
f 335 450 451
f 335 451 452
f 335 452 336
f 336 452 337
f 337 452 448
f 338 449 340
f 340 453 454
f 340 454 341
f 340 449 453
f 341 454 342
f 342 454 455
f 342 455 343
f 343 456 457
f 343 457 458
f 343 458 344
f 343 455 456
f 344 458 459
f 344 459 367
f 344 367 345
f 346 389 387
f 346 387 347
f 347 460 348
f 347 387 460
f 348 460 352
f 349 351 461
f 349 461 354
f 350 353 462
f 350 462 351
f 351 463 464
f 351 464 465
f 351 465 360
f 351 360 466
f 351 466 467
f 351 467 468
f 351 468 356
f 351 356 355
f 351 355 461
f 351 462 463
f 352 460 469
f 352 469 470
f 352 470 353
f 353 470 471
f 353 471 462
f 354 461 355
f 356 468 357
f 357 468 467
f 357 467 359
f 359 467 466
f 359 466 360
f 360 465 464
f 360 464 472
f 360 472 473
f 360 473 361
f 361 473 362
f 363 372 474
f 363 474 364
f 363 365 372
f 364 474 475
f 364 475 476
f 364 476 381
f 364 381 477
f 364 477 478
f 364 478 383
f 364 383 479
f 364 479 366
f 366 479 383
f 367 480 368
f 367 459 457
f 367 457 480
f 368 480 369
f 369 481 482
f 369 482 370
f 369 480 483
f 369 483 481
f 370 482 371
f 371 482 484
f 371 484 372
f 372 484 485
f 372 485 474
f 373 486 487
f 373 487 374
f 373 382 486
f 374 487 375
f 375 487 377
f 377 487 488
f 377 488 378
f 378 489 379
f 378 488 490
f 378 490 489
f 379 489 491
f 379 491 492
f 379 492 385
f 380 477 381
f 380 384 493
f 380 493 477
f 381 476 382
f 382 476 494
f 382 494 486
f 383 478 493
f 383 493 384
f 385 492 386
f 386 492 495
f 386 495 387
f 387 496 497
f 387 497 498
f 387 498 499
f 387 499 500
f 387 500 501
f 387 501 470
f 387 470 469
f 387 469 460
f 387 495 496
f 392 502 503
f 392 503 394
f 393 394 504
f 394 397 505
f 394 505 504
f 394 503 400
f 394 400 397
f 395 504 505
f 395 505 396
f 396 505 397
f 397 400 398
f 398 400 399
f 400 503 401
f 401 503 402
f 402 506 507
f 402 507 508
f 402 508 509
f 402 509 403
f 402 503 510
f 402 510 506
f 403 509 404
f 404 509 508
f 404 508 405
f 405 508 511
f 405 511 512
f 405 512 513
f 405 513 514
f 405 514 515
f 405 515 516
f 405 516 517
f 405 517 406
f 406 518 519
f 406 519 520
f 406 520 408
f 406 408 407
f 406 517 518
f 408 520 409
f 409 520 521
f 409 521 411
f 409 411 410
f 411 521 416
f 412 419 522
f 412 522 413
f 413 522 512
f 413 512 523
f 413 523 415
f 413 415 414
f 415 523 524
f 415 524 525
f 415 525 420
f 416 521 526
f 416 526 517
f 416 517 527
f 416 527 417
f 417 527 517
f 417 517 418
f 418 517 528
f 418 528 419
f 419 528 522
f 420 529 421
f 420 525 529
f 421 529 530
f 421 530 531
f 421 531 422
f 422 532 423
f 422 531 532
f 423 532 434
f 423 434 425
f 425 434 433
f 428 533 534
f 428 534 429
f 428 432 535
f 428 535 533
f 429 534 536
f 429 536 537
f 429 537 538
f 429 538 435
f 430 434 431
f 431 434 539
f 431 539 432
f 432 539 540
f 432 540 541
f 432 541 542
f 432 542 543
f 432 543 544
f 432 544 545
f 432 545 535
f 434 532 546
f 434 546 539
f 435 538 446
f 435 446 436
f 436 445 437
f 438 547 548
f 438 548 549
f 438 549 439
f 438 440 444
f 438 444 550
f 438 550 547
f 439 549 558
f 439 558 450
f 443 447 446
f 443 446 444
f 444 446 550
f 446 538 551
f 446 551 552
f 446 552 553
f 446 553 554
f 446 554 555
f 446 555 556
f 446 556 557
f 446 557 558
f 446 558 549
f 446 549 548
f 446 548 547
f 446 547 550
f 448 452 557
f 448 557 559
f 448 559 560
f 448 560 449
f 449 481 483
f 449 483 480
f 449 480 561
f 449 561 457
f 449 457 456
f 449 456 455
f 449 455 453
f 449 560 562
f 449 562 563
f 449 563 481
f 450 558 557
f 450 557 451
f 451 557 452
f 453 455 454
f 457 561 480
f 457 459 458
f 462 471 564
f 462 564 565
f 462 565 566
f 462 566 567
f 462 567 463
f 463 568 569
f 463 569 570
f 463 570 571
f 463 571 464
f 463 567 568
f 464 571 572
f 464 572 473
f 464 473 472
f 470 501 471
f 471 501 500
f 471 500 564
f 474 485 484
f 474 484 573
f 474 573 574
f 474 574 475
f 475 574 575
f 475 575 576
f 475 576 577
f 475 577 578
f 475 578 490
f 475 490 579
f 475 579 476
f 476 579 494
f 477 493 478
f 481 580 482
f 481 563 580
f 482 580 563
f 482 563 573
f 482 573 484
f 486 494 579
f 486 579 488
f 486 488 487
f 488 579 490
f 489 578 491
f 489 490 578
f 491 576 492
f 491 578 576
f 492 576 575
f 492 575 495
f 495 575 581
f 495 581 582
f 495 582 583
f 495 583 584
f 495 584 585
f 495 585 496
f 496 585 586
f 496 586 587
f 496 587 567
f 496 567 497
f 497 567 566
f 497 566 565
f 497 565 498
f 498 565 564
f 498 564 500
f 498 500 499
f 502 588 503
f 503 588 589
f 503 589 510
f 506 590 591
f 506 591 507
f 506 510 589
f 506 589 590
f 507 591 511
f 507 511 508
f 511 592 512
f 511 591 593
f 511 593 594
f 511 594 595
f 511 595 596
f 511 596 592
f 512 592 524
f 512 524 523
f 512 522 513
f 513 522 514
f 514 522 528
f 514 528 515
f 515 528 516
f 516 528 517
f 517 526 519
f 517 519 518
f 519 526 521
f 519 521 520
f 524 592 596
f 524 596 597
f 524 597 598
f 524 598 525
f 525 598 529
f 529 598 530
f 530 598 597
f 530 597 599
f 530 599 531
f 531 600 601
f 531 601 602
f 531 602 603
f 531 603 604
f 531 604 542
f 531 542 605
f 531 605 606
f 531 606 607
f 531 607 608
f 531 608 532
f 531 599 609
f 531 609 610
f 531 610 611
f 531 611 612
f 531 612 600
f 532 608 546
f 533 613 534
f 533 535 545
f 533 545 613
f 534 613 614
f 534 614 615
f 534 615 536
f 536 615 616
f 536 616 551
f 536 551 538
f 536 538 537
f 539 546 608
f 539 608 617
f 539 617 540
f 540 617 618
f 540 618 541
f 541 618 619
f 541 619 542
f 542 604 543
f 542 619 605
f 543 604 620
f 543 620 621
f 543 621 544
f 544 621 602
f 544 602 600
f 544 600 545
f 545 600 613
f 551 616 615
f 551 615 622
f 551 622 552
f 552 623 609
f 552 609 553
f 552 622 624
f 552 624 610
f 552 610 623
f 553 609 625
f 553 625 626
f 553 626 627
f 553 627 628
f 553 628 554
f 554 628 629
f 554 629 630
f 554 630 559
f 554 559 555
f 555 557 556
f 555 559 557
f 559 630 631
f 559 631 560
f 560 631 632
f 560 632 633
f 560 633 634
f 560 634 635
f 560 635 636
f 560 636 574
f 560 574 573
f 560 573 562
f 562 573 563
f 567 587 637
f 567 637 638
f 567 638 568
f 568 638 639
f 568 639 640
f 568 640 569
f 569 641 642
f 569 642 570
f 569 640 641
f 574 636 635
f 574 635 643
f 574 643 644
f 574 644 645
f 574 645 575
f 575 645 581
f 576 578 577
f 581 645 582
f 582 644 646
f 582 646 647
f 582 647 648
f 582 648 649
f 582 649 650
f 582 650 583
f 582 645 644
f 583 650 584
f 584 650 585
f 585 650 586
f 586 651 652
f 586 652 653
f 586 653 587
f 586 650 654
f 586 654 655
f 586 655 651
f 587 653 638
f 587 638 637
f 589 656 657
f 589 657 658
f 589 658 659
f 589 659 590
f 590 659 591
f 591 659 660
f 591 660 661
f 591 661 662
f 591 662 593
f 593 662 594
f 594 663 664
f 594 664 665
f 594 665 595
f 594 662 661
f 594 661 660
f 594 660 663
f 595 665 666
f 595 666 596
f 596 666 599
f 596 599 597
f 599 666 665
f 599 665 667
f 599 667 668
f 599 668 669
f 599 669 609
f 600 602 601
f 600 612 613
f 602 621 604
f 602 604 603
f 604 621 620
f 605 619 606
f 606 619 608
f 606 608 607
f 608 619 618
f 608 618 617
f 609 669 625
f 609 623 610
f 610 624 614
f 610 614 612
f 610 612 611
f 612 614 613
f 614 624 622
f 614 622 615
f 625 627 626
f 625 669 670
f 625 670 671
f 625 671 672
f 625 672 628
f 625 628 627
f 628 672 629
f 629 672 673
f 629 673 630
f 630 674 631
f 630 673 675
f 630 675 674
f 631 674 676
f 631 676 634
f 631 634 632
f 632 634 633
f 634 676 677
f 634 677 635
f 635 677 643
f 638 640 639
f 638 653 678
f 638 678 640
f 640 679 680
f 640 680 681
f 640 681 682
f 640 682 683
f 640 683 684
f 640 684 641
f 640 678 679
f 643 677 644
f 644 677 685
f 644 685 646
f 646 685 647
f 647 685 686
f 647 686 687
f 647 687 648
f 648 687 688
f 648 688 689
f 648 689 650
f 648 650 649
f 650 689 690
f 650 690 654
f 651 655 694
f 651 694 691
f 651 691 692
f 651 678 652
f 652 678 653
f 654 690 693
f 654 693 694
f 654 694 655
f 656 695 657
f 657 695 658
f 658 695 696
f 658 696 659
f 659 663 660
f 659 696 697
f 659 697 698
f 659 698 699
f 659 699 700
f 659 700 701
f 659 701 663
f 663 701 702
f 663 702 703
f 663 703 664
f 664 667 665
f 664 703 704
f 664 704 669
f 664 669 667
f 667 669 668
f 669 704 705
f 669 705 670
f 670 705 671
f 671 705 706
f 671 706 707
f 671 707 708
f 671 708 672
f 672 709 673
f 672 708 709
f 673 709 710
f 673 710 675
f 674 711 712
f 674 712 713
f 674 713 676
f 674 675 711
f 675 710 714
f 675 714 711
f 676 713 715
f 676 715 716
f 676 716 677
f 677 716 685
f 685 716 717
f 685 717 686
f 686 717 718
f 686 718 719
f 686 719 687
f 687 719 720
f 687 720 688
f 688 720 693
f 688 693 690
f 688 690 689
f 691 721 692
f 691 694 719
f 691 719 718
f 691 718 735
f 691 735 714
f 691 714 732
f 691 732 740
f 691 740 738
f 691 738 724
f 691 724 736
f 691 736 721
f 693 720 694
f 694 720 719
f 696 722 723
f 696 723 697
f 697 723 724
f 697 724 725
f 697 725 698
f 698 725 726
f 698 726 727
f 698 727 699
f 699 727 701
f 699 701 700
f 701 727 728
f 701 728 702
f 702 728 729
f 702 729 703
f 703 729 730
f 703 730 704
f 704 730 706
f 704 706 705
f 706 730 731
f 706 731 707
f 707 732 708
f 707 731 732
f 708 732 709
f 709 714 710
f 709 732 714
f 711 714 735
f 711 735 733
f 711 733 712
f 712 734 713
f 712 733 717
f 712 717 734
f 713 734 715
f 715 734 716
f 716 734 717
f 717 733 718
f 718 733 735
f 722 737 723
f 723 737 724
f 724 737 736
f 724 738 739
f 724 739 725
f 725 739 726
f 726 739 728
f 726 728 727
f 728 739 729
f 729 738 740
f 729 740 730
f 729 739 738
f 730 740 731
f 731 740 732

