# https://github.com/mikedh/trimesh
v 0.00102588 0.01277913 0.06946343
v 0.00102588 0.01408288 0.06903249
v -0.00233273 0.01277913 0.06946343
v 0.00102588 0.01159527 0.06946343
v -0.00082060 0.01408288 0.06903249
v 0.00102588 0.07162756 0.02292254
v -0.00233273 0.01403792 0.06903249
v -0.00385246 0.01277913 0.06942595
v -0.00688433 0.01126559 0.06943532
v -0.00839647 0.00975204 0.06946343
v -0.00082060 -0.01296612 0.06946343
v 0.00102588 -0.01296612 0.06945406
v 0.00102588 0.07269154 0.02166721
v 0.00069914 0.07272151 0.02169531
v -0.00015191 0.07273649 0.02170468
v -0.02287193 0.06663736 0.02618265
v -0.00385246 0.01390305 0.06898565
v -0.00536460 0.01277913 0.06920112
v -0.00847245 0.01135550 0.06909807
v -0.01002258 0.00985694 0.06911680
v -0.00991620 0.00823850 0.06946343
v -0.00233273 -0.01296612 0.06946343
v 0.00069914 -0.01419493 0.06903249
v 0.00102588 -0.01394018 0.06911680
v 0.00102588 0.07583851 0.01650537
v -0.02809981 0.06982929 0.01751713
v -0.02908004 0.06973937 0.01724545
v -0.02507554 0.06675724 0.02492732
v -0.02593419 0.06665234 0.02473059
v -0.04721806 0.05147194 0.02618265
v -0.00801653 0.01225464 0.06885450
v -0.00536460 0.01367827 0.06877956
v -0.00673236 0.01276415 0.06892944
v -0.00959706 0.01090594 0.06889197
v -0.01104840 0.00943735 0.06889197
v -0.01150432 0.00829844 0.06909807
v -0.01142833 0.00672495 0.06942595
v -0.01294807 0.00216933 0.06946343
v -0.00688433 -0.01145257 0.06939785
v -0.00385246 -0.01296612 0.06936975
v -0.00233273 -0.01414998 0.06902312
v -0.00082060 -0.01419493 0.06903249
v -0.00839647 -0.00993903 0.06946343
v 0.00102588 -0.01417995 0.06903249
v -0.01901180 -0.06859264 0.02499290
v 0.00102588 0.07622814 0.01480037
v 0.00069914 0.07624312 0.01480037
v 0.00084351 0.07588347 0.01626180
v -0.02809981 0.07027886 0.01631800
v -0.02959675 0.06994917 0.01630864
v -0.03056938 0.06976935 0.01580276
v -0.03066816 0.06675724 0.02040251
v -0.02911803 0.06672727 0.02184520
v -0.02752991 0.06668231 0.02329726
v -0.04888216 0.05168173 0.02506784
v -0.05046268 0.05027309 0.02493669
v -0.01241616 0.00783389 0.06884513
v -0.01270491 0.00672495 0.06899502
v -0.01294807 0.00368288 0.06941659
v -0.01420185 0.00216933 0.06903249
v -0.01426264 0.00065579 0.06903249
v -0.01294807 -0.00235631 0.06946343
v -0.00843446 -0.01152750 0.06906996
v -0.00688433 -0.01265142 0.06896691
v -0.00385246 -0.01400012 0.06892944
v -0.02131420 -0.06683932 0.02618265
v -0.00991620 -0.00842548 0.06946343
v -0.00999219 -0.01001395 0.06911680
v -0.01785681 -0.06860762 0.02491795
v 0.00102588 -0.06318284 0.02619202
v -0.02000723 -0.06839782 0.02484301
v -0.01853309 -0.07305835 0.01735787
v -0.01705895 -0.06997131 0.02330663
v -0.01651944 -0.06997131 0.02330663
v 0.00102588 0.07624312 0.01448185
v 0.00069914 0.07630306 0.01329210
v -0.00082060 0.07621315 0.01329210
v -0.02317587 0.07273649 0.00983526
v -0.02730955 0.07111805 0.01401344
v -0.02961954 0.07029384 0.01480037
v -0.03075934 0.06984427 0.01480037
v -0.05184564 0.05616243 0.01025682
v -0.05324380 0.05457395 0.01290800
v -0.05464195 0.05297050 0.01559666
v -0.05426962 0.05273073 0.01660842
v -0.05488511 0.05171171 0.01732040
v -0.05180765 0.05006329 0.02342842
v -0.06549285 0.02753994 0.02508658
v -0.01387511 0.00489671 0.06882639
v -0.06600196 0.02631112 0.02515215
v -0.01404987 0.00368288 0.06898565
v -0.06982408 -0.00006352 0.02618265
v -0.06982408 -0.00027332 0.02618265
v -0.01422465 -0.00084277 0.06903249
v -0.01415626 -0.00235631 0.06903249
v -0.01294807 -0.00386986 0.06940722
v -0.00953627 -0.01106294 0.06888260
v -0.00795574 -0.01238168 0.06880766
v -0.00493907 -0.01385027 0.06877019
v -0.04567552 -0.05482088 0.02484301
v -0.04433816 -0.05657419 0.02358768
v -0.04281083 -0.05954134 0.02052430
v -0.01148153 -0.00844047 0.06907933
v -0.01142833 -0.00691193 0.06940722
v -0.01101041 -0.00956438 0.06889197
v 0.00102588 -0.06387218 0.02540509
v -0.04572112 -0.06089004 0.01591517
v -0.01902700 -0.07323817 0.01629927
v -0.01749207 -0.07370273 0.01631800
v -0.04417099 -0.06232866 0.01421017
v -0.01556201 -0.07154480 0.02059924
v -0.01446020 -0.07161973 0.02058051
v 0.00102588 0.07628808 0.01329210
v -0.00082060 0.07649788 -0.01247964
v -0.00385246 0.07643794 -0.00945373
v -0.00536460 0.07639298 -0.00793609
v -0.00688433 0.07631806 -0.00793609
v -0.00991620 0.07589845 -0.00490082
v -0.01094202 0.07573361 -0.00370170
v -0.01597994 0.07486445 0.00116036
v -0.01749207 0.07450480 0.00267800
v -0.01848750 0.07423505 0.00380218
v -0.02344183 0.07282641 0.00873918
v -0.02658768 0.07161258 0.01177446
v -0.02750711 0.07120796 0.01300169
v -0.02761349 0.07125292 0.01177446
v -0.03085813 0.06984427 0.01329210
v -0.03161799 0.06943966 0.01329210
v -0.04440655 0.06233649 0.00116036
v -0.04505243 0.06175205 0.00267800
v -0.04683052 0.06040335 0.00419564
v -0.04853262 0.05900969 0.00633157
v -0.05020433 0.05758606 0.00836446
v -0.05031071 0.05767597 0.00722155
v -0.05195203 0.05629730 0.00873918
v -0.05260551 0.05559297 0.01025682
v -0.05339577 0.05470883 0.01177446
v -0.05473314 0.05306041 0.01480037
v -0.05621487 0.05151689 0.01569034
v -0.05526504 0.05211632 0.01614938
v -0.05493830 0.04866963 0.02049619
v -0.07145780 0.02593649 0.01604633
v -0.06678462 0.02572669 0.02469312
v -0.07131342 -0.00153211 0.02470248
v -0.07135142 -0.00235631 0.02475869
v -0.07135142 -0.00386986 0.02473996
v -0.01402708 -0.00386986 0.06897628
v -0.01294807 -0.00539839 0.06919175
v -0.04622263 -0.05380186 0.02520836
v -0.04710407 -0.05323241 0.02493669
v -0.04694450 -0.05907679 0.01690820
v -0.04633661 -0.06002088 0.01641169
v -0.01290248 -0.00676208 0.06890134
v -0.01237057 -0.00794594 0.06881703
v -0.06381354 -0.03214768 0.02479617
v -0.01142833 -0.07299840 0.01738597
v 0.00102588 -0.07313327 0.01184940
v -0.04720286 -0.05940647 0.01589644
v -0.04663296 -0.06033557 0.01480037
v -0.04587309 -0.06100993 0.01480037
v -0.02026558 -0.07310330 0.01480037
v -0.01901180 -0.07358284 0.01480037
v -0.01743128 -0.07413731 0.01491278
v -0.01689178 -0.07442203 0.01448185
v -0.01597994 -0.07455690 0.01465048
v -0.01597994 -0.07422722 0.01540930
v -0.04597187 -0.06108485 0.01329210
v -0.04493086 -0.06183414 0.01329210
v -0.04417099 -0.06234364 0.01329210
v -0.03983975 -0.06552059 -0.00793609
v -0.03692186 -0.06707909 -0.00490082
v -0.03395838 -0.06862261 -0.00186554
v -0.03096451 -0.07009120 0.00116036
v -0.02743113 -0.07137996 0.00534792
v -0.02642810 -0.07163471 0.00722155
v -0.02295551 -0.07290849 0.00992894
v -0.02276555 -0.07280359 0.01094070
v -0.02152696 -0.07295344 0.01301105
v -0.02126861 -0.07283356 0.01401344
v -0.01258333 -0.07302837 0.01747965
v 0.00102588 0.07631806 -0.01246090
v 0.00069914 0.07640796 -0.01247964
v -0.00082060 0.07648290 -0.01399728
v -0.00233273 0.07646790 -0.01247964
v -0.00385246 0.07643794 -0.01096200
v -0.00536460 0.07639298 -0.00945373
v -0.00688433 0.07624312 -0.00945373
v -0.00839647 0.07609327 -0.00793609
v -0.01095722 0.07574861 -0.00490082
v -0.01597994 0.07487943 -0.00035727
v -0.01749207 0.07453477 0.00116036
v -0.01857108 0.07428001 0.00267800
v -0.02204367 0.07323102 0.00722155
v -0.02351781 0.07285638 0.00722155
v -0.02427768 0.07261661 0.00722155
v -0.02658768 0.07170249 0.01025682
v -0.02762869 0.07128289 0.01025682
v -0.03190674 0.06963448 -0.01455937
v -0.03498420 0.06815090 -0.00945373
v -0.03711943 0.06701200 -0.00793609
v -0.03713462 0.06696704 -0.00641846
v -0.03788689 0.06656243 -0.00641846
v -0.03990814 0.06534860 -0.00490082
v -0.04255247 0.06359528 -0.00035727
v -0.04251448 0.06358030 0.00045775
v -0.04442175 0.06233649 -0.00035727
v -0.04620743 0.06103275 0.00116036
v -0.04693690 0.06046329 0.00267800
v -0.04618463 0.06098779 0.00267800
v -0.04259806 0.06362525 -0.00186554
v -0.04262086 0.06365522 -0.00338318
v -0.04780315 0.05974398 0.00419564
v -0.04862381 0.05905465 0.00531982
v -0.05034111 0.05773591 0.00571328
v -0.04869219 0.05911459 0.00419564
v -0.05271189 0.05556300 0.00873918
v -0.05345656 0.05482871 0.01025682
v -0.05717231 0.05096243 -0.01247964
v -0.05415564 0.05401949 0.01177446
v -0.05486991 0.05318030 0.01329210
v -0.05630606 0.05160681 0.01480037
v -0.05769661 0.04998836 0.01411649
v -0.07127543 0.02713533 0.01388229
v -0.07157178 0.02620623 0.01480037
v -0.07216447 0.02491746 0.01480037
v -0.07169336 0.02491746 0.01628990
v -0.07126783 0.02491746 0.01704872
v -0.06986208 0.02274455 0.02031820
v -0.07565986 -0.00539839 0.01667399
v -0.07293194 0.02293937 0.01425701
v -0.07597141 -0.00691193 0.01593391
v -0.07132102 -0.00466410 0.02467438
v -0.06376035 -0.02903067 0.02618265
v -0.01382192 -0.00539839 0.06876082
v -0.06647308 -0.03632866 0.01698314
v -0.06685301 -0.03670329 0.01597138
v -0.01370034 -0.00614767 0.06861093
v -0.06681502 -0.03532462 0.01723608
v -0.06399591 -0.03115863 0.02506784
v -0.01479455 -0.07457189 0.01441627
v 0.00102588 -0.07568082 0.00688429
v 0.00102588 -0.07554595 0.00721218
v 0.00102588 -0.07547102 0.00739017
v 0.00102588 -0.07487160 0.00877666
v 0.00102588 -0.07472174 0.00910454
v 0.00102588 -0.07455690 0.00946053
v 0.00102588 -0.07433212 0.00990083
v 0.00102588 -0.07404739 0.01041608
v -0.04739282 -0.05957131 0.01480037
v -0.06640469 -0.03766237 0.01480037
v -0.04673174 -0.06045546 0.01329210
v -0.04832746 -0.05894192 0.01329210
v -0.04845664 -0.05910676 0.01177446
v -0.02066831 -0.07322318 0.01342325
v -0.02182331 -0.07305835 0.01177446
v -0.02217285 -0.07313327 0.01035987
v -0.01708934 -0.07446699 0.01329210
v -0.01597994 -0.07470676 0.01329210
v 0.00102588 -0.07644509 0.00300589
v 0.00102588 -0.07623529 0.00451416
v 0.00102588 -0.07596555 0.00601306
v -0.04431536 -0.06246353 -0.01247964
v -0.04853262 -0.05918168 0.01025682
v -0.04248409 -0.06373730 -0.01096200
v -0.04055402 -0.06501108 -0.00945373
v -0.03980175 -0.06546065 -0.00945373
v -0.03698265 -0.06703414 -0.00641846
v -0.03399637 -0.06856267 -0.00338318
v -0.03101010 -0.07006122 -0.00035727
v -0.02750711 -0.07139494 0.00419564
v -0.02310749 -0.07296843 0.00873918
v 0.00102588 0.07627310 -0.01280752
v 0.00075233 0.07616819 -0.01405348
v -0.00233273 0.07636300 -0.01399728
v -0.00082060 0.07607827 -0.01556175
v -0.00195280 0.07582353 -0.01645173
v -0.00240872 0.07600335 -0.01558986
v -0.00385246 0.07633304 -0.01247964
v -0.00695272 0.07595839 -0.01103695
v -0.00844966 0.07591343 -0.00946310
v -0.00964265 0.07582353 -0.00793609
v -0.01079005 0.07571863 -0.00601563
v -0.03190674 0.06963448 -0.01478420
v -0.03496900 0.06813592 -0.01096200
v -0.03574407 0.06774629 -0.00945373
v -0.03705864 0.06698202 -0.00945373
v -0.03787169 0.06654744 -0.00793609
v -0.03870755 0.06608289 -0.00641846
v -0.03493861 0.06812093 -0.01179576
v -0.04066801 0.06489903 -0.00490082
v -0.04696730 0.06047828 0.00116036
v -0.04258287 0.06362525 -0.00454483
v -0.04439135 0.06235148 -0.00186554
v -0.04868459 0.05912957 0.00267800
v -0.05641244 0.05166675 -0.01247964
v -0.05790178 0.05021315 -0.01247964
v -0.05491550 0.05327021 0.01177446
v -0.05638965 0.05163678 -0.01399728
v -0.05714191 0.05088750 -0.01399728
v -0.05562978 0.05244600 0.01329210
v -0.05637445 0.05168173 0.01329210
v -0.06070569 0.04691632 -0.00848881
v -0.06198986 0.04510306 -0.00641846
v -0.06377555 0.04242064 -0.00338318
v -0.06375275 0.04239067 -0.00237142
v -0.06498374 0.04047251 -0.00035727
v -0.06547765 0.03964831 0.00116036
v -0.06617673 0.03855436 0.00116036
v -0.06663265 0.03759528 0.00267800
v -0.06702018 0.03671113 0.00419564
v -0.06816758 0.03459816 0.00571328
v -0.06968731 0.03157107 0.00873918
v -0.07001405 0.03062698 0.01025682
v -0.06990767 0.03040219 0.01139037
v -0.07060675 0.02945810 0.01025682
v -0.07133622 0.02727020 0.01287053
v -0.07228605 0.02491746 0.01329210
v -0.07138941 0.02739009 0.01177446
v -0.07594102 -0.00539839 0.01591517
v -0.07270398 0.02371862 0.01329210
v -0.07341826 0.02187539 -0.01096200
v -0.07439848 0.01833879 -0.00793609
v -0.07499118 0.01582121 -0.00641846
v -0.07588782 0.01077106 -0.00186554
v -0.07586503 0.01059124 -0.00097557
v -0.07640454 0.00519642 0.00419564
v -0.07648052 0.00368288 0.00571328
v -0.07643492 0.00216933 0.00722155
v -0.07638173 0.00065579 0.00873918
v -0.07632094 -0.00084277 0.01025682
v -0.07626015 -0.00235631 0.01177446
v -0.07619177 -0.00386986 0.01329210
v -0.07612338 -0.00539839 0.01480037
v -0.07615378 -0.00691193 0.01480037
v -0.07592582 -0.00778110 0.01568097
v -0.07294714 -0.00842548 0.02042125
v -0.06738492 -0.03571424 0.01480037
v -0.06693659 -0.03691309 0.01480037
v -0.06700498 -0.03578917 0.01641169
v -0.07287115 -0.00924969 0.02017768
v -0.04899614 -0.05819264 0.01329210
v -0.04995357 -0.05754826 0.01177446
v -0.06657945 -0.03772231 0.01329210
v -0.06582719 -0.03871136 0.01329210
v -0.05319821 -0.05476093 0.00833636
v -0.05164048 -0.05622952 0.00967600
v -0.05004476 -0.05766814 0.01087512
v -0.05015114 -0.05775805 0.00986336
v -0.05022713 -0.05783298 0.00873918
v -0.02204367 -0.07329811 0.00873918
v -0.01446020 -0.07518630 -0.01247964
v -0.01294807 -0.07547102 -0.01096200
v -0.01067607 -0.07589062 -0.00866681
v -0.00997699 -0.07598053 -0.00806725
v -0.00839647 -0.07613039 -0.00641846
v -0.00688433 -0.07623529 -0.00490082
v -0.00536460 -0.07632521 -0.00338318
v -0.00385246 -0.07640013 -0.00186554
v -0.00082060 -0.07659494 -0.00035727
v -0.00082060 -0.07649004 0.00116036
v 0.00069914 -0.07646007 0.00267800
v 0.00102588 -0.07655000 0.00148825
v -0.04506763 -0.06186411 -0.01247964
v -0.04431536 -0.06243356 -0.01399728
v -0.04163304 -0.06409696 -0.01247964
v -0.04035646 -0.06496612 -0.01096200
v -0.03960419 -0.06534076 -0.01096200
v -0.03870755 -0.06594019 -0.00945373
v -0.03686107 -0.06694422 -0.00793609
v -0.01689938 -0.07445200 -0.01399728
v -0.01597994 -0.07479667 -0.01399728
v -0.02748432 -0.07137996 0.00267800
v -0.02658768 -0.07172463 0.00419564
v -0.02313028 -0.07296843 0.00722155
v 0.00102588 0.07610825 -0.01394107
v 0.00028881 0.07594341 -0.01509335
v -0.00132211 0.07582353 -0.01645173
v -0.00385246 0.07134284 -0.02438654
v -0.00535700 0.07099816 -0.02468632
v -0.00935390 0.07576359 -0.00897596
v -0.03037941 0.06659240 -0.02081728
v -0.03238546 0.06843563 -0.01659225
v -0.03339608 0.06810594 -0.01624563
v -0.03362404 0.06828577 -0.01523387
v -0.03388999 0.06843563 -0.01399728
v -0.03484743 0.06806099 -0.01280752
v -0.03780331 0.06648750 -0.00945373
v -0.03989294 0.06534860 -0.00641846
v -0.03688387 0.06692208 -0.01096200
v -0.04064521 0.06483909 -0.00641846
v -0.05779540 0.05012323 -0.01399728
v -0.05922395 0.04848980 -0.01198313
v -0.06070569 0.04691632 -0.00886354
v -0.05623767 0.05150191 -0.01483104
v -0.03973337 0.06528866 -0.00793609
v -0.03464986 0.06788116 -0.01399728
v -0.05769661 0.04998836 -0.01496220
v -0.06202026 0.04505810 -0.00793609
v -0.06251417 0.04433879 -0.00641846
v -0.06376795 0.04242064 -0.00490082
v -0.06501413 0.04048750 -0.00186554
v -0.06550045 0.03970825 -0.00035727
v -0.06623752 0.03855436 -0.00035727
v -0.06673143 0.03776012 -0.00035727
v -0.06669344 0.03770018 0.00116036
v -0.06708097 0.03684600 0.00267800
v -0.06822077 0.03468807 0.00419564
v -0.06974050 0.03164600 0.00722155
v -0.07010524 0.03080680 0.00873918
v -0.07072073 0.02945810 0.00873918
v -0.07113106 0.02827424 0.01025682
v -0.07177694 0.02643101 0.01177446
v -0.07141981 0.02750997 0.01025682
v -0.07230125 0.02491746 0.01177446
v -0.07301553 0.02320911 -0.01247964
v -0.07341826 0.02187539 -0.01247964
v -0.07437569 0.01829383 -0.00945373
v -0.07463404 0.01733475 -0.00793609
v -0.07495319 0.01582121 -0.00793609
v -0.07588023 0.01078605 -0.00296161
v -0.07599420 0.00975204 -0.00186554
v -0.07629816 0.00672495 0.00116036
v -0.07645012 0.00519642 0.00267800
v -0.07657170 0.00368288 0.00419564
v -0.07659450 0.00216933 0.00571328
v -0.07656410 0.00065579 0.00722155
v -0.07649572 -0.00084277 0.00873918
v -0.07642733 -0.00235631 0.01025682
v -0.07635134 -0.00386986 0.01177446
v -0.07627535 -0.00539839 0.01329210
v -0.07631335 -0.00539839 0.01177446
v -0.07618417 -0.00691193 0.01329210
v -0.07598660 -0.00808081 0.01480037
v -0.06825877 -0.03337649 0.01398534
v -0.06834995 -0.03364623 0.01298295
v -0.06842593 -0.03382606 0.01177446
v -0.06754449 -0.03571424 0.01329210
v -0.06812199 -0.03459033 0.01177446
v -0.06699738 -0.03695805 0.01329210
v -0.06607794 -0.03874133 -0.01247964
v -0.06547005 -0.03985027 -0.01247964
v -0.06375275 -0.04257765 -0.00945373
v -0.06335002 -0.04316209 -0.00781431
v -0.06249137 -0.04445084 -0.00641846
v -0.06056891 -0.04690848 -0.00338318
v -0.05921635 -0.04864681 -0.00186554
v -0.05918595 -0.04861684 -0.00104115
v -0.05783339 -0.05032520 -0.00035727
v -0.05632886 -0.05185373 0.00267800
v -0.05327419 -0.05483586 0.00722155
v -0.05171647 -0.05630445 0.00873918
v -0.05098699 -0.05706872 0.00873918
v -0.05179245 -0.05637938 0.00722155
v -0.05180005 -0.05636439 0.00571328
v -0.04593388 -0.06109984 -0.01247964
v -0.01446020 -0.07509639 -0.01399728
v -0.01294807 -0.07538111 -0.01247964
v -0.01142833 -0.07566584 -0.01096200
v -0.01067607 -0.07589062 -0.00876049
v -0.00991620 -0.07595057 -0.00907901
v -0.00839647 -0.07613039 -0.00793609
v -0.00688433 -0.07625027 -0.00641846
v -0.00385246 -0.07643009 -0.00338318
v -0.00233273 -0.07652002 -0.00186554
v -0.00082060 -0.07650503 -0.00186554
v 0.00069914 -0.07650503 -0.00035727
v 0.00102588 -0.07655000 0.00116036
v 0.00069914 -0.07656498 0.00116036
v -0.04506763 -0.06169926 -0.01399728
v -0.04418619 -0.06232866 -0.01521513
v -0.03946742 -0.06526584 -0.01173019
v -0.04339592 -0.06265834 -0.01563670
v -0.01676260 -0.07439206 -0.01478420
v -0.01582796 -0.07449696 -0.01537439
v -0.01446020 -0.07476670 -0.01551491
v 0.00102588 0.07315609 -0.02003035
v 0.00030401 0.07288635 -0.02113579
v -0.00268987 0.07137281 -0.02418980
v -0.00536460 0.07027886 -0.02566997
v -0.00688433 0.07002410 -0.02564186
v -0.03077454 0.06536358 -0.02262532
v -0.03222588 0.06388001 -0.02427412
v -0.03494621 0.06206675 -0.02538892
v -0.05840329 0.04916416 -0.01399728
v -0.05958108 0.04775551 -0.01248901
v -0.06055371 0.04667655 -0.01096200
v -0.06064490 0.04682640 -0.00986593
v -0.06108562 0.04624196 -0.00939752
v -0.05768902 0.04845983 -0.01782885
v -0.05787139 0.04874456 -0.01703255
v -0.05804616 0.04925407 -0.01548681
v -0.06192907 0.04486329 -0.00945373
v -0.06245338 0.04430882 -0.00793609
v -0.06373755 0.04237568 -0.00581889
v -0.06550045 0.03972323 -0.00186554
v -0.06824357 0.03468807 0.00267800
v -0.06711896 0.03693591 0.00116036
v -0.07300033 0.02316415 -0.01399728
v -0.07271158 0.02397337 -0.01247964
v -0.07009764 0.03088173 0.00722155
v -0.07334227 0.02187539 -0.01399728
v -0.07435290 0.01817395 -0.01062475
v -0.07458085 0.01733475 -0.00945373
v -0.07483161 0.01582121 -0.00945373
v -0.07607019 0.00823850 -0.00186554
v -0.07511276 0.01429268 -0.00793609
v -0.07607019 -0.00695689 -0.01398791
v -0.07619177 -0.00691193 -0.01247964
v -0.07622976 0.00672495 -0.00035727
v -0.07614618 0.00823850 -0.00035727
v -0.07660210 0.00065579 0.00571328
v -0.07659450 -0.00084277 0.00722155
v -0.07653371 -0.00235631 0.00873918
v -0.07642733 -0.00386986 0.01025682
v -0.07615378 -0.00842548 -0.01247964
v -0.07599420 -0.00993903 -0.01096200
v -0.07588023 -0.01088312 -0.00945373
v -0.07575864 -0.01164738 -0.00945373
v -0.07551549 -0.01296612 -0.00793609
v -0.07525714 -0.01449465 -0.00793609
v -0.07496838 -0.01600819 -0.00641846
v -0.07464924 -0.01752174 -0.00490082
v -0.07440608 -0.01851078 -0.00338318
v -0.07438329 -0.01843586 -0.00239953
v -0.07287875 -0.02300646 0.00222833
v -0.07218727 -0.02510445 0.00419564
v -0.07178454 -0.02661799 0.00419564
v -0.07167056 -0.02661799 0.00571328
v -0.07133622 -0.02745718 0.00663135
v -0.06990767 -0.03072404 0.00873918
v -0.06961133 -0.03147332 0.00873918
v -0.07115385 -0.02850617 0.00419564
v -0.06964172 -0.03160819 0.00722155
v -0.06606274 -0.03874133 -0.01399728
v -0.06540167 -0.03970041 -0.01399728
v -0.06493055 -0.04059955 -0.01247964
v -0.06374515 -0.04256266 -0.01037181
v -0.06249897 -0.04443586 -0.00793609
v -0.06192147 -0.04520013 -0.00641846
v -0.06116161 -0.04617419 -0.00490082
v -0.05920875 -0.04864681 -0.00301782
v -0.05780300 -0.05025027 -0.00186554
v -0.05709632 -0.05107448 -0.00035727
v -0.05640484 -0.05188370 0.00116036
v -0.05485471 -0.05338226 0.00419564
v -0.05255232 -0.05560013 0.00722155
v -0.05332738 -0.05488082 0.00571328
v -0.05410245 -0.05414653 0.00419564
v -0.05255992 -0.05564508 0.00571328
v -0.05488511 -0.05339724 0.00267800
v -0.05915556 -0.04858687 -0.00402021
v -0.05910237 -0.04852693 -0.00490082
v -0.06050052 -0.04687851 -0.00641846
v -0.06111602 -0.04599436 -0.00793609
v -0.06244578 -0.04433096 -0.00945373
v -0.01294807 -0.07514134 -0.01399728
v -0.01294807 -0.07484163 -0.01551491
v -0.00991620 -0.07571080 -0.01096200
v -0.00839647 -0.07599553 -0.00927574
v -0.00688433 -0.07610043 -0.00793609
v -0.00536460 -0.07622031 -0.00641846
v -0.00385246 -0.07632521 -0.00490082
v -0.00536460 -0.07634019 -0.00490082
v -0.00233273 -0.07641511 -0.00338318
v -0.00082060 -0.07634019 -0.00338318
v 0.00069914 -0.07635517 -0.00186554
v 0.00102588 -0.07646007 -0.00035727
v 0.00102588 -0.07649004 -0.00002939
v -0.06233180 -0.04418110 -0.01069033
v -0.04298560 -0.06247852 -0.01670467
v -0.06219503 -0.04404624 -0.01170208
v -0.06402631 -0.04136382 -0.01399728
v -0.06386673 -0.04118399 -0.01510272
v -0.06453541 -0.04026987 -0.01558986
v -0.06415548 -0.03991021 -0.01703255
v -0.05785619 -0.04115402 -0.02555755
v -0.04135948 -0.06393212 -0.01399728
v -0.01522007 -0.07436209 -0.01627373
v -0.01446020 -0.07446699 -0.01648920
v -0.01294807 -0.07451195 -0.01661099
v 0.00102588 0.07219701 -0.02083602
v 0.00102588 0.07189730 -0.02099528
v 0.00057756 0.07189730 -0.02139810
v -0.00167925 0.07077338 -0.02375888
v -0.00224155 0.07032381 -0.02436780
v -0.00312299 0.06946963 -0.02535145
v -0.00371569 0.07050364 -0.02518283
v -0.00413362 0.07008404 -0.02550134
v -0.00536460 0.06887021 -0.02599786
v -0.00688433 0.06887021 -0.02606343
v -0.03416355 0.06128750 -0.02589481
v -0.03416355 0.06226156 -0.02552945
v -0.05617688 0.04390421 -0.02539829
v -0.05483952 0.04723101 -0.02269090
v -0.05471034 0.04857972 -0.02104211
v -0.06101723 0.04591228 -0.01096200
v -0.07273438 0.02250479 -0.01622689
v -0.07293194 0.02293937 -0.01521513
v -0.05947470 0.04739586 -0.01399728
v -0.07302313 0.02195032 -0.01563670
v -0.07430730 0.01790421 -0.01163651
v -0.07594102 -0.00749637 -0.01491535
v -0.07596381 -0.00842548 -0.01509335
v -0.07611578 -0.00842548 -0.01399728
v -0.07594861 -0.01004392 -0.01245154
v -0.07588023 -0.01085315 -0.01096200
v -0.07551549 -0.01296612 -0.00945373
v -0.07494559 -0.01600819 -0.00793609
v -0.07464164 -0.01752174 -0.00641846
v -0.07440608 -0.01849580 -0.00490082
v -0.07179974 -0.02661799 0.00267800
v -0.07142741 -0.02774191 0.00419564
v -0.07138181 -0.02759205 0.00571328
v -0.07109306 -0.02835632 0.00571328
v -0.07142741 -0.02769695 0.00267800
v -0.06660225 -0.03761742 -0.01247964
v -0.06560682 -0.03874133 -0.01535565
v -0.06529528 -0.03958053 -0.01507461
v -0.06687580 -0.03682318 -0.01345393
v -0.07591062 -0.00939954 -0.01504651
v -0.07557628 -0.00992404 -0.01553365
v -0.06366157 -0.04245776 -0.01138357
v -0.06186828 -0.04520013 -0.00793609
v -0.06056131 -0.04692347 -0.00490082
v -0.01142833 -0.07542607 -0.01247964
v -0.00991620 -0.07499148 -0.01399728
v -0.01142833 -0.07512636 -0.01399728
v -0.00991620 -0.07541108 -0.01247964
v -0.00839647 -0.07568082 -0.01096200
v -0.00688433 -0.07581569 -0.00977225
v -0.00588891 -0.07590561 -0.00879796
v -0.00537220 -0.07599553 -0.00801104
v -0.00385246 -0.07613039 -0.00641846
v -0.00233273 -0.07623529 -0.00490082
v -0.00241632 -0.07601051 -0.00639972
v -0.00079020 -0.07607045 -0.00495703
v 0.00028881 -0.07599553 -0.00449799
v 0.00075233 -0.07610043 -0.00343002
v 0.00102588 -0.07610043 -0.00314898
v 0.00102588 -0.07629523 -0.00187491
v 0.00102588 -0.07634019 -0.00154703
v -0.06354759 -0.04233788 -0.01247964
v -0.04275764 -0.05931656 -0.02110769
v -0.04132909 -0.05939148 -0.02269090
v -0.03984735 -0.05946641 -0.02421791
v -0.03675469 -0.06089004 -0.02555755
v -0.06374515 -0.03649350 -0.02084539
v -0.06383634 -0.03961050 -0.01788505
v -0.05923915 -0.03959551 -0.02542640
v -0.05838050 -0.04016496 -0.02564186
v -0.05689876 -0.04025488 -0.02605406
v -0.01551642 -0.07146987 -0.02105148
v -0.00991620 -0.07010618 -0.02561376
v -0.00839647 -0.07013615 -0.02566997
v -0.01186906 -0.07443702 -0.01643299
v 0.00102588 0.05370479 -0.02601659
v 0.00102588 0.05219124 -0.02620396
v -0.00688433 0.06735667 -0.02621332
v -0.03416355 0.05977395 -0.02615711
v -0.05537902 0.04158144 -0.02612901
v -0.05537902 0.04309499 -0.02579175
v -0.05642004 0.04309499 -0.02558565
v -0.06980889 0.02269960 -0.02086412
v -0.06858551 0.01733475 -0.02556692
v -0.06877547 0.01582121 -0.02573555
v -0.07284836 0.02148577 -0.01635805
v -0.06933017 0.01582121 -0.02461137
v -0.07289395 -0.00743643 -0.02094844
v -0.07289395 -0.00782606 -0.02094844
v -0.07437569 -0.01079320 -0.01785695
v -0.07594861 -0.00966928 -0.01399728
v -0.07585742 -0.01074825 -0.01192692
v -0.07572825 -0.01160243 -0.01096200
v -0.07519635 -0.01449465 -0.00945373
v -0.07454286 -0.01755171 -0.00787988
v -0.07437569 -0.01837591 -0.00734590
v -0.07439848 -0.01846583 -0.00641846
v -0.07290915 -0.02309638 -0.00186554
v -0.06984688 -0.01382029 -0.02546387
v -0.07447447 -0.01707217 -0.00911648
v -0.07583463 -0.01062836 -0.01293868
v -0.00991620 -0.07455690 -0.01515892
v -0.00839647 -0.07527621 -0.01247964
v -0.00688433 -0.07551598 -0.01096200
v -0.00487828 -0.07586065 -0.00857313
v -0.00385246 -0.07595057 -0.00752389
v -0.00297862 -0.07590561 -0.00726159
v -0.00127652 -0.07595057 -0.00588447
v -0.00026589 -0.07583068 -0.00550975
v 0.00102588 -0.07574077 -0.00446988
v 0.00102588 -0.07596555 -0.00369233
v 0.00102588 -0.07607045 -0.00329887
v -0.03723341 -0.05997592 -0.02567934
v -0.03568328 -0.05996093 -0.02596975
v -0.01088883 -0.06995633 -0.02546387
v -0.06085006 -0.03815689 -0.02403054
v -0.06902623 -0.01296612 -0.02590417
v -0.05537902 -0.04025488 -0.02615711
v -0.03416355 -0.05844739 -0.02620396
v -0.06750649 -0.01296612 -0.02610091
v -0.06599436 -0.01449465 -0.02618522
v -0.00839647 -0.06905719 -0.02604470
v -0.00745423 -0.06998630 -0.02553881
v -0.00082060 0.04462352 -0.02621332
v 0.00102588 -0.04481050 -0.02621332
v -0.03416355 0.05826041 -0.02620396
v -0.00688433 -0.05542030 -0.02622269
v -0.03416355 0.05219124 -0.02621332
v -0.05537902 0.04006790 -0.02616648
v -0.06599436 0.01429268 -0.02621332
v -0.06750649 0.01582121 -0.02608217
v -0.05661761 0.04158144 -0.02577302
v -0.06838034 0.01821890 -0.02543576
v -0.06994567 -0.01296612 -0.02553881
v -0.06993047 -0.01145257 -0.02549197
v -0.00536460 -0.07514134 -0.01096200
v -0.00385246 -0.07533615 -0.00945373
v -0.00385246 -0.07575575 -0.00828271
v -0.00196800 -0.07578572 -0.00689623
v 0.00044078 -0.07461685 -0.00766442
v 0.00084351 -0.07493154 -0.00656835
v 0.00102588 -0.07554595 -0.00494766
v -0.00241632 -0.07556094 -0.00783305
v -0.00079020 -0.07563587 -0.00639972
v -0.05386689 -0.03874133 -0.02621332
v -0.05386689 -0.04025488 -0.02619459
v -0.00688433 -0.06603010 -0.02620396
v -0.00688433 -0.06754364 -0.02613838
v -0.00839647 -0.06754364 -0.02611964
v -0.06447463 -0.01449465 -0.02620396
v -0.00692233 -0.06902722 -0.02575428
v -0.00590410 -0.06850272 -0.02555755
v 0.00102588 -0.07325316 -0.00928510
v 0.00102588 -0.07407736 -0.00805788
v 0.00102588 -0.07422722 -0.00781431
v 0.00102588 -0.07476670 -0.00673697
v 0.00102588 -0.05844739 -0.02621332
v -0.05386689 0.03855436 -0.02620396
v 0.00102588 -0.07494653 -0.00635288
v 0.00069914 -0.05996093 -0.02620396
v -0.00233273 -0.06300301 -0.02618522
v -0.00536460 -0.06603010 -0.02615711
v -0.00079020 -0.06303298 -0.02583860
v -0.00231753 -0.06453154 -0.02581986
v -0.00538740 -0.06752866 -0.02578239
v -0.00281905 -0.06553558 -0.02559502
v 0.00027361 -0.06255344 -0.02562313
v 0.00102588 -0.06141454 -0.02579175
v 0.00102588 -0.05997592 -0.02613838
v 0.00074473 -0.06153442 -0.02584796
f 1 2 5
f 1 5 3
f 1 3 10
f 1 10 21
f 1 21 38
f 1 38 62
f 1 62 67
f 1 67 43
f 1 43 22
f 1 22 11
f 1 11 4
f 1 4 12
f 1 12 24
f 1 24 44
f 1 44 70
f 1 70 106
f 1 106 157
f 1 157 248
f 1 248 247
f 1 247 246
f 1 246 245
f 1 245 244
f 1 244 243
f 1 243 242
f 1 242 241
f 1 241 261
f 1 261 260
f 1 260 259
f 1 259 362
f 1 362 467
f 1 467 568
f 1 568 567
f 1 567 641
f 1 641 640
f 1 640 639
f 1 639 692
f 1 692 691
f 1 691 690
f 1 690 722
f 1 722 739
f 1 739 736
f 1 736 735
f 1 735 734
f 1 734 733
f 1 733 748
f 1 748 749
f 1 749 737
f 1 737 705
f 1 705 657
f 1 657 656
f 1 656 582
f 1 582 581
f 1 581 476
f 1 476 375
f 1 375 272
f 1 272 181
f 1 181 113
f 1 113 75
f 1 75 46
f 1 46 25
f 1 25 13
f 1 13 6
f 1 6 2
f 2 6 5
f 3 5 7
f 3 7 8
f 3 8 9
f 3 9 10
f 4 11 12
f 5 6 7
f 6 13 14
f 6 14 15
f 6 15 16
f 6 16 7
f 7 17 8
f 7 16 17
f 8 17 18
f 8 18 9
f 9 19 20
f 9 20 10
f 9 18 19
f 10 20 21
f 11 22 42
f 11 42 23
f 11 23 12
f 12 23 24
f 13 25 14
f 14 25 15
f 15 25 16
f 16 25 26
f 16 26 27
f 16 27 28
f 16 28 29
f 16 29 30
f 16 30 31
f 16 31 32
f 16 32 17
f 17 32 33
f 17 33 18
f 18 33 19
f 19 34 20
f 19 33 31
f 19 31 34
f 20 35 36
f 20 36 21
f 20 34 35
f 21 36 37
f 21 37 38
f 22 39 40
f 22 40 41
f 22 41 42
f 22 43 39
f 23 44 24
f 23 42 45
f 23 45 44
f 25 46 47
f 25 47 48
f 25 48 49
f 25 49 26
f 26 49 27
f 27 49 50
f 27 50 51
f 27 51 52
f 27 52 53
f 27 53 54
f 27 54 29
f 27 29 28
f 29 54 55
f 29 55 30
f 30 55 56
f 30 56 35
f 30 35 34
f 30 34 31
f 31 33 32
f 35 57 36
f 35 56 57
f 36 57 58
f 36 58 37
f 37 58 59
f 37 59 38
f 38 59 60
f 38 60 61
f 38 61 62
f 39 63 64
f 39 64 40
f 39 43 63
f 40 64 65
f 40 65 41
f 41 65 66
f 41 66 45
f 41 45 42
f 43 67 68
f 43 68 63
f 44 45 69
f 44 69 70
f 45 66 71
f 45 71 72
f 45 72 73
f 45 73 74
f 45 74 69
f 46 75 47
f 47 75 76
f 47 76 77
f 47 77 78
f 47 78 79
f 47 79 48
f 48 79 49
f 49 79 50
f 50 79 80
f 50 80 51
f 51 80 81
f 51 81 82
f 51 82 83
f 51 83 84
f 51 84 85
f 51 85 55
f 51 55 52
f 52 55 53
f 53 55 54
f 55 85 86
f 55 86 56
f 56 86 87
f 56 87 88
f 56 88 57
f 57 89 58
f 57 88 90
f 57 90 89
f 58 89 91
f 58 91 59
f 59 91 60
f 60 91 92
f 60 92 61
f 61 92 93
f 61 93 94
f 61 94 62
f 62 94 95
f 62 95 96
f 62 96 67
f 63 68 97
f 63 97 98
f 63 98 64
f 64 98 99
f 64 99 65
f 65 99 66
f 66 100 101
f 66 101 102
f 66 102 71
f 66 99 98
f 66 98 100
f 67 103 68
f 67 96 104
f 67 104 103
f 68 103 105
f 68 105 97
f 69 74 70
f 70 74 106
f 71 102 107
f 71 107 72
f 72 108 109
f 72 109 73
f 72 107 110
f 72 110 108
f 73 109 111
f 73 111 112
f 73 112 74
f 74 112 106
f 75 113 76
f 76 113 114
f 76 114 115
f 76 115 116
f 76 116 117
f 76 117 77
f 77 117 118
f 77 118 119
f 77 119 120
f 77 120 121
f 77 121 122
f 77 122 123
f 77 123 78
f 78 123 79
f 79 124 125
f 79 125 80
f 79 123 124
f 80 125 126
f 80 126 81
f 81 126 127
f 81 127 128
f 81 128 129
f 81 129 130
f 81 130 131
f 81 131 132
f 81 132 133
f 81 133 82
f 82 133 134
f 82 134 135
f 82 135 136
f 82 136 137
f 82 137 83
f 83 137 84
f 84 138 139
f 84 139 140
f 84 140 85
f 84 137 138
f 85 140 86
f 86 140 139
f 86 139 87
f 87 141 88
f 87 139 141
f 88 142 143
f 88 143 90
f 88 141 139
f 88 139 142
f 89 90 91
f 90 143 91
f 91 143 92
f 92 144 145
f 92 145 93
f 92 143 144
f 93 145 146
f 93 146 95
f 93 95 94
f 95 146 147
f 95 147 96
f 96 147 148
f 96 148 104
f 97 105 149
f 97 149 100
f 97 100 98
f 100 149 150
f 100 150 151
f 100 151 152
f 100 152 107
f 100 107 101
f 101 107 102
f 103 104 148
f 103 148 153
f 103 153 154
f 103 154 105
f 105 154 155
f 105 155 150
f 105 150 149
f 106 112 156
f 106 156 157
f 107 152 158
f 107 158 159
f 107 159 160
f 107 160 110
f 108 161 162
f 108 162 163
f 108 163 109
f 108 110 161
f 109 163 164
f 109 164 165
f 109 165 166
f 109 166 112
f 109 112 111
f 110 160 167
f 110 167 168
f 110 168 169
f 110 169 170
f 110 170 171
f 110 171 172
f 110 172 173
f 110 173 174
f 110 174 175
f 110 175 176
f 110 176 177
f 110 177 178
f 110 178 179
f 110 179 161
f 112 166 180
f 112 180 156
f 113 181 182
f 113 182 114
f 114 182 183
f 114 183 184
f 114 184 185
f 114 185 115
f 115 185 186
f 115 186 116
f 116 186 117
f 117 186 187
f 117 187 188
f 117 188 189
f 117 189 118
f 118 189 119
f 119 189 120
f 120 189 190
f 120 190 191
f 120 191 192
f 120 192 121
f 121 192 122
f 122 192 193
f 122 193 123
f 123 193 192
f 123 192 194
f 123 194 195
f 123 195 196
f 123 196 124
f 124 196 126
f 124 126 125
f 126 196 197
f 126 197 127
f 127 197 198
f 127 198 199
f 127 199 200
f 127 200 128
f 128 200 201
f 128 201 202
f 128 202 203
f 128 203 204
f 128 204 205
f 128 205 129
f 129 206 207
f 129 207 208
f 129 208 209
f 129 209 131
f 129 131 130
f 129 205 204
f 129 204 210
f 129 210 211
f 129 211 206
f 131 209 212
f 131 212 132
f 132 212 213
f 132 213 134
f 132 134 133
f 134 214 135
f 134 213 215
f 134 215 214
f 135 216 217
f 135 217 136
f 135 214 218
f 135 218 216
f 136 217 137
f 137 217 219
f 137 219 220
f 137 220 138
f 138 220 221
f 138 221 139
f 139 221 222
f 139 222 142
f 142 223 224
f 142 224 225
f 142 225 226
f 142 226 143
f 142 222 223
f 143 226 227
f 143 227 228
f 143 228 144
f 144 229 145
f 144 228 226
f 144 226 230
f 144 230 229
f 145 229 146
f 146 229 231
f 146 231 232
f 146 232 147
f 147 232 233
f 147 233 234
f 147 234 148
f 148 234 153
f 150 155 235
f 150 235 236
f 150 236 151
f 151 158 152
f 151 236 158
f 153 234 237
f 153 237 154
f 154 237 233
f 154 233 155
f 155 238 235
f 155 233 239
f 155 239 238
f 156 180 166
f 156 166 240
f 156 240 241
f 156 241 242
f 156 242 243
f 156 243 244
f 156 244 245
f 156 245 246
f 156 246 247
f 156 247 248
f 156 248 157
f 158 249 159
f 158 236 250
f 158 250 249
f 159 251 160
f 159 249 252
f 159 252 253
f 159 253 251
f 160 251 167
f 161 179 178
f 161 178 254
f 161 254 162
f 162 254 164
f 162 164 163
f 164 254 255
f 164 255 256
f 164 256 257
f 164 257 258
f 164 258 165
f 165 258 259
f 165 259 260
f 165 260 261
f 165 261 240
f 165 240 166
f 167 262 168
f 167 251 263
f 167 263 262
f 168 262 264
f 168 264 170
f 168 170 169
f 170 264 265
f 170 265 266
f 170 266 267
f 170 267 171
f 171 267 172
f 172 268 269
f 172 269 173
f 172 267 268
f 173 269 270
f 173 270 174
f 174 270 271
f 174 271 175
f 175 271 176
f 176 271 256
f 176 256 255
f 176 255 177
f 177 255 178
f 178 255 254
f 181 272 182
f 182 272 273
f 182 273 183
f 183 274 184
f 183 273 275
f 183 275 276
f 183 276 277
f 183 277 274
f 184 274 278
f 184 278 185
f 185 278 187
f 185 187 186
f 187 278 279
f 187 279 280
f 187 280 188
f 188 280 281
f 188 281 282
f 188 282 189
f 189 282 190
f 190 282 283
f 190 283 191
f 191 283 192
f 192 283 194
f 194 283 195
f 195 283 198
f 195 198 196
f 196 198 197
f 198 283 199
f 199 284 285
f 199 285 200
f 199 283 284
f 200 286 287
f 200 287 288
f 200 288 202
f 200 202 201
f 200 285 284
f 200 284 289
f 200 289 286
f 202 288 203
f 203 288 290
f 203 290 204
f 204 290 210
f 206 211 207
f 207 291 208
f 207 211 291
f 208 291 215
f 208 215 212
f 208 212 209
f 210 290 211
f 211 290 292
f 211 292 293
f 211 293 291
f 212 215 213
f 214 215 294
f 214 294 295
f 214 295 218
f 215 291 294
f 216 218 217
f 217 218 296
f 217 296 297
f 217 297 300
f 217 300 219
f 218 295 298
f 218 298 299
f 218 299 296
f 219 300 220
f 220 300 221
f 221 300 301
f 221 301 222
f 222 301 302
f 222 302 303
f 222 303 304
f 222 304 305
f 222 305 306
f 222 306 307
f 222 307 308
f 222 308 309
f 222 309 310
f 222 310 311
f 222 311 312
f 222 312 313
f 222 313 314
f 222 314 223
f 223 314 313
f 223 313 315
f 223 315 316
f 223 316 225
f 223 225 224
f 225 317 230
f 225 230 226
f 225 316 318
f 225 318 317
f 226 228 227
f 229 319 231
f 229 230 319
f 230 317 320
f 230 320 321
f 230 321 322
f 230 322 323
f 230 323 324
f 230 324 325
f 230 325 326
f 230 326 327
f 230 327 328
f 230 328 329
f 230 329 330
f 230 330 331
f 230 331 332
f 230 332 333
f 230 333 319
f 231 334 335
f 231 335 232
f 231 319 333
f 231 333 334
f 232 335 336
f 232 336 239
f 232 239 233
f 233 237 234
f 235 238 236
f 236 337 338
f 236 338 250
f 236 238 339
f 236 339 335
f 236 335 337
f 238 239 335
f 238 335 339
f 239 336 340
f 239 340 335
f 240 261 241
f 249 250 341
f 249 341 342
f 249 342 252
f 250 338 343
f 250 343 344
f 250 344 345
f 250 345 346
f 250 346 342
f 250 342 341
f 251 253 263
f 252 342 347
f 252 347 348
f 252 348 253
f 253 348 349
f 253 349 263
f 256 271 350
f 256 350 257
f 257 350 351
f 257 351 258
f 258 351 352
f 258 352 353
f 258 353 354
f 258 354 355
f 258 355 356
f 258 356 357
f 258 357 358
f 258 358 359
f 258 359 360
f 258 360 361
f 258 361 259
f 259 361 468
f 259 468 362
f 262 263 349
f 262 349 363
f 262 363 364
f 262 364 264
f 264 364 265
f 265 364 266
f 266 365 366
f 266 366 367
f 266 367 368
f 266 368 369
f 266 369 267
f 266 364 365
f 267 369 268
f 268 370 269
f 268 369 370
f 269 370 371
f 269 371 372
f 269 372 270
f 270 372 373
f 270 373 374
f 270 374 271
f 271 374 350
f 272 375 273
f 273 375 376
f 273 376 275
f 274 279 278
f 274 277 283
f 274 283 279
f 275 376 377
f 275 377 276
f 276 377 378
f 276 378 379
f 276 379 283
f 276 283 277
f 279 283 280
f 280 380 281
f 280 283 380
f 281 380 283
f 281 283 282
f 283 379 381
f 283 381 382
f 283 382 383
f 283 383 384
f 283 384 385
f 283 385 386
f 283 386 289
f 283 289 284
f 286 289 387
f 286 387 388
f 286 388 287
f 287 388 288
f 288 388 290
f 289 386 389
f 289 389 387
f 290 388 292
f 291 293 292
f 291 292 298
f 291 298 294
f 292 388 390
f 292 390 298
f 294 298 295
f 296 301 297
f 296 299 391
f 296 391 392
f 296 392 393
f 296 393 302
f 296 302 301
f 297 301 300
f 298 394 299
f 298 390 395
f 298 395 387
f 298 387 389
f 298 389 386
f 298 386 396
f 298 396 384
f 298 384 394
f 299 394 397
f 299 397 391
f 302 393 303
f 303 393 398
f 303 398 399
f 303 399 304
f 304 399 400
f 304 400 401
f 304 401 402
f 304 402 306
f 304 306 305
f 306 402 307
f 307 402 308
f 308 403 404
f 308 404 405
f 308 405 309
f 308 402 403
f 309 405 406
f 309 406 311
f 309 311 310
f 311 406 405
f 311 405 407
f 311 407 312
f 312 407 408
f 312 408 409
f 312 409 313
f 313 409 315
f 315 409 410
f 315 410 411
f 315 411 318
f 315 318 316
f 317 318 412
f 317 412 413
f 317 413 320
f 318 411 412
f 320 414 415
f 320 415 321
f 320 413 414
f 321 416 322
f 321 415 416
f 322 416 417
f 322 417 418
f 322 418 323
f 323 418 419
f 323 419 420
f 323 420 324
f 324 420 421
f 324 421 422
f 324 422 423
f 324 423 326
f 324 326 325
f 326 423 424
f 326 424 327
f 327 424 425
f 327 425 426
f 327 426 328
f 328 426 329
f 329 426 330
f 330 426 331
f 331 426 427
f 331 427 428
f 331 428 332
f 332 428 333
f 333 428 429
f 333 429 430
f 333 430 334
f 334 430 431
f 334 431 432
f 334 432 433
f 334 433 335
f 335 340 336
f 335 433 434
f 335 434 337
f 337 434 435
f 337 435 436
f 337 436 338
f 338 436 437
f 338 437 438
f 338 438 439
f 338 439 343
f 342 346 347
f 343 439 440
f 343 440 441
f 343 441 442
f 343 442 443
f 343 443 444
f 343 444 445
f 343 445 446
f 343 446 344
f 344 446 447
f 344 447 448
f 344 448 449
f 344 449 345
f 345 450 451
f 345 451 346
f 345 449 450
f 346 451 452
f 346 452 348
f 346 348 347
f 348 452 349
f 349 452 453
f 349 453 454
f 349 454 455
f 349 455 363
f 350 374 371
f 350 371 351
f 351 456 457
f 351 457 352
f 351 371 456
f 352 457 458
f 352 458 459
f 352 459 353
f 353 459 354
f 354 459 460
f 354 460 461
f 354 461 355
f 355 461 462
f 355 462 356
f 356 462 463
f 356 463 464
f 356 464 357
f 357 464 358
f 358 464 359
f 359 464 465
f 359 465 466
f 359 466 467
f 359 467 468
f 359 468 361
f 359 361 360
f 362 468 467
f 363 455 364
f 364 455 469
f 364 469 470
f 364 470 365
f 365 471 367
f 365 367 366
f 365 470 472
f 365 472 471
f 367 369 368
f 367 471 473
f 367 473 370
f 367 370 369
f 370 473 371
f 371 474 475
f 371 475 456
f 371 374 373
f 371 373 372
f 371 473 474
f 375 476 376
f 376 476 477
f 376 477 377
f 377 477 478
f 377 478 378
f 378 478 479
f 378 479 379
f 379 479 480
f 379 480 381
f 381 481 482
f 381 482 382
f 381 480 481
f 382 482 483
f 382 483 383
f 383 483 394
f 383 394 384
f 384 396 385
f 385 396 386
f 387 395 390
f 387 390 388
f 391 397 392
f 392 397 484
f 392 484 485
f 392 485 486
f 392 486 487
f 392 487 393
f 393 487 488
f 393 488 398
f 394 489 490
f 394 490 397
f 394 483 489
f 397 490 491
f 397 491 484
f 398 488 492
f 398 492 493
f 398 493 494
f 398 494 400
f 398 400 399
f 400 494 404
f 400 404 495
f 400 495 401
f 401 495 403
f 401 403 402
f 403 495 404
f 404 496 408
f 404 408 407
f 404 407 497
f 404 497 405
f 404 494 498
f 404 498 499
f 404 499 496
f 405 497 407
f 408 496 500
f 408 500 409
f 409 500 410
f 410 413 411
f 410 500 499
f 410 499 415
f 410 415 413
f 411 413 412
f 413 415 414
f 415 499 498
f 415 498 416
f 416 501 502
f 416 502 417
f 416 498 501
f 417 502 503
f 417 503 418
f 418 503 419
f 419 503 502
f 419 502 504
f 419 504 420
f 420 505 421
f 420 504 506
f 420 506 507
f 420 507 508
f 420 508 505
f 421 505 509
f 421 509 510
f 421 510 422
f 422 510 509
f 422 509 423
f 423 509 508
f 423 508 424
f 424 508 511
f 424 511 425
f 425 511 512
f 425 512 426
f 426 512 513
f 426 513 427
f 427 513 428
f 428 513 429
f 429 513 430
f 430 513 514
f 430 514 431
f 431 514 515
f 431 515 432
f 432 515 516
f 432 516 517
f 432 517 433
f 433 517 518
f 433 518 519
f 433 519 520
f 433 520 521
f 433 521 522
f 433 522 523
f 433 523 524
f 433 524 525
f 433 525 526
f 433 526 527
f 433 527 528
f 433 528 529
f 433 529 435
f 433 435 434
f 435 529 530
f 435 530 436
f 436 438 437
f 436 530 531
f 436 531 438
f 438 531 532
f 438 532 533
f 438 533 439
f 439 533 440
f 440 534 441
f 440 533 532
f 440 532 534
f 441 534 535
f 441 535 536
f 441 536 537
f 441 537 442
f 442 537 538
f 442 538 444
f 442 444 443
f 444 538 539
f 444 539 540
f 444 540 445
f 445 540 446
f 446 541 448
f 446 448 447
f 446 540 541
f 448 541 542
f 448 542 543
f 448 543 544
f 448 544 449
f 449 544 545
f 449 545 450
f 450 545 546
f 450 546 451
f 451 546 452
f 452 546 453
f 453 546 547
f 453 547 548
f 453 548 549
f 453 549 454
f 454 549 550
f 454 550 455
f 455 550 544
f 455 544 543
f 455 543 542
f 455 542 551
f 455 551 552
f 455 552 553
f 455 553 554
f 455 554 555
f 455 555 469
f 456 556 457
f 456 475 557
f 456 557 556
f 457 556 558
f 457 558 458
f 458 558 559
f 458 559 460
f 458 460 459
f 460 559 461
f 461 559 560
f 461 560 561
f 461 561 462
f 462 561 562
f 462 562 564
f 462 564 563
f 462 563 464
f 462 464 463
f 464 563 564
f 464 564 465
f 465 564 565
f 465 565 566
f 465 566 466
f 466 567 568
f 466 568 467
f 466 566 567
f 469 555 569
f 469 569 470
f 470 570 472
f 470 569 571
f 470 571 572
f 470 572 573
f 470 573 574
f 470 574 575
f 470 575 576
f 470 576 570
f 471 472 577
f 471 577 473
f 472 570 473
f 472 473 577
f 473 578 474
f 473 570 578
f 474 578 475
f 475 578 579
f 475 579 580
f 475 580 557
f 476 581 477
f 477 581 582
f 477 582 583
f 477 583 584
f 477 584 478
f 478 584 585
f 478 585 586
f 478 586 587
f 478 587 479
f 479 587 588
f 479 588 589
f 479 589 590
f 479 590 480
f 480 482 481
f 480 590 591
f 480 591 592
f 480 592 482
f 482 592 483
f 483 592 591
f 483 591 593
f 483 593 594
f 483 594 595
f 483 595 489
f 484 491 485
f 485 491 596
f 485 596 486
f 486 596 492
f 486 492 488
f 486 488 487
f 489 595 594
f 489 594 593
f 489 593 597
f 489 597 598
f 489 598 490
f 490 598 491
f 491 599 596
f 491 598 599
f 492 596 598
f 492 598 498
f 492 498 493
f 493 498 494
f 496 499 500
f 498 598 501
f 501 600 601
f 501 601 502
f 501 598 600
f 502 601 504
f 504 601 507
f 504 507 506
f 505 508 509
f 507 602 603
f 507 603 604
f 507 604 508
f 507 601 602
f 508 604 515
f 508 515 512
f 508 512 511
f 512 515 513
f 513 515 514
f 515 604 605
f 515 605 606
f 515 606 516
f 516 606 517
f 517 606 518
f 518 607 520
f 518 520 519
f 518 606 607
f 520 608 521
f 520 607 608
f 521 608 609
f 521 609 522
f 522 609 610
f 522 610 523
f 523 610 611
f 523 611 527
f 523 527 524
f 524 527 525
f 525 527 526
f 527 611 612
f 527 612 613
f 527 613 528
f 528 613 529
f 529 613 530
f 530 613 614
f 530 614 531
f 531 614 532
f 532 614 613
f 532 613 612
f 532 612 615
f 532 615 616
f 532 616 534
f 534 617 618
f 534 618 535
f 534 616 619
f 534 619 620
f 534 620 621
f 534 621 617
f 535 618 622
f 535 622 537
f 535 537 536
f 537 622 555
f 537 555 538
f 538 555 623
f 538 623 624
f 538 624 539
f 539 624 541
f 539 541 540
f 541 551 542
f 541 624 623
f 541 623 553
f 541 553 551
f 544 550 545
f 545 550 548
f 545 548 547
f 545 547 546
f 548 550 549
f 551 553 552
f 553 623 554
f 554 623 555
f 555 622 569
f 556 557 627
f 556 627 625
f 556 625 558
f 557 580 626
f 557 626 683
f 557 683 627
f 558 625 627
f 558 627 628
f 558 628 629
f 558 629 559
f 559 629 630
f 559 630 631
f 559 631 632
f 559 632 560
f 560 632 633
f 560 633 561
f 561 633 634
f 561 634 565
f 561 565 562
f 562 565 564
f 565 634 635
f 565 635 636
f 565 636 637
f 565 637 638
f 565 638 566
f 566 638 639
f 566 639 640
f 566 640 641
f 566 641 567
f 569 622 642
f 569 642 571
f 570 576 643
f 570 643 644
f 570 644 645
f 570 645 646
f 570 646 578
f 571 642 572
f 572 642 618
f 572 618 573
f 573 618 574
f 574 618 575
f 575 618 617
f 575 617 647
f 575 647 648
f 575 648 649
f 575 649 576
f 576 649 650
f 576 650 651
f 576 651 646
f 576 646 645
f 576 645 644
f 576 644 643
f 578 652 579
f 578 646 652
f 579 652 653
f 579 653 580
f 580 654 655
f 580 655 626
f 580 653 654
f 582 584 583
f 582 656 584
f 584 656 585
f 585 656 586
f 586 589 588
f 586 588 587
f 586 656 657
f 586 657 589
f 589 658 590
f 589 657 658
f 590 658 659
f 590 659 591
f 591 659 660
f 591 660 661
f 591 661 662
f 591 662 593
f 593 662 663
f 593 663 597
f 596 599 598
f 597 663 664
f 597 664 665
f 597 665 666
f 597 666 600
f 597 600 598
f 600 666 602
f 600 602 601
f 602 666 603
f 603 620 604
f 603 666 667
f 603 667 665
f 603 665 668
f 603 668 669
f 603 669 670
f 603 670 620
f 604 620 671
f 604 671 605
f 605 671 606
f 606 671 672
f 606 672 673
f 606 673 607
f 607 673 674
f 607 674 608
f 608 674 675
f 608 675 676
f 608 676 609
f 609 676 677
f 609 677 610
f 610 677 611
f 611 678 615
f 611 615 612
f 611 677 678
f 615 678 619
f 615 619 616
f 617 621 670
f 617 670 679
f 617 679 647
f 618 642 622
f 619 678 676
f 619 676 680
f 619 680 620
f 620 680 676
f 620 676 675
f 620 675 681
f 620 681 671
f 620 670 621
f 626 682 683
f 626 655 682
f 627 683 628
f 628 683 629
f 629 683 684
f 629 684 630
f 630 685 631
f 630 684 685
f 631 685 632
f 632 685 686
f 632 686 633
f 633 635 634
f 633 686 635
f 635 686 685
f 635 685 687
f 635 687 688
f 635 688 636
f 636 688 637
f 637 688 689
f 637 689 690
f 637 690 691
f 637 691 692
f 637 692 639
f 637 639 638
f 646 693 694
f 646 694 653
f 646 653 695
f 646 695 652
f 646 651 693
f 647 696 649
f 647 649 648
f 647 679 696
f 649 696 679
f 649 679 697
f 649 697 650
f 650 697 651
f 651 698 699
f 651 699 694
f 651 694 693
f 651 697 700
f 651 700 701
f 651 701 698
f 652 695 653
f 653 702 654
f 653 694 702
f 654 702 703
f 654 703 682
f 654 682 655
f 657 704 658
f 657 705 704
f 658 706 659
f 658 704 707
f 658 707 708
f 658 708 706
f 659 706 660
f 660 709 710
f 660 710 711
f 660 711 665
f 660 665 712
f 660 712 662
f 660 662 661
f 660 706 709
f 662 712 664
f 662 664 713
f 662 713 663
f 663 713 664
f 664 712 665
f 665 667 666
f 665 711 697
f 665 697 714
f 665 714 715
f 665 715 668
f 668 715 714
f 668 714 669
f 669 714 670
f 670 714 679
f 671 681 672
f 672 681 673
f 673 681 674
f 674 681 675
f 676 678 677
f 679 714 697
f 682 703 683
f 683 703 684
f 684 703 716
f 684 716 717
f 684 717 718
f 684 718 687
f 684 687 685
f 687 718 717
f 687 717 719
f 687 719 688
f 688 719 689
f 689 720 721
f 689 721 722
f 689 722 690
f 689 719 723
f 689 723 724
f 689 724 703
f 689 703 720
f 694 699 702
f 697 711 700
f 698 725 726
f 698 726 699
f 698 701 725
f 699 707 727
f 699 727 728
f 699 728 729
f 699 729 702
f 699 726 725
f 699 725 707
f 700 711 710
f 700 710 701
f 701 730 725
f 701 710 730
f 702 729 728
f 702 728 731
f 702 731 703
f 703 731 732
f 703 732 733
f 703 733 734
f 703 734 735
f 703 735 736
f 703 736 720
f 703 724 723
f 703 723 717
f 703 717 716
f 704 705 707
f 705 737 707
f 706 708 738
f 706 738 709
f 707 737 727
f 707 725 710
f 707 710 708
f 708 710 738
f 709 738 710
f 710 725 730
f 717 723 719
f 720 736 739
f 720 739 721
f 721 739 722
f 727 737 740
f 727 740 741
f 727 741 742
f 727 742 728
f 728 742 743
f 728 743 744
f 728 744 745
f 728 745 731
f 731 745 746
f 731 746 732
f 732 746 733
f 733 746 747
f 733 747 748
f 737 749 740
f 740 749 741
f 741 750 742
f 741 749 750
f 742 750 743
f 743 750 748
f 743 748 747
f 743 747 744
f 744 747 745
f 745 747 746
f 748 750 749

