# https://github.com/mikedh/trimesh
v 0.00222222 0.01278455 0.06947509
v 0.01132031 0.00519696 0.06946572
v 0.00979904 0.00823499 0.06946572
v 0.00828515 0.00974652 0.06946572
v 0.00677127 0.01127302 0.06942825
v 0.00373611 0.01278455 0.06941888
v 0.00222222 0.01402670 0.06903477
v 0.00102588 0.01407160 0.06903477
v 0.00102588 0.01278455 0.06946572
v 0.00102588 -0.01297137 0.06945635
v 0.00373611 -0.01145983 0.06946572
v 0.01283420 -0.00236071 0.06946572
v 0.01283420 -0.00084917 0.06946572
v 0.01283420 0.00217389 0.06945635
v 0.01132031 0.00672345 0.06941888
v 0.00989504 0.00985128 0.06911909
v 0.00832946 0.01133288 0.06909098
v 0.00677127 0.01254510 0.06899729
v 0.00373611 0.01389201 0.06897856
v 0.00605494 0.06965409 0.02617406
v 0.00598848 0.06965409 0.02617406
v 0.00284993 0.07124045 0.02475943
v 0.00126220 0.07140507 0.02332605
v 0.00102588 0.07162956 0.02292321
v 0.00102588 -0.01392917 0.06911909
v 0.00222222 -0.01297137 0.06944699
v 0.00524999 -0.01145983 0.06945635
v 0.00828515 -0.00993333 0.06945635
v 0.00979904 -0.00842180 0.06945635
v 0.01283420 -0.00387224 0.06938141
v 0.01401577 -0.00236071 0.06902540
v 0.01408223 -0.00084917 0.06903477
v 0.01132031 -0.00691027 0.06938141
v 0.01408223 0.00066236 0.06903477
v 0.01403054 0.00217389 0.06902540
v 0.01283420 0.00368542 0.06940014
v 0.01253881 0.00672345 0.06897856
v 0.01137939 0.00826492 0.06908161
v 0.00945195 0.01086894 0.06889424
v 0.01092153 0.00940231 0.06889424
v 0.00784945 0.01224579 0.06884740
v 0.00496199 0.01371242 0.06882866
v 0.03201995 0.06372769 0.02481564
v 0.00468875 0.07118059 0.02472195
v 0.00373611 0.07124045 0.02477816
v 0.00145420 0.07570021 0.01708666
v 0.00102588 0.07269212 0.02166783
v 0.00102588 -0.01418359 0.06902540
v 0.00222222 -0.01415365 0.06902540
v 0.00373611 -0.01297137 0.06935330
v 0.00677127 -0.01145983 0.06939077
v 0.00985812 -0.00999320 0.06910972
v 0.01137200 -0.00843677 0.06905351
v 0.01387546 -0.00387224 0.06895045
v 0.01248711 -0.00691027 0.06895982
v 0.06826461 -0.01379448 0.02618343
v 0.07002959 -0.01145983 0.02504985
v 0.06820554 0.01517906 0.02618343
v 0.01390500 0.00368542 0.06895982
v 0.01227295 0.00778602 0.06882866
v 0.01373515 0.00482281 0.06880055
v 0.05519349 0.04451177 0.02495616
v 0.05463225 0.04546957 0.02473132
v 0.03454555 0.06046517 0.02615533
v 0.05606490 0.04132408 0.02618343
v 0.05630860 0.04310499 0.02509669
v 0.03379230 0.06239574 0.02504985
v 0.03337137 0.06666095 0.01866993
v 0.03202733 0.06824732 0.01719908
v 0.00149112 0.07570021 0.01708666
v 0.00102588 0.07583491 0.01650581
v 0.00102588 -0.06318118 0.02619280
v 0.00142466 -0.06379477 0.02618343
v 0.00448197 -0.06680287 0.02617406
v 0.00603278 -0.06828447 0.02616469
v 0.00704450 -0.06865862 0.02618343
v 0.00828515 -0.07014022 0.02532153
v 0.00373611 -0.01400400 0.06892235
v 0.00979904 -0.07023001 0.02520911
v 0.00677127 -0.01262715 0.06895982
v 0.00827038 -0.01148976 0.06905351
v 0.00939288 -0.01099590 0.06887550
v 0.01089938 -0.00952926 0.06887550
v 0.01223603 -0.00794290 0.06879119
v 0.01372038 -0.00494977 0.06879119
v 0.06971204 -0.01377951 0.02480627
v 0.06983758 -0.01297137 0.02499364
v 0.05943238 -0.03874225 0.02495616
v 0.07437924 -0.01102583 0.01739582
v 0.07129977 -0.00951430 0.02326984
v 0.07129977 -0.00902043 0.02326984
v 0.06858954 0.01573279 0.02550890
v 0.06864124 0.01733411 0.02519974
v 0.06844185 0.01856130 0.02495616
v 0.05607967 0.04394307 0.02474069
v 0.05460270 0.04699607 0.02323237
v 0.06970465 0.02281155 0.02022509
v 0.07270289 0.02261699 0.01555960
v 0.05302974 0.05147080 0.01864182
v 0.05451409 0.04841780 0.02162099
v 0.03303905 0.06796297 0.01676813
v 0.05751232 0.04989941 0.01541907
v 0.03253688 0.06845684 0.01629034
v 0.03062422 0.06981871 0.01441665
v 0.00208929 0.07584988 0.01626223
v 0.00222222 0.07617913 0.01480075
v 0.00102588 0.07622402 0.01480075
v 0.00102588 -0.06386961 0.02540585
v 0.00102588 -0.07313335 0.01184969
v 0.00102588 -0.07404626 0.01041631
v 0.00735467 -0.06997559 0.02511543
v 0.00524999 -0.07500406 0.01177474
v 0.00674173 -0.07471971 0.01335801
v 0.00903840 -0.07436054 0.01556897
v 0.00979904 -0.07443537 0.01574697
v 0.01132031 -0.07427074 0.01682434
v 0.01283420 -0.07434557 0.01700234
v 0.00479214 -0.01383937 0.06876308
v 0.03665022 -0.06087647 0.02506859
v 0.01499056 -0.07126264 0.02160225
v 0.01132031 -0.07005043 0.02490932
v 0.00776083 -0.01237274 0.06880055
v 0.03713024 -0.06005336 0.02536838
v 0.03944168 -0.05929011 0.02473132
v 0.05612398 -0.04101703 0.02616469
v 0.05697323 -0.04025378 0.02607101
v 0.05824342 -0.04017895 0.02527469
v 0.06082072 -0.03820348 0.02349468
v 0.06367126 -0.03652733 0.02023446
v 0.06514084 -0.03498586 0.01863245
v 0.06534022 -0.03842797 0.01581255
v 0.05917391 -0.03962522 0.02480627
v 0.07454909 -0.01150473 0.01633718
v 0.07577497 -0.00931974 0.01423865
v 0.07499218 -0.00993333 0.01631844
v 0.07445309 -0.00993333 0.01742392
v 0.07285058 -0.00691027 0.02039372
v 0.07256258 0.02035718 0.01668381
v 0.07561989 -0.00842180 0.01521296
v 0.05765263 0.04862732 0.01727403
v 0.07274720 0.02161429 0.01572823
v 0.07579712 -0.00735924 0.01439791
v 0.07309428 0.02035718 0.01480075
v 0.07420939 0.01806743 0.01095968
v 0.07279151 0.02285645 0.01454780
v 0.06077641 0.04570902 0.01177474
v 0.05943238 0.04747497 0.01329243
v 0.05785202 0.04892664 0.01631844
v 0.03340091 0.06818745 0.01576570
v 0.05616090 0.05154563 0.01429486
v 0.06094626 0.04591854 0.01025705
v 0.05759356 0.04998920 0.01440728
v 0.03253688 0.06883098 0.01480075
v 0.03078668 0.06984864 0.01329243
v 0.01824727 0.07421862 0.00063564
v 0.01586197 0.07484718 0.00116027
v 0.01056706 0.07570021 0.00649093
v 0.00931164 0.07577504 0.00844894
v 0.00841808 0.07592471 0.00887052
v 0.00792330 0.07580499 0.01025705
v 0.00668265 0.07581995 0.01165295
v 0.00519830 0.07584988 0.01320811
v 0.00368441 0.07586484 0.01474454
v 0.00373611 0.07614918 0.01329243
v 0.00373611 0.07625394 0.01177474
v 0.00222222 0.07626892 0.01329243
v 0.00102588 0.07629885 0.01329243
v 0.00102588 -0.07433060 0.00990105
v 0.00102588 -0.07455509 0.00946073
v 0.00102588 -0.07471971 0.00910473
v 0.00102588 -0.07486937 0.00877683
v 0.00225914 -0.07465985 0.01025705
v 0.00373611 -0.07516868 0.01025705
v 0.00302716 -0.07587207 0.00796178
v 0.00524999 -0.07554283 0.01025705
v 0.00677127 -0.07533330 0.01177474
v 0.00828515 -0.07504896 0.01329243
v 0.01132031 -0.07451019 0.01606550
v 0.00979904 -0.07515372 0.01329243
v 0.01132031 -0.07483944 0.01480075
v 0.01132031 -0.07521358 0.01329243
v 0.01283420 -0.07488434 0.01480075
v 0.01434809 -0.07488434 0.01480075
v 0.01434809 -0.07455509 0.01608423
v 0.01533765 -0.07449523 0.01577507
v 0.04262454 -0.06240297 0.01729276
v 0.04096295 -0.05929011 0.02322300
v 0.05769694 -0.04112179 0.02508732
v 0.06392235 -0.03975991 0.01740518
v 0.06508914 -0.03944563 0.01531602
v 0.06548792 -0.03886197 0.01481012
v 0.07445309 -0.01295640 0.01472581
v 0.07479279 -0.01297137 0.01329243
v 0.07493310 -0.01145983 0.01480075
v 0.07578235 -0.00928981 -0.01292989
v 0.07609252 -0.00691027 -0.01248020
v 0.07624021 -0.00539874 -0.01248020
v 0.07637314 -0.00387224 -0.01096251
v 0.07643221 -0.00236071 -0.00944482
v 0.07580450 -0.00842180 0.01445412
v 0.07457125 -0.01461759 0.01189653
v 0.07443832 -0.01605429 0.01021958
v 0.07488141 -0.01448290 0.01025705
v 0.07497741 -0.01448290 0.00873936
v 0.07641745 0.00368542 -0.00338343
v 0.07627714 0.00519696 -0.00186574
v 0.07574543 0.01056963 0.00350239
v 0.07480017 0.01429608 0.00873936
v 0.07475587 0.01580761 0.00722167
v 0.07422416 0.01811233 0.00994789
v 0.07310905 0.02188368 0.01329243
v 0.07280627 0.02287141 0.01329243
v 0.07132931 0.02755566 -0.00944482
v 0.06996312 0.03084811 -0.00641881
v 0.06663996 0.03779218 0.00040143
v 0.06223861 0.04410769 0.00873936
v 0.06215737 0.04398797 0.00976052
v 0.03656899 0.06676572 0.01177474
v 0.03354860 0.06827725 0.01480075
v 0.05692893 0.05079735 0.01329243
v 0.05616829 0.05156060 0.01329243
v 0.05260142 0.05555643 -0.00793650
v 0.05184078 0.05630471 -0.00793650
v 0.05097676 0.05706796 -0.00641881
v 0.05021613 0.05772645 -0.00490112
v 0.04851024 0.05907336 -0.00186574
v 0.04603632 0.06104883 -0.00035741
v 0.04429351 0.06235084 0.00116027
v 0.04244730 0.06360796 0.00379281
v 0.04049033 0.06474535 0.00722167
v 0.03972969 0.06534397 0.00722167
v 0.03953030 0.06522425 0.00873936
v 0.05763787 0.05003410 0.01329243
v 0.06179552 0.04487094 0.00873936
v 0.06103488 0.04600834 0.00873936
v 0.05908529 0.04843277 0.01119389
v 0.03371845 0.06835207 0.01329243
v 0.03383661 0.06839697 0.01177474
v 0.03086792 0.06990851 -0.01248020
v 0.02950911 0.07050713 -0.01248020
v 0.02761860 0.07131528 -0.00944482
v 0.02647395 0.07179418 -0.00944482
v 0.02484191 0.07243771 -0.00784281
v 0.02425112 0.07267715 -0.00828313
v 0.02418466 0.07266219 -0.00728071
v 0.01833589 0.07424855 -0.00035741
v 0.01738324 0.07450297 -0.00035741
v 0.01586197 0.07487711 -0.00035741
v 0.01434809 0.07514649 0.00116027
v 0.01066306 0.07571519 0.00571335
v 0.00981381 0.07580499 0.00709051
v 0.00677127 0.07619409 0.00873936
v 0.00677127 0.07605939 0.01025705
v 0.00222222 0.07628388 0.01177474
v 0.00524999 0.07623898 0.00873936
v 0.00102588 0.07632877 -0.01246147
v 0.00102588 -0.07546800 0.00739030
v 0.00222222 -0.07530337 0.00873936
v 0.00222222 -0.07575235 0.00765262
v 0.00135820 -0.07591697 0.00655651
v 0.00222222 -0.07597682 0.00689377
v 0.00222222 -0.07618635 0.00571335
v 0.00403888 -0.07593193 0.00820536
v 0.00524999 -0.07582717 0.00923589
v 0.00671219 -0.07575235 0.01019147
v 0.00828515 -0.07546800 0.01177474
v 0.00979904 -0.07552786 0.01177474
v 0.00828515 -0.07594690 0.00976052
v 0.01283420 -0.07519861 0.01329243
v 0.01434809 -0.07501903 0.01329243
v 0.01585459 -0.07458502 0.01470707
v 0.04313409 -0.06250773 0.01618729
v 0.04391688 -0.06225331 0.01558770
v 0.04244730 -0.05924521 0.02167720
v 0.06409219 -0.04026875 0.01618729
v 0.06362695 -0.04103199 0.01559707
v 0.06375249 -0.04118165 0.01480075
v 0.06392235 -0.04142110 0.01329243
v 0.06467559 -0.04037350 0.01329243
v 0.06514822 -0.03953543 0.01430422
v 0.06570947 -0.03874225 0.01329243
v 0.06642580 -0.03708106 0.01318938
v 0.07426108 -0.01686244 0.00968557
v 0.07434970 -0.01557539 0.01147495
v 0.07439401 -0.01415365 0.01329243
v 0.07578235 -0.00928981 -0.01338894
v 0.07608513 -0.00691027 -0.01399789
v 0.07611467 -0.00539874 -0.01399789
v 0.07626237 -0.00387224 -0.01248020
v 0.07635099 -0.00236071 -0.01096251
v 0.07644699 -0.00084917 -0.00793650
v 0.07646176 0.00066236 -0.00641881
v 0.07646914 0.00217389 -0.00490112
v 0.07461556 -0.01600940 0.00873936
v 0.07468940 -0.01600940 0.00722167
v 0.07635099 0.00368542 -0.00490112
v 0.07626237 0.00519696 -0.00338343
v 0.07574543 0.01056963 0.00321197
v 0.07474848 0.01580761 0.00571335
v 0.07422416 0.01811233 0.00905789
v 0.07279151 0.02306596 -0.01366063
v 0.07173547 0.02643324 -0.01096251
v 0.07132931 0.02749580 -0.01096251
v 0.06997050 0.03083315 -0.00793650
v 0.06848616 0.03387118 -0.00490112
v 0.06846401 0.03372152 -0.00641881
v 0.05761571 0.05001913 -0.01338894
v 0.06536977 0.03966289 0.00116027
v 0.06233461 0.04419749 0.00571335
v 0.06181767 0.04496074 0.00722167
v 0.06231245 0.04421245 0.00722167
v 0.03755117 0.06636164 0.01025705
v 0.03679792 0.06687047 0.01025705
v 0.05627906 0.05172522 -0.01399789
v 0.05334729 0.05483808 -0.00944482
v 0.05332513 0.05474828 -0.01096251
v 0.05249803 0.05560133 -0.00944482
v 0.05174478 0.05617002 -0.00944482
v 0.05066660 0.05715775 -0.00808640
v 0.05022351 0.05769652 -0.00641881
v 0.04854716 0.05910329 -0.00338343
v 0.04507630 0.06181208 -0.00035741
v 0.04246946 0.06362293 0.00267797
v 0.03975923 0.06531404 0.00571335
v 0.03162855 0.06953436 -0.01248020
v 0.03688654 0.06687047 0.00873936
v 0.06044410 0.04675662 0.00873936
v 0.05908529 0.04843277 0.01077231
v 0.03083099 0.06990851 -0.01399789
v 0.02950911 0.07046224 -0.01399789
v 0.02829800 0.07098603 -0.01248020
v 0.02425112 0.07267715 -0.00881714
v 0.01838019 0.07424855 -0.00186574
v 0.01914083 0.07403903 -0.00186574
v 0.01434809 0.07513153 -0.00035741
v 0.01738324 0.07448800 -0.00186574
v 0.01823250 0.07420365 -0.00423596
v 0.01586197 0.07478732 -0.00186574
v 0.01283420 0.07538594 0.00267797
v 0.01068522 0.07571519 0.00449545
v 0.00979904 0.07583491 0.00571335
v 0.00828515 0.07602946 0.00722167
v 0.00102588 0.07628388 -0.01280810
v 0.00102588 -0.07554283 0.00721230
v 0.00102588 -0.07567751 0.00688440
v 0.00102588 -0.07596186 0.00601314
v 0.00102588 -0.07603669 0.00563840
v 0.00102588 -0.07623124 0.00451418
v 0.00102588 -0.07627615 0.00419566
v 0.00102588 -0.07644076 0.00300586
v 0.00222222 -0.07639587 0.00419566
v 0.00373611 -0.07629111 0.00571335
v 0.00524999 -0.07617139 0.00722167
v 0.00361057 -0.07603669 0.00736219
v 0.00718481 -0.07591697 0.00963873
v 0.00617310 -0.07587207 0.00942326
v 0.00524999 -0.07597682 0.00847704
v 0.00828515 -0.07576731 0.01051937
v 0.00671219 -0.07600677 0.00885178
v 0.00677127 -0.07618635 0.00722167
v 0.00828515 -0.07603669 0.00873936
v 0.00928949 -0.07593193 0.00971368
v 0.01132031 -0.07560269 0.01025705
v 0.01586197 -0.07482447 -0.01248020
v 0.01804049 -0.07434557 -0.01096251
v 0.02041102 -0.07377688 -0.00944482
v 0.02192491 -0.07338777 -0.00793650
v 0.01667430 -0.07439047 0.01412622
v 0.04108850 -0.06385464 0.01447286
v 0.04071926 -0.06373491 0.01548465
v 0.04132481 -0.06398933 0.01329243
v 0.04314148 -0.06279207 0.01480075
v 0.04207806 -0.06360022 0.01329243
v 0.04400550 -0.06231317 0.01480075
v 0.04557108 -0.06090640 0.01426675
v 0.06325033 -0.04218435 0.01329243
v 0.06398881 -0.04158572 0.01177474
v 0.06220907 -0.04418975 0.01025705
v 0.06343495 -0.04234897 0.01177474
v 0.06519991 -0.03961026 0.01329243
v 0.06521469 -0.03965515 0.01177474
v 0.06693535 -0.03702120 -0.01248020
v 0.06847877 -0.03405799 -0.00793650
v 0.06986712 -0.03082541 -0.00490112
v 0.07124069 -0.02748806 -0.00186574
v 0.07121854 -0.02744317 -0.00091015
v 0.07149177 -0.02670985 -0.00038552
v 0.07282104 -0.02319292 0.00116027
v 0.07277673 -0.02304326 0.00267797
v 0.07273981 -0.02290857 0.00362418
v 0.07430539 -0.01701210 0.00873936
v 0.07582666 -0.00789800 -0.01500032
v 0.07587836 -0.00840684 -0.01394168
v 0.07437185 -0.01729644 0.00571335
v 0.07313120 -0.02207049 -0.00035741
v 0.07285058 -0.02325278 -0.00035741
v 0.07280627 -0.02311809 -0.00150974
v 0.07121115 -0.02744317 -0.00577239
v 0.06979327 -0.03075058 -0.00944482
v 0.06819815 -0.03354916 -0.01337021
v 0.06663996 -0.03646746 -0.01626506
v 0.07590051 -0.00691027 -0.01529074
v 0.07586359 -0.00539874 -0.01520643
v 0.07636575 -0.00084917 -0.00944482
v 0.07636575 0.00066236 -0.00793650
v 0.07434970 -0.01717672 0.00722167
v 0.07316074 -0.02207049 0.00116027
v 0.07609990 0.00672345 -0.00186574
v 0.07581928 0.00947714 0.00116027
v 0.07259211 0.02349997 -0.01410095
v 0.07216380 0.02490674 -0.01399789
v 0.07593743 0.00823499 -0.00035741
v 0.07166901 0.02643324 -0.01248020
v 0.07125546 0.02731621 -0.01248020
v 0.06994835 0.03071342 -0.00944482
v 0.05620521 0.05163542 -0.01517832
v 0.06984497 0.03045900 -0.01069083
v 0.07107084 0.02701690 -0.01426958
v 0.07138100 0.02599923 -0.01551558
v 0.05549627 0.05247350 -0.01399789
v 0.05481687 0.05325172 -0.01248020
v 0.05473563 0.05313199 -0.01399789
v 0.05314790 0.05456870 -0.01248020
v 0.05012012 0.05760673 -0.00768355
v 0.04845115 0.05901350 -0.00566933
v 0.04851024 0.05905840 -0.00490112
v 0.04608801 0.06101890 -0.00186574
v 0.04431566 0.06232091 -0.00035741
v 0.04601417 0.06091414 -0.00338343
v 0.03059468 0.06981871 -0.01523453
v 0.02792876 0.07092617 -0.01394168
v 0.02738228 0.07118059 -0.01339831
v 0.02753736 0.07125542 -0.01248020
v 0.02964203 0.07005816 -0.01564674
v 0.02496006 0.07213839 -0.01096251
v 0.00102588 0.07610430 -0.01394168
v 0.01833589 0.07421862 -0.00338343
v 0.02041102 0.07369482 -0.00490112
v 0.00102588 -0.07647070 0.00267797
v 0.00102588 -0.07656049 0.00148817
v 0.00222222 -0.07648566 0.00267797
v 0.00524999 -0.07629111 0.00571335
v 0.00677127 -0.07617139 0.00571335
v 0.00828515 -0.07606662 0.00722167
v 0.00524999 -0.07627615 0.00419566
v 0.00936334 -0.07594690 0.00873936
v 0.01586197 -0.07474965 -0.01399789
v 0.01720601 -0.07452516 -0.01248020
v 0.00373611 -0.07636594 0.00267797
v 0.00102588 -0.07654553 0.00116027
v 0.01889713 -0.07413605 -0.01096251
v 0.02041102 -0.07367211 -0.01096251
v 0.02192491 -0.07329797 -0.00944482
v 0.02309909 -0.07301363 -0.00793650
v 0.02386711 -0.07274425 -0.00641881
v 0.02310648 -0.07298369 -0.00641881
v 0.02737490 -0.07138237 -0.00186574
v 0.02730843 -0.07136740 -0.00094763
v 0.02950911 -0.07057422 -0.00035741
v 0.03072760 -0.07003546 0.00116027
v 0.03726316 -0.06656343 0.00873936
v 0.03859981 -0.06583011 0.01025705
v 0.03942691 -0.06530631 0.01117516
v 0.03915368 -0.06520155 0.01218695
v 0.04011370 -0.06454306 0.01329243
v 0.03953769 -0.06538114 0.01025705
v 0.04145035 -0.06410905 0.01177474
v 0.04404981 -0.06234311 0.01329243
v 0.04480306 -0.06172951 0.01329243
v 0.04565970 -0.06096626 0.01329243
v 0.04221099 -0.06364512 0.01177474
v 0.05893021 -0.04846993 0.00571335
v 0.05954315 -0.04758696 0.00722167
v 0.06088718 -0.04589583 0.00873936
v 0.06399619 -0.04166055 0.01025705
v 0.06474944 -0.04040344 0.01177474
v 0.06229768 -0.04430948 0.00873936
v 0.06164043 -0.04507272 0.00873936
v 0.06648487 -0.03776948 -0.01248020
v 0.06684673 -0.03696133 -0.01399789
v 0.06839754 -0.03399813 -0.01096251
v 0.06845662 -0.03410289 -0.00944482
v 0.06647749 -0.03770962 -0.01399789
v 0.06987450 -0.03090024 -0.00793650
v 0.06986712 -0.03088527 -0.00641881
v 0.07123331 -0.02748806 -0.00338343
v 0.07158039 -0.02662005 -0.00186574
v 0.07308690 -0.02207049 0.00267797
v 0.07275458 -0.00780821 -0.02090244
v 0.06383373 -0.03087030 -0.02556794
v 0.07157301 -0.02662005 -0.00338343
v 0.07122592 -0.02747310 -0.00490112
v 0.06828677 -0.03377365 -0.01248020
v 0.06672857 -0.03672188 -0.01525327
v 0.06562085 -0.03875721 -0.01389484
v 0.04646464 -0.06014315 -0.01551558
v 0.04694466 -0.05921528 -0.01629316
v 0.04698897 -0.05322901 -0.02544616
v 0.06356048 -0.03335461 -0.02375983
v 0.06347926 -0.03188797 -0.02527752
v 0.07134408 -0.00493480 -0.02408773
v 0.07561250 -0.00539874 -0.01596527
v 0.07183148 0.02490674 -0.01551558
v 0.07127023 0.02578972 -0.01643369
v 0.07144747 0.02647814 -0.01385737
v 0.07118900 0.02719649 -0.01325779
v 0.05463963 0.04853753 -0.02095866
v 0.05154539 0.04997423 -0.02391909
v 0.05497195 0.05187488 -0.01669601
v 0.05441070 0.05289254 -0.01604959
v 0.05460270 0.05301227 -0.01503779
v 0.06533284 0.02752573 -0.02556794
v 0.03032882 0.06664599 -0.02087434
v 0.02922848 0.06981871 -0.01662106
v 0.04870224 0.05165039 -0.02555857
v 0.02799522 0.07050713 -0.01551558
v 0.00102588 0.07315606 -0.02003118
v 0.02796568 0.06990851 -0.01708949
v 0.02744875 0.06968402 -0.01789518
v 0.02344618 0.06688544 -0.02566162
v 0.01440716 -0.07467481 -0.01396042
v 0.01495364 -0.07448026 -0.01488790
v 0.01586197 -0.07448026 -0.01504716
v 0.01678507 -0.07442040 -0.01500969
v 0.01697708 -0.07448026 -0.01399789
v 0.00102588 -0.07648566 -0.00002952
v 0.00102588 -0.07645574 -0.00035741
v 0.00102588 -0.07633600 -0.00154721
v 0.00102588 -0.07629111 -0.00187511
v 0.00102588 -0.07609656 -0.00314922
v 0.00102588 -0.07606662 -0.00329911
v 0.01796664 -0.07431564 -0.01248020
v 0.02041102 -0.07346260 -0.01248020
v 0.02197660 -0.07308846 -0.01085946
v 0.02287754 -0.07293880 -0.00944482
v 0.01889713 -0.07401633 -0.01248020
v 0.01773772 -0.07424081 -0.01399789
v 0.01889713 -0.07382177 -0.01399789
v 0.02385972 -0.07269935 -0.00793650
v 0.02496006 -0.07231024 -0.00641881
v 0.02739705 -0.07139734 -0.00338343
v 0.02647395 -0.07174155 -0.00338343
v 0.02950911 -0.07055926 -0.00186574
v 0.03080145 -0.07005043 -0.00035741
v 0.03155470 -0.06972118 -0.00035741
v 0.03742563 -0.06659336 0.00722167
v 0.03859981 -0.06596480 0.00873936
v 0.03958938 -0.06542603 0.00873936
v 0.04029832 -0.06491720 0.01025705
v 0.04591078 -0.06111592 -0.01399789
v 0.04845115 -0.05921528 -0.01018493
v 0.05015705 -0.05785341 -0.00793650
v 0.05170786 -0.05637180 -0.00490112
v 0.05320698 -0.05484531 -0.00186574
v 0.05396023 -0.05414192 -0.00186574
v 0.05546673 -0.05260045 -0.00035741
v 0.05624952 -0.05185217 -0.00035741
v 0.05618306 -0.05177734 0.00116027
v 0.05763048 -0.05020595 0.00267797
v 0.05757879 -0.05014609 0.00369913
v 0.06030378 -0.04677881 0.00722167
v 0.06170690 -0.04505776 0.00722167
v 0.06227553 -0.04429451 0.00722167
v 0.06094626 -0.04603053 0.00722167
v 0.05766002 -0.05025084 0.00116027
v 0.06516299 -0.03953543 -0.01331400
v 0.04617663 -0.05239093 -0.02587710
v 0.06285155 -0.02964312 -0.02606447
v 0.06398881 -0.02964312 -0.02572720
v 0.04666403 -0.06042750 -0.01399789
v 0.04570401 -0.06099620 -0.01551558
v 0.04551200 -0.06080164 -0.01636811
v 0.04546769 -0.05471061 -0.02539931
v 0.04605109 -0.05379771 -0.02557731
v 0.07030282 -0.00236071 -0.02562415
v 0.07132931 -0.00387224 -0.02420015
v 0.07107084 -0.00230084 -0.02459362
v 0.06967511 0.02263196 -0.02081814
v 0.07138839 0.02490674 -0.01653675
v 0.05003889 0.05003410 -0.02540868
v 0.06686150 0.02490674 -0.02412520
v 0.07025113 -0.00084917 -0.02572720
v 0.06548792 0.02643324 -0.02560541
v 0.06436543 0.02643324 -0.02594268
v 0.06435804 0.02800463 -0.02572720
v 0.04769052 0.05067762 -0.02601763
v 0.02875586 0.06660109 -0.02233582
v 0.02448744 0.06670585 -0.02547426
v 0.04769052 0.05182998 -0.02571784
v 0.00102588 0.07219825 -0.02083687
v 0.02192491 0.06685551 -0.02564289
v 0.02344618 0.06583784 -0.02593331
v 0.02192491 0.06583784 -0.02603637
v 0.00102588 -0.07596186 -0.00369259
v 0.00102588 -0.07573738 -0.00447017
v 0.01184463 -0.07296873 -0.01797949
v 0.01535242 -0.07147216 -0.02104297
v 0.01732417 -0.07412109 -0.01551558
v 0.01476164 -0.07147216 -0.02104297
v 0.02148920 -0.07299866 -0.01248020
v 0.02250831 -0.07277418 -0.01129978
v 0.02272246 -0.07286397 -0.01028798
v 0.04402765 -0.06232814 -0.01356695
v 0.02363818 -0.07257962 -0.00944482
v 0.01899313 -0.07337280 -0.01558116
v 0.02042579 -0.07314832 -0.01393231
v 0.02126766 -0.07290887 -0.01337958
v 0.02733059 -0.07138237 -0.00458259
v 0.03069806 -0.07002049 -0.00186574
v 0.03453078 -0.06816475 0.00267797
v 0.03670930 -0.06699743 0.00571335
v 0.03746994 -0.06656343 0.00571335
v 0.04404981 -0.06234311 -0.01248020
v 0.04839946 -0.05915542 -0.01125294
v 0.04845115 -0.05921528 -0.01024114
v 0.05006843 -0.05779354 -0.00944482
v 0.05091769 -0.05710512 -0.00793650
v 0.05170786 -0.05640173 -0.00641881
v 0.05246850 -0.05565345 -0.00490112
v 0.05323652 -0.05489020 -0.00338343
v 0.05475779 -0.05337867 -0.00186574
v 0.05551104 -0.05258549 -0.00186574
v 0.05619783 -0.05182224 -0.00186574
v 0.05700277 -0.05096920 -0.00035741
v 0.05898190 -0.04852979 0.00419566
v 0.05762310 -0.05022091 -0.00035741
v 0.05462486 -0.05327391 -0.00490112
v 0.05312574 -0.05481538 -0.00641881
v 0.05305190 -0.05472558 -0.00757113
v 0.05162663 -0.05634187 -0.00793650
v 0.05153801 -0.05623711 -0.00892956
v 0.04997243 -0.05770375 -0.01025051
v 0.04828869 -0.05902073 -0.01248020
v 0.02041102 -0.06602466 -0.02613005
v 0.04466275 -0.05239093 -0.02601763
v 0.04466275 -0.05086444 -0.02616753
v 0.06133766 -0.02813159 -0.02617689
v 0.06133766 -0.02662005 -0.02620500
v 0.06891448 -0.00084917 -0.02612068
v 0.01846143 -0.07308846 -0.01703328
v 0.01816603 -0.07286397 -0.01781086
v 0.01980546 -0.06835930 -0.02542742
v 0.04258023 -0.05939487 -0.02100550
v 0.04412366 -0.05638677 -0.02407836
v 0.02035194 -0.06759605 -0.02568036
v 0.06285155 0.02794477 -0.02606447
v 0.04617663 0.05067762 -0.02618626
v 0.00102588 0.07189894 -0.02099613
v 0.02041102 0.06432631 -0.02618626
v 0.01738324 0.06281478 -0.02613005
v 0.00102588 0.05371565 -0.02601763
v 0.00102588 -0.07554283 -0.00494796
v 0.00102588 -0.07488434 -0.00649376
v 0.00102588 -0.07476461 -0.00673734
v 0.00102588 -0.07422585 -0.00780534
v 0.00102588 -0.07416598 -0.00790839
v 0.00102588 -0.07407619 -0.00805829
v 0.00102588 -0.07325308 -0.00928556
v 0.00102588 -0.06141523 -0.02579278
v 0.01889713 -0.06838924 -0.02544616
v 0.01805526 -0.06837427 -0.02541805
v 0.05246850 -0.05557862 -0.00641881
v 0.05321436 -0.05489020 -0.00490112
v 0.05399715 -0.05412695 -0.00338343
v 0.05471348 -0.05336370 -0.00338343
v 0.05396761 -0.05403716 -0.00490112
v 0.01889713 -0.06755116 -0.02568036
v 0.00102588 -0.05997853 -0.02613005
v 0.00102588 -0.05845203 -0.02620500
v 0.02041102 -0.06451313 -0.02619563
v 0.04466275 -0.04935291 -0.02620500
v 0.06133766 -0.00084917 -0.02621437
v 0.06285155 0.00368542 -0.02621437
v 0.06587932 0.00066236 -0.02620500
v 0.06740059 -0.00084917 -0.02616753
v 0.03708593 -0.04178028 -0.02622374
v 0.06133766 0.02794477 -0.02618626
v 0.04466275 0.04916609 -0.02620500
v 0.02041102 0.06281478 -0.02620500
v 0.05981638 0.02794477 -0.02620500
v 0.01889713 0.06281478 -0.02620500
v 0.01586197 0.06128828 -0.02620500
v 0.00828515 0.05673872 -0.02621437
v 0.00524999 0.05522719 -0.02616753
v 0.00102588 0.05218916 -0.02620500
v 0.00222222 -0.05845203 -0.02621437
v 0.02041102 -0.06300160 -0.02620500
v 0.01586197 -0.05239093 -0.02623311
v 0.01738324 0.05218916 -0.02622374
v 0.05072568 0.02188368 -0.02621437
v 0.00222222 -0.04480334 -0.02621437
f 1 2 3
f 1 3 4
f 1 4 5
f 1 5 6
f 1 6 7
f 1 7 8
f 1 8 9
f 1 9 10
f 1 10 11
f 1 11 12
f 1 12 13
f 1 13 2
f 2 14 15
f 2 15 3
f 2 13 14
f 3 15 16
f 3 16 4
f 4 16 5
f 5 16 17
f 5 17 18
f 5 18 6
f 6 19 7
f 6 18 19
f 7 19 20
f 7 20 8
f 8 20 21
f 8 21 22
f 8 22 23
f 8 23 24
f 8 24 47
f 8 47 71
f 8 71 107
f 8 107 167
f 8 167 256
f 8 256 343
f 8 343 436
f 8 436 517
f 8 517 590
f 8 590 648
f 8 648 651
f 8 651 685
f 8 685 669
f 8 669 668
f 8 668 659
f 8 659 658
f 8 658 657
f 8 657 656
f 8 656 655
f 8 655 654
f 8 654 653
f 8 653 652
f 8 652 595
f 8 595 594
f 8 594 531
f 8 531 530
f 8 530 529
f 8 529 528
f 8 528 527
f 8 527 526
f 8 526 450
f 8 450 440
f 8 440 439
f 8 439 350
f 8 350 349
f 8 349 348
f 8 348 347
f 8 347 346
f 8 346 345
f 8 345 344
f 8 344 257
f 8 257 171
f 8 171 170
f 8 170 169
f 8 169 168
f 8 168 110
f 8 110 109
f 8 109 108
f 8 108 72
f 8 72 48
f 8 48 25
f 8 25 10
f 8 10 9
f 10 25 26
f 10 26 27
f 10 27 11
f 11 27 28
f 11 28 29
f 11 29 12
f 12 30 31
f 12 31 32
f 12 32 34
f 12 34 13
f 12 29 33
f 12 33 30
f 13 34 14
f 14 34 35
f 14 35 36
f 14 36 15
f 15 37 38
f 15 38 16
f 15 36 37
f 16 39 17
f 16 38 40
f 16 40 39
f 17 41 18
f 17 39 41
f 18 41 42
f 18 42 19
f 19 42 43
f 19 43 20
f 20 43 44
f 20 44 45
f 20 45 21
f 21 45 22
f 22 45 46
f 22 46 47
f 22 47 24
f 22 24 23
f 25 48 49
f 25 49 26
f 26 49 50
f 26 50 51
f 26 51 27
f 27 51 28
f 28 51 52
f 28 52 29
f 29 52 53
f 29 53 33
f 30 54 31
f 30 33 55
f 30 55 54
f 31 54 56
f 31 56 57
f 31 57 32
f 32 57 34
f 33 53 55
f 34 58 35
f 34 57 58
f 35 59 36
f 35 58 59
f 36 59 37
f 37 60 38
f 37 59 61
f 37 61 60
f 38 60 40
f 39 40 62
f 39 62 63
f 39 63 64
f 39 64 41
f 40 60 65
f 40 65 66
f 40 66 62
f 41 64 43
f 41 43 42
f 43 64 67
f 43 67 68
f 43 68 69
f 43 69 44
f 44 69 70
f 44 70 45
f 45 70 46
f 46 70 71
f 46 71 47
f 48 72 73
f 48 73 74
f 48 74 75
f 48 75 76
f 48 76 77
f 48 77 49
f 49 78 50
f 49 77 79
f 49 79 78
f 50 78 80
f 50 80 51
f 51 80 81
f 51 81 52
f 52 81 82
f 52 82 83
f 52 83 53
f 53 83 84
f 53 84 55
f 54 55 85
f 54 85 56
f 55 84 85
f 56 86 87
f 56 87 57
f 56 85 88
f 56 88 86
f 57 87 89
f 57 89 90
f 57 90 91
f 57 91 58
f 58 92 93
f 58 93 61
f 58 61 59
f 58 91 92
f 60 61 65
f 61 93 94
f 61 94 65
f 62 66 95
f 62 95 63
f 63 95 96
f 63 96 67
f 63 67 64
f 65 94 66
f 66 94 97
f 66 97 98
f 66 98 95
f 67 99 68
f 67 96 100
f 67 100 99
f 68 101 69
f 68 99 102
f 68 102 101
f 69 101 103
f 69 103 104
f 69 104 70
f 70 105 106
f 70 106 107
f 70 107 71
f 70 104 105
f 72 108 73
f 73 108 109
f 73 109 74
f 74 109 75
f 75 109 110
f 75 110 111
f 75 111 77
f 75 77 76
f 77 111 112
f 77 112 113
f 77 113 114
f 77 114 115
f 77 115 116
f 77 116 117
f 77 117 79
f 78 118 80
f 78 79 119
f 78 119 118
f 79 117 120
f 79 120 121
f 79 121 119
f 80 122 81
f 80 118 119
f 80 119 122
f 81 122 82
f 82 122 123
f 82 123 124
f 82 124 125
f 82 125 83
f 83 125 126
f 83 126 84
f 84 126 127
f 84 127 88
f 84 88 85
f 86 89 87
f 86 88 128
f 86 128 129
f 86 129 130
f 86 130 131
f 86 131 89
f 88 127 132
f 88 132 128
f 89 133 134
f 89 134 135
f 89 135 136
f 89 136 90
f 89 131 133
f 90 136 91
f 91 136 137
f 91 137 92
f 92 137 93
f 93 138 98
f 93 98 94
f 93 137 139
f 93 139 138
f 94 98 97
f 95 98 140
f 95 140 96
f 96 140 100
f 98 138 141
f 98 141 142
f 98 142 143
f 98 143 144
f 98 144 145
f 98 145 146
f 98 146 147
f 98 147 148
f 98 148 140
f 99 100 140
f 99 140 102
f 101 149 103
f 101 102 150
f 101 150 149
f 102 140 148
f 102 148 147
f 102 147 151
f 102 151 152
f 102 152 150
f 103 149 104
f 104 149 153
f 104 153 154
f 104 154 155
f 104 155 156
f 104 156 157
f 104 157 158
f 104 158 159
f 104 159 160
f 104 160 161
f 104 161 162
f 104 162 163
f 104 163 105
f 105 163 106
f 106 163 162
f 106 162 164
f 106 164 165
f 106 165 166
f 106 166 107
f 107 166 167
f 110 168 111
f 111 168 169
f 111 169 170
f 111 170 171
f 111 171 172
f 111 172 173
f 111 173 112
f 112 173 174
f 112 174 175
f 112 175 176
f 112 176 113
f 113 176 114
f 114 176 115
f 115 176 177
f 115 177 116
f 116 177 178
f 116 178 117
f 117 178 179
f 117 179 180
f 117 180 181
f 117 181 182
f 117 182 183
f 117 183 184
f 117 184 120
f 119 121 120
f 119 120 185
f 119 185 186
f 119 186 124
f 119 124 123
f 119 123 122
f 120 184 185
f 124 186 187
f 124 187 188
f 124 188 125
f 125 188 126
f 126 188 127
f 127 188 132
f 128 132 189
f 128 189 129
f 129 189 131
f 129 131 130
f 131 189 190
f 131 190 191
f 131 191 133
f 132 188 189
f 133 192 193
f 133 193 194
f 133 194 134
f 133 191 192
f 134 195 196
f 134 196 197
f 134 197 198
f 134 198 199
f 134 199 200
f 134 200 139
f 134 139 135
f 134 194 193
f 134 193 201
f 134 201 202
f 134 202 203
f 134 203 204
f 134 204 195
f 135 139 136
f 136 139 137
f 138 139 142
f 138 142 141
f 139 200 142
f 142 200 205
f 142 205 206
f 142 206 207
f 142 207 208
f 142 208 144
f 142 144 143
f 144 208 207
f 144 207 209
f 144 209 210
f 144 210 211
f 144 211 145
f 145 211 212
f 145 212 213
f 145 213 214
f 145 214 215
f 145 215 216
f 145 216 217
f 145 217 146
f 146 217 151
f 146 151 147
f 149 218 219
f 149 219 153
f 149 150 218
f 150 220 221
f 150 221 222
f 150 222 223
f 150 223 224
f 150 224 225
f 150 225 226
f 150 226 227
f 150 227 228
f 150 228 229
f 150 229 230
f 150 230 231
f 150 231 232
f 150 232 218
f 150 152 233
f 150 233 220
f 151 217 234
f 151 234 235
f 151 235 236
f 151 236 152
f 152 236 233
f 153 219 237
f 153 237 154
f 154 237 238
f 154 238 239
f 154 239 240
f 154 240 241
f 154 241 242
f 154 242 243
f 154 243 244
f 154 244 245
f 154 245 246
f 154 246 155
f 155 246 156
f 156 246 247
f 156 247 248
f 156 248 249
f 156 249 250
f 156 250 157
f 157 250 251
f 157 251 158
f 158 251 159
f 159 251 252
f 159 252 253
f 159 253 160
f 160 253 161
f 161 253 164
f 161 164 162
f 164 252 165
f 164 253 252
f 165 254 167
f 165 167 166
f 165 252 255
f 165 255 254
f 167 254 256
f 171 257 258
f 171 258 172
f 172 258 173
f 173 258 259
f 173 259 174
f 174 259 260
f 174 260 261
f 174 261 262
f 174 262 263
f 174 263 264
f 174 264 176
f 174 176 175
f 176 264 265
f 176 265 266
f 176 266 177
f 177 266 178
f 178 266 179
f 179 266 267
f 179 267 181
f 179 181 180
f 181 267 268
f 181 268 183
f 181 183 182
f 183 268 269
f 183 269 270
f 183 270 271
f 183 271 185
f 183 185 184
f 185 271 272
f 185 272 186
f 186 272 273
f 186 273 188
f 186 188 274
f 186 274 187
f 187 274 188
f 188 273 189
f 189 275 190
f 189 273 275
f 190 275 276
f 190 276 277
f 190 277 278
f 190 278 279
f 190 279 280
f 190 280 191
f 191 280 281
f 191 281 282
f 191 282 283
f 191 283 202
f 191 202 284
f 191 284 285
f 191 285 192
f 192 285 193
f 193 285 284
f 193 284 201
f 195 204 286
f 195 286 196
f 196 286 287
f 196 287 197
f 197 288 289
f 197 289 198
f 197 287 288
f 198 289 290
f 198 290 199
f 199 290 291
f 199 291 292
f 199 292 200
f 200 292 293
f 200 293 205
f 201 284 202
f 202 283 294
f 202 294 203
f 203 294 204
f 204 294 295
f 204 295 286
f 205 293 296
f 205 296 297
f 205 297 206
f 206 297 298
f 206 298 207
f 207 298 209
f 209 299 300
f 209 300 210
f 209 298 299
f 210 300 301
f 210 301 211
f 211 301 212
f 212 301 302
f 212 302 213
f 213 302 303
f 213 303 304
f 213 304 214
f 214 304 215
f 215 305 306
f 215 306 307
f 215 307 308
f 215 308 309
f 215 309 310
f 215 310 311
f 215 311 216
f 215 304 305
f 216 311 234
f 216 234 217
f 218 232 312
f 218 312 313
f 218 313 219
f 219 313 237
f 220 314 315
f 220 315 221
f 220 233 314
f 221 315 222
f 222 315 223
f 223 315 316
f 223 316 317
f 223 317 318
f 223 318 319
f 223 319 320
f 223 320 224
f 224 320 225
f 225 320 321
f 225 321 226
f 226 321 227
f 227 322 228
f 227 321 322
f 228 322 323
f 228 323 229
f 229 323 231
f 229 231 230
f 231 323 324
f 231 324 325
f 231 325 326
f 231 326 313
f 231 313 312
f 231 312 232
f 233 236 314
f 234 310 235
f 234 311 310
f 235 307 314
f 235 314 327
f 235 327 236
f 235 310 307
f 236 327 328
f 236 328 314
f 237 313 238
f 238 325 239
f 238 313 326
f 238 326 325
f 239 325 329
f 239 329 240
f 240 330 331
f 240 331 242
f 240 242 241
f 240 329 330
f 242 331 332
f 242 332 244
f 242 244 243
f 244 332 333
f 244 333 334
f 244 334 246
f 244 246 245
f 246 334 333
f 246 333 247
f 247 333 248
f 248 335 249
f 248 333 336
f 248 336 337
f 248 337 338
f 248 338 335
f 249 335 339
f 249 339 250
f 250 340 341
f 250 341 342
f 250 342 251
f 250 339 340
f 251 342 252
f 252 256 255
f 252 342 256
f 254 255 256
f 256 342 340
f 256 340 335
f 256 335 338
f 256 338 337
f 256 337 332
f 256 332 343
f 257 344 258
f 258 344 259
f 259 344 345
f 259 345 260
f 260 345 346
f 260 346 347
f 260 347 261
f 261 347 262
f 262 348 349
f 262 349 350
f 262 350 351
f 262 351 352
f 262 352 353
f 262 353 354
f 262 354 263
f 262 347 348
f 263 355 356
f 263 356 264
f 263 354 357
f 263 357 355
f 264 356 265
f 265 356 355
f 265 355 266
f 266 355 358
f 266 358 267
f 267 358 268
f 268 358 355
f 268 355 359
f 268 359 353
f 268 353 360
f 268 360 361
f 268 361 362
f 268 362 269
f 269 362 270
f 270 362 363
f 270 363 364
f 270 364 365
f 270 365 366
f 270 366 367
f 270 367 368
f 270 368 271
f 271 368 369
f 271 369 370
f 271 370 272
f 272 370 369
f 272 369 371
f 272 371 273
f 273 371 372
f 273 372 373
f 273 373 374
f 273 374 375
f 273 375 277
f 273 277 276
f 273 276 275
f 277 375 376
f 277 376 278
f 278 377 279
f 278 376 378
f 278 378 379
f 278 379 377
f 279 377 380
f 279 380 280
f 280 380 281
f 281 380 381
f 281 381 382
f 281 382 383
f 281 383 384
f 281 384 385
f 281 385 386
f 281 386 282
f 282 386 387
f 282 387 388
f 282 388 389
f 282 389 390
f 282 390 283
f 283 390 391
f 283 391 294
f 286 392 393
f 286 393 287
f 286 295 394
f 286 394 395
f 286 395 396
f 286 396 397
f 286 397 398
f 286 398 399
f 286 399 400
f 286 400 401
f 286 401 392
f 287 393 392
f 287 392 402
f 287 402 288
f 288 403 289
f 288 402 403
f 289 403 301
f 289 301 290
f 290 404 292
f 290 292 291
f 290 301 404
f 292 404 293
f 293 404 405
f 293 405 296
f 294 391 406
f 294 406 295
f 295 406 407
f 295 407 394
f 296 301 297
f 296 405 301
f 297 408 298
f 297 301 408
f 298 408 409
f 298 409 301
f 298 301 299
f 299 301 300
f 301 410 411
f 301 411 302
f 301 409 412
f 301 412 408
f 301 405 404
f 301 403 410
f 302 411 413
f 302 413 303
f 303 413 414
f 303 414 415
f 303 415 304
f 304 415 305
f 305 415 306
f 306 415 307
f 307 416 314
f 307 310 309
f 307 309 308
f 307 415 417
f 307 417 418
f 307 418 419
f 307 419 416
f 314 416 420
f 314 420 421
f 314 421 315
f 314 328 327
f 315 421 316
f 316 421 420
f 316 420 422
f 316 422 423
f 316 423 318
f 316 318 317
f 318 423 329
f 318 329 319
f 319 329 424
f 319 424 320
f 320 424 425
f 320 425 426
f 320 426 321
f 321 426 427
f 321 427 322
f 322 427 428
f 322 428 323
f 323 428 325
f 323 325 324
f 325 428 427
f 325 427 429
f 325 429 329
f 329 430 330
f 329 429 425
f 329 425 424
f 329 423 430
f 330 431 432
f 330 432 433
f 330 433 332
f 330 332 331
f 330 430 434
f 330 434 431
f 332 433 432
f 332 432 435
f 332 435 436
f 332 436 343
f 332 337 437
f 332 437 438
f 332 438 333
f 333 438 336
f 335 340 339
f 336 438 437
f 336 437 337
f 340 342 341
f 350 439 351
f 351 439 440
f 351 440 441
f 351 441 442
f 351 442 352
f 352 442 360
f 352 360 353
f 353 359 355
f 353 355 357
f 353 357 354
f 360 443 444
f 360 444 361
f 360 442 445
f 360 445 443
f 361 444 446
f 361 446 362
f 362 446 363
f 363 446 364
f 364 447 448
f 364 448 365
f 364 446 444
f 364 444 443
f 364 443 445
f 364 445 449
f 364 449 440
f 364 440 450
f 364 450 447
f 365 448 451
f 365 451 366
f 366 451 452
f 366 452 453
f 366 453 367
f 367 453 454
f 367 454 455
f 367 455 456
f 367 456 368
f 368 456 455
f 368 455 457
f 368 457 458
f 368 458 459
f 368 459 460
f 368 460 461
f 368 461 462
f 368 462 463
f 368 463 464
f 368 464 465
f 368 465 369
f 369 465 463
f 369 463 371
f 371 463 373
f 371 373 372
f 373 463 466
f 373 466 467
f 373 467 374
f 374 468 469
f 374 469 470
f 374 470 375
f 374 467 471
f 374 471 468
f 375 470 472
f 375 472 473
f 375 473 474
f 375 474 378
f 375 378 376
f 377 475 476
f 377 476 380
f 377 379 477
f 377 477 475
f 378 474 478
f 378 478 477
f 378 477 379
f 380 476 381
f 381 479 382
f 381 476 475
f 381 475 479
f 382 480 481
f 382 481 482
f 382 482 383
f 382 479 483
f 382 483 480
f 383 482 484
f 383 484 485
f 383 485 384
f 384 485 385
f 385 486 491
f 385 491 487
f 385 487 396
f 385 396 388
f 385 388 387
f 385 387 386
f 385 485 484
f 385 484 486
f 388 396 407
f 388 407 406
f 388 406 488
f 388 488 389
f 389 488 391
f 389 391 390
f 391 488 406
f 392 489 402
f 392 401 490
f 392 490 489
f 394 407 395
f 395 407 396
f 396 487 491
f 396 491 398
f 396 398 397
f 398 491 492
f 398 492 484
f 398 484 399
f 399 484 481
f 399 481 493
f 399 493 400
f 400 493 401
f 401 493 494
f 401 494 483
f 401 483 495
f 401 495 496
f 401 496 497
f 401 497 498
f 401 498 499
f 401 499 500
f 401 500 490
f 402 489 501
f 402 501 502
f 402 502 403
f 403 502 410
f 408 412 409
f 410 503 411
f 410 502 503
f 411 503 504
f 411 504 419
f 411 419 505
f 411 505 414
f 411 414 413
f 414 505 506
f 414 506 415
f 415 506 417
f 416 507 508
f 416 508 509
f 416 509 510
f 416 510 511
f 416 511 422
f 416 422 420
f 416 419 504
f 416 504 512
f 416 512 507
f 417 506 418
f 418 506 419
f 419 506 505
f 422 511 423
f 423 511 430
f 425 429 426
f 426 429 427
f 430 513 514
f 430 514 434
f 430 511 510
f 430 510 515
f 430 515 513
f 431 434 516
f 431 516 432
f 432 516 436
f 432 436 435
f 434 514 516
f 436 516 518
f 436 518 519
f 436 519 520
f 436 520 517
f 440 449 445
f 440 445 441
f 441 445 442
f 447 521 522
f 447 522 523
f 447 523 524
f 447 524 525
f 447 525 448
f 447 450 526
f 447 526 527
f 447 527 528
f 447 528 529
f 447 529 530
f 447 530 531
f 447 531 521
f 448 525 532
f 448 532 451
f 451 532 452
f 452 533 534
f 452 534 535
f 452 535 453
f 452 532 536
f 452 536 537
f 452 537 538
f 452 538 533
f 453 535 454
f 454 535 539
f 454 539 540
f 454 540 455
f 455 540 541
f 455 541 542
f 455 542 457
f 457 542 459
f 457 459 458
f 459 542 541
f 459 541 543
f 459 543 544
f 459 544 460
f 460 544 545
f 460 545 546
f 460 546 547
f 460 547 461
f 461 547 462
f 462 547 466
f 462 466 463
f 463 465 464
f 466 547 548
f 466 548 549
f 466 549 471
f 466 471 467
f 468 471 550
f 468 550 551
f 468 551 552
f 468 552 469
f 469 552 553
f 469 553 470
f 470 553 554
f 470 554 555
f 470 555 556
f 470 556 557
f 470 557 558
f 470 558 559
f 470 559 560
f 470 560 472
f 471 549 548
f 471 548 550
f 472 560 559
f 472 559 561
f 472 561 473
f 473 561 474
f 474 561 478
f 475 477 479
f 477 562 563
f 477 563 479
f 477 478 561
f 477 561 564
f 477 564 565
f 477 565 562
f 479 563 566
f 479 566 483
f 480 494 493
f 480 493 481
f 480 483 494
f 481 484 482
f 483 566 495
f 484 492 491
f 484 491 486
f 489 490 501
f 490 500 498
f 490 498 567
f 490 567 568
f 490 568 569
f 490 569 501
f 495 566 496
f 496 570 571
f 496 571 572
f 496 572 497
f 496 566 570
f 497 572 498
f 498 572 573
f 498 573 574
f 498 574 567
f 498 500 499
f 501 575 576
f 501 576 502
f 501 569 575
f 502 576 577
f 502 577 578
f 502 578 579
f 502 579 503
f 503 579 504
f 504 579 578
f 504 578 512
f 507 512 508
f 508 580 515
f 508 515 509
f 508 512 580
f 509 515 510
f 512 578 581
f 512 581 582
f 512 582 583
f 512 583 584
f 512 584 585
f 512 585 586
f 512 586 515
f 512 515 580
f 513 587 514
f 513 515 587
f 514 519 518
f 514 518 516
f 514 587 588
f 514 588 519
f 515 586 589
f 515 589 520
f 515 520 588
f 515 588 587
f 517 520 590
f 519 588 520
f 520 591 590
f 520 589 586
f 520 586 592
f 520 592 593
f 520 593 591
f 521 531 594
f 521 594 522
f 522 594 595
f 522 595 596
f 522 596 523
f 523 597 598
f 523 598 524
f 523 596 599
f 523 599 597
f 524 598 538
f 524 538 537
f 524 537 525
f 525 537 532
f 532 537 536
f 533 538 600
f 533 600 534
f 534 600 601
f 534 601 602
f 534 602 535
f 535 602 603
f 535 603 604
f 535 604 539
f 538 598 605
f 538 605 606
f 538 606 607
f 538 607 600
f 539 608 540
f 539 604 603
f 539 603 608
f 540 608 541
f 541 608 543
f 543 609 545
f 543 545 544
f 543 608 609
f 545 610 611
f 545 611 546
f 545 609 603
f 545 603 610
f 546 611 547
f 547 611 548
f 548 611 612
f 548 612 613
f 548 613 550
f 550 613 603
f 550 603 571
f 550 571 570
f 550 570 614
f 550 614 615
f 550 615 551
f 551 615 552
f 552 615 616
f 552 616 617
f 552 617 618
f 552 618 553
f 553 618 619
f 553 619 620
f 553 620 554
f 554 620 555
f 555 620 621
f 555 621 557
f 555 557 556
f 557 621 622
f 557 622 623
f 557 623 624
f 557 624 565
f 557 565 559
f 557 559 558
f 559 565 625
f 559 625 561
f 561 625 564
f 562 565 563
f 563 565 566
f 564 625 565
f 565 624 626
f 565 626 566
f 566 626 623
f 566 623 627
f 566 627 628
f 566 628 629
f 566 629 630
f 566 630 631
f 566 631 616
f 566 616 632
f 566 632 633
f 566 633 570
f 567 574 634
f 567 634 635
f 567 635 636
f 567 636 568
f 568 637 638
f 568 638 639
f 568 639 575
f 568 575 569
f 568 636 637
f 570 633 616
f 570 616 614
f 571 603 605
f 571 605 572
f 572 605 640
f 572 640 641
f 572 641 642
f 572 642 643
f 572 643 573
f 573 644 642
f 573 642 645
f 573 645 574
f 573 643 644
f 574 645 634
f 575 639 582
f 575 582 577
f 575 577 576
f 577 582 578
f 578 582 581
f 582 639 584
f 582 584 583
f 584 646 585
f 584 639 646
f 585 646 586
f 586 647 592
f 586 646 647
f 590 591 648
f 591 593 648
f 592 647 593
f 593 649 650
f 593 650 651
f 593 651 648
f 593 647 649
f 595 652 596
f 596 652 653
f 596 653 654
f 596 654 655
f 596 655 656
f 596 656 657
f 596 657 658
f 596 658 659
f 596 659 599
f 597 660 642
f 597 642 641
f 597 641 598
f 597 599 660
f 598 641 640
f 598 640 605
f 599 661 660
f 599 659 661
f 600 607 603
f 600 603 601
f 601 603 602
f 603 613 612
f 603 612 610
f 603 609 608
f 603 607 605
f 605 607 606
f 610 612 611
f 614 616 615
f 616 631 630
f 616 630 617
f 616 633 632
f 617 630 618
f 618 630 662
f 618 662 663
f 618 663 664
f 618 664 621
f 618 621 619
f 619 621 620
f 621 664 622
f 622 664 663
f 622 663 665
f 622 665 623
f 623 626 624
f 623 665 627
f 627 665 666
f 627 666 662
f 627 662 628
f 628 662 630
f 628 630 629
f 634 645 660
f 634 660 667
f 634 667 668
f 634 668 669
f 634 669 670
f 634 670 636
f 634 636 635
f 636 670 671
f 636 671 637
f 637 671 638
f 638 672 673
f 638 673 674
f 638 674 675
f 638 675 639
f 638 671 676
f 638 676 672
f 639 675 677
f 639 677 646
f 642 660 645
f 642 644 643
f 646 677 647
f 647 678 679
f 647 679 649
f 647 677 680
f 647 680 678
f 649 679 681
f 649 681 682
f 649 682 683
f 649 683 684
f 649 684 651
f 649 651 650
f 651 684 685
f 659 668 667
f 659 667 661
f 660 661 667
f 662 666 665
f 662 665 663
f 669 686 670
f 669 685 691
f 669 691 686
f 670 686 687
f 670 687 671
f 671 687 688
f 671 688 676
f 672 676 673
f 673 689 690
f 673 690 680
f 673 680 674
f 673 676 688
f 673 688 689
f 674 680 677
f 674 677 675
f 678 689 679
f 678 680 689
f 679 689 681
f 680 690 689
f 681 689 683
f 681 683 682
f 683 685 684
f 683 689 688
f 683 688 691
f 683 691 685
f 686 688 687
f 686 691 688

